{
classes = (
{
code = "ka-deva qa-deva k_ra-deva k_na-deva q_ra-deva";
name = "iiLetters-alt1";
},
{
code = "cha-deva ha-deva da-deva n_ha-deva m_ha-deva";
name = "iiLetters-alt3";
},
{
code = "ttha-deva ss_ttha-deva ra-deva rra-deva\012\012lla-deva llla-deva";
name = "iiLetters-alt4";
},
{
code = "k_ta-deva\012pha-deva fa-deva ph_ra-deva f_ra-deva f_za-deva f_fa-deva\012";
name = "iiLetters-alt5";
},
{
code = "iiMatra-deva\012iiMatra_reph_anusvara-deva\012iiMatra_reph_candraBindu-deva\012iiMatra_reph-deva";
name = iiMatra;
},
{
code = "iiMatra-deva.alt1\012iiMatra_reph_anusvara-deva.alt1\012iiMatra_reph_candraBindu-deva.alt1\012iiMatra_reph-deva.alt1";
name = "iiMatra-alt1";
},
{
code = "iiMatra-deva.alt2\012iiMatra_reph_anusvara-deva.alt2\012iiMatra_reph_candraBindu-deva.alt2\012iiMatra_reph-deva.alt2";
name = "iiMatra-alt2";
},
{
code = "iiMatra-deva.alt3\012iiMatra_reph_anusvara-deva.alt3\012iiMatra_reph_candraBindu-deva.alt3\012iiMatra_reph-deva.alt3";
name = "iiMatra-alt3";
},
{
code = "iiMatra-deva.alt4\012iiMatra_reph_anusvara-deva.alt4\012iiMatra_reph_candraBindu-deva.alt4\012iiMatra_reph-deva.alt4";
name = "iiMatra-alt4";
},
{
code = "iiMatra-deva.alt5\012iiMatra_reph_anusvara-deva.alt5\012iiMatra_reph_candraBindu-deva.alt5\012iiMatra_reph-deva.alt5";
name = "iiMatra-alt5";
},
{
code = "ka-deva tta-deva ttha-deva ddha-deva da-deva qa-deva rha-deva ha-deva\012\012k_na-deva k_ra-deva q_ra-deva\012tt_tta-deva tt_ttha-deva tt_ra-deva tt_va-deva\012tth_ttha-deva\012ddh_ddha-deva\012d_ga-deva d_na-deva d_ba-deva d_ra-deva d_va-deva\012h_ra-deva";
name = "iLetters-alt1";
},
{
code = "ja-deva za-deva la-deva\012ny_ca-deva ny_ja-deva ny_ra-deva\012l_ra-deva";
name = "iLetters-alt2";
},
{
code = "gha-deva tha-deva dha-deva\012gh_na-deva gh_ra-deva\012th_ra-deva\012dh_ra-deva\012d_ya-deva\012\012lla-deva llla-deva";
name = "iLetters-alt3";
},
{
code = "ra-deva rra-deva";
name = "iLetters-alt4";
},
{

glyphs = (
{
glyphname = A;
lastChange = "2014-10-01 13:49:10 +0000";
layers = (
{
anchors = (
{
name = top.cap;
position = "{244, 550}";
}
);
layerId = "CFA4B904-E3F1-48B6-A7F6-47DC1FF2A3E1";
name = "Regular Italic";
paths = (
{
closed = 1;
nodes = (
"399 0 LINE",
"347 161 LINE",
"137 161 LINE",
"85 0 LINE",
"16 0 LINE",
"204 550 LINE",
"284 550 LINE",
"473 0 LINE"
);
},
{
closed = 1;
nodes = (
"156 218 LINE",
"328 218 LINE",
"241 481 LINE"
);
}
);
width = 488;
}
);
unicode = 0041;
},
{
glyphname = Aogonek;
lastChange = "2014-08-18 12:56:28 +0000";
layers = (
{
layerId = "CFA4B904-E3F1-48B6-A7F6-47DC1FF2A3E1";
name = "Regular Italic";
paths = (
{
closed = 1;
nodes = (
"339 218 LINE",
"153 218 LINE",
"247 486 LINE"
);
},
{
closed = 1;
nodes = (
"381 -4 LINE SMOOTH",
"333 -36 OFFCURVE",
"299 -82 OFFCURVE",
"299 -129 CURVE SMOOTH",
"299 -181 OFFCURVE",
"332 -210 OFFCURVE",
"378 -210 CURVE SMOOTH",
"409 -210 OFFCURVE",
"446 -197 OFFCURVE",
"480 -172 CURVE",
"460 -136 LINE",
"435 -151 OFFCURVE",
"415 -159 OFFCURVE",
"395 -159 CURVE SMOOTH",
"372 -159 OFFCURVE",
"355 -147 OFFCURVE",
"355 -118 CURVE SMOOTH",
"355 -93 OFFCURVE",
"373 -66 OFFCURVE",
"410 -38 CURVE SMOOTH",
"478 10 LINE",
"287 550 LINE",
"212 550 LINE",
"16 0 LINE",
"78 0 LINE",
"133 161 LINE",
"360 161 LINE",
"410 16 LINE"
);
}
);
width = 493;
}
);
unicode = 0104;
},
{
glyphname = Aring;
lastChange = "2014-08-17 19:10:11 +0000";
layers = (
{
layerId = "CFA4B904-E3F1-48B6-A7F6-47DC1FF2A3E1";
name = "Regular Italic";
paths = (
{
closed = 1;
nodes = (
"145 587 OFFCURVE",
"171 552 OFFCURVE",
"207 536 CURVE",
"16 0 LINE",
"78 0 LINE",
"133 161 LINE",
"360 161 LINE",
"416 0 LINE",
"483 0 LINE",
"292 538 LINE",
"326 554 OFFCURVE",
"351 588 OFFCURVE",
"351 627 CURVE SMOOTH",
"351 681 OFFCURVE",
"304 727 OFFCURVE",
"248 727 CURVE SMOOTH",
"191 727 OFFCURVE",
"145 681 OFFCURVE",
"145 627 CURVE SMOOTH"
);
},
{
closed = 1;
nodes = (
"339 218 LINE",
"153 218 LINE",
"247 486 LINE"
);
},
{
closed = 1;
nodes = (
"305 596 OFFCURVE",
"279 570 OFFCURVE",
"246 570 CURVE SMOOTH",
"212 570 OFFCURVE",
"190 595 OFFCURVE",
"190 627 CURVE SMOOTH",
"190 660 OFFCURVE",
"212 684 OFFCURVE",
"247 684 CURVE SMOOTH",
"279 684 OFFCURVE",
"306 658 OFFCURVE",
"305 627 CURVE SMOOTH"
);
}
);
width = 499;
}
);
unicode = 00C5;
},
{
glyphname = AE;
lastChange = "2014-08-17 19:10:57 +0000";
layers = (
{
layerId = "CFA4B904-E3F1-48B6-A7F6-47DC1FF2A3E1";
name = "Regular Italic";
paths = (
{
closed = 1;
nodes = (
"231 550 LINE",
"16 0 LINE",
"80 0 LINE",
"141 161 LINE",
"333 161 LINE",
"333 0 LINE",
"634 0 LINE",
"634 58 LINE",
"394 58 LINE",
"394 256 LINE",
"613 256 LINE",
"613 313 LINE",
"394 313 LINE",
"394 494 LINE",
"634 494 LINE",
"634 550 LINE"
);
},
{
closed = 1;
nodes = (
"164 218 LINE",
"270 494 LINE",
"333 494 LINE",
"333 218 LINE"
);
}
);
width = 685;
}
);
unicode = 00C6;
},
{
glyphname = B;
lastChange = "2014-08-17 11:42:37 +0000";
layers = (
{
layerId = "CFA4B904-E3F1-48B6-A7F6-47DC1FF2A3E1";
name = "Regular Italic";
paths = (
{
closed = 1;
nodes = (
"350 474 OFFCURVE",
"307 493 OFFCURVE",
"239 493 CURVE SMOOTH",
"133 493 LINE",
"133 321 LINE",
"207 321 LINE SMOOTH",
"302 321 OFFCURVE",
"350 352 OFFCURVE",
"350 415 CURVE SMOOTH"
);
},
{
closed = 1;
nodes = (
"393 206 OFFCURVE",
"371 232 OFFCURVE",
"339 247 CURVE SMOOTH",
"307 262 OFFCURVE",
"266 266 OFFCURVE",
"229 266 CURVE SMOOTH",
"133 266 LINE",
"133 58 LINE",
"256 58 LINE SMOOTH",
"293 58 OFFCURVE",
"327 65 OFFCURVE",
"352 82 CURVE SMOOTH",
"377 98 OFFCURVE",
"393 124 OFFCURVE",
"393 161 CURVE SMOOTH"
);
},
{
closed = 1;
nodes = (
"373 297 OFFCURVE",
"403 281 OFFCURVE",
"424 258 CURVE SMOOTH",
"445 234 OFFCURVE",
"459 203 OFFCURVE",
"459 167 CURVE SMOOTH",
"459 127 OFFCURVE",
"447 82 OFFCURVE",
"412 50 CURVE SMOOTH",
"375 18 OFFCURVE",
"315 0 OFFCURVE",
"246 0 CURVE SMOOTH",
"67 0 LINE",
"67 550 LINE",
"261 550 LINE SMOOTH",
"306 550 OFFCURVE",
"347 539 OFFCURVE",
"374 515 CURVE SMOOTH",
"400 492 OFFCURVE",
"413 460 OFFCURVE",
"413 419 CURVE SMOOTH",
"413 372 OFFCURVE",
"388 325 OFFCURVE",
"341 302 CURVE"
);
}
);
width = 498;
}
);
unicode = 0042;
},
{
glyphname = C;
lastChange = "2014-08-17 19:04:49 +0000";
layers = (
{
anchors = (
{
name = top.cap;
position = "{315, 550}";
}
);
layerId = "CFA4B904-E3F1-48B6-A7F6-47DC1FF2A3E1";
name = "Regular Italic";
paths = (
{
closed = 1;
nodes = (
"464 475 LINE",
"420 490 OFFCURVE",
"389 498 OFFCURVE",
"334 498 CURVE SMOOTH",
"291 498 OFFCURVE",
"247 493 OFFCURVE",
"212 474 CURVE",
"151 438 OFFCURVE",
"117 370 OFFCURVE",
"117 277 CURVE SMOOTH",
"117 184 OFFCURVE",
"160 117 OFFCURVE",
"221 81 CURVE",
"256 62 OFFCURVE",
"297 52 OFFCURVE",
"344 52 CURVE SMOOTH",
"388 52 OFFCURVE",
"428 62 OFFCURVE",
"473 79 CURVE",
"489 27 LINE",
"440 3 OFFCURVE",
"385 -9 OFFCURVE",
"324 -9 CURVE SMOOTH",
"236 -9 OFFCURVE",
"164 27 OFFCURVE",
"119 71 CURVE SMOOTH",
"69 123 OFFCURVE",
"44 191 OFFCURVE",
"44 276 CURVE SMOOTH",
"44 364 OFFCURVE",
"71 434 OFFCURVE",
"116 478 CURVE",
"136 499 OFFCURVE",
"166 521 OFFCURVE",
"202 535 CURVE SMOOTH",
"237 549 OFFCURVE",
"276 558 OFFCURVE",
"315 558 CURVE SMOOTH",
"351 558 OFFCURVE",
"381 556 OFFCURVE",
"407 551 CURVE SMOOTH",
"433 546 OFFCURVE",
"456 538 OFFCURVE",
"483 529 CURVE"
);
}
);
width = 518;
}
);
unicode = 0043;
},
{
glyphname = Ccedilla;
lastChange = "2014-08-17 19:12:41 +0000";
layers = (
{
layerId = "CFA4B904-E3F1-48B6-A7F6-47DC1FF2A3E1";
name = "Regular Italic";
paths = (
{
closed = 1;
nodes = (
"273 -171 OFFCURVE",
"251 -166 OFFCURVE",
"217 -157 CURVE",
"205 -153 LINE",
"189 -206 LINE",
"228 -217 OFFCURVE",
"258 -226 OFFCURVE",
"292 -226 CURVE SMOOTH",
"345 -226 OFFCURVE",
"384 -190 OFFCURVE",
"384 -145 CURVE SMOOTH",
"384 -82 OFFCURVE",
"335 -65 OFFCURVE",
"300 -55 CURVE",
"288 -52 LINE",
"298 -8 LINE",
"306 -9 OFFCURVE",
"313 -9 OFFCURVE",
"320 -9 CURVE SMOOTH",
"384 -9 OFFCURVE",
"438 3 OFFCURVE",
"486 27 CURVE",
"470 79 LINE",
"427 62 OFFCURVE",
"385 52 OFFCURVE",
"340 52 CURVE SMOOTH",
"297 52 OFFCURVE",
"258 62 OFFCURVE",
"225 81 CURVE SMOOTH",
"162 117 OFFCURVE",
"119 184 OFFCURVE",
"119 277 CURVE SMOOTH",
"119 341 OFFCURVE",
"139 393 OFFCURVE",
"177 435 CURVE SMOOTH",
"208 468 OFFCURVE",
"264 498 OFFCURVE",
"326 498 CURVE SMOOTH",
"388 498 OFFCURVE",
"410 493 OFFCURVE",
"462 475 CURVE",
"479 529 LINE",
"427 549 OFFCURVE",
"387 558 OFFCURVE",
"314 558 CURVE SMOOTH",
"233 558 OFFCURVE",
"162 522 OFFCURVE",
"121 478 CURVE SMOOTH",
"78 434 OFFCURVE",
"44 363 OFFCURVE",
"44 276 CURVE SMOOTH",
"44 192 OFFCURVE",
"69 123 OFFCURVE",
"119 71 CURVE SMOOTH",
"149 41 OFFCURVE",
"189 14 OFFCURVE",
"240 2 CURVE",
"219 -91 LINE",
"284 -106 LINE SMOOTH",
"310 -112 OFFCURVE",
"326 -121 OFFCURVE",
"326 -142 CURVE SMOOTH",
"326 -164 OFFCURVE",
"308 -174 OFFCURVE",
"284 -172 CURVE SMOOTH"
);
}
);
width = 516;
}
);
unicode = 00C7;
},
{
glyphname = D;
lastChange = "2014-08-18 12:22:43 +0000";
layers = (
{
anchors = (
{
name = top.cap;
position = "{219, 550}";
}
);
layerId = "CFA4B904-E3F1-48B6-A7F6-47DC1FF2A3E1";
name = "Regular Italic";
paths = (
{
closed = 1;
nodes = (
"256 58 LINE SMOOTH",
"351 58 OFFCURVE",
"399 100 OFFCURVE",
"427 159 CURVE SMOOTH",
"443 192 OFFCURVE",
"447 232 OFFCURVE",
"447 275 CURVE SMOOTH",
"447 318 OFFCURVE",
"439 356 OFFCURVE",
"424 389 CURVE",
"409 418 OFFCURVE",
"392 444 OFFCURVE",
"365 463 CURVE SMOOTH",
"338 482 OFFCURVE",
"304 493 OFFCURVE",
"256 493 CURVE SMOOTH",
"133 493 LINE",
"133 58 LINE"
);
},
{
closed = 1;
nodes = (
"67 0 LINE",
"67 550 LINE",
"261 550 LINE SMOOTH",
"374 550 OFFCURVE",
"448 500 OFFCURVE",
"488 424 CURVE SMOOTH",
"509 381 OFFCURVE",
"520 332 OFFCURVE",
"520 275 CURVE SMOOTH",
"520 219 OFFCURVE",
"511 170 OFFCURVE",
"488 127 CURVE SMOOTH",
"448 48 OFFCURVE",
"374 0 OFFCURVE",
"261 0 CURVE SMOOTH"
);
}
);
width = 558;
}
);
unicode = 0044;
},
{
glyphname = Eth;
lastChange = "2014-08-17 19:08:17 +0000";
layers = (
{
layerId = "CFA4B904-E3F1-48B6-A7F6-47DC1FF2A3E1";
name = "Regular Italic";
paths = (
{
closed = 1;
nodes = (
"554 354 OFFCURVE",
"542 403 OFFCURVE",
"518 439 CURVE SMOOTH",
"465 520 OFFCURVE",
"390 550 OFFCURVE",
"260 550 CURVE SMOOTH",
"106 550 LINE",
"106 308 LINE",
"13 308 LINE",
"13 256 LINE",
"106 256 LINE",
"106 0 LINE",
"275 0 LINE SMOOTH",
"460 5 OFFCURVE",
"554 107 OFFCURVE",
"554 296 CURVE SMOOTH"
);
},
{
closed = 1;
nodes = (
"296 256 LINE",
"296 308 LINE",
"172 308 LINE",
"172 494 LINE",
"279 494 LINE SMOOTH",
"299 494 OFFCURVE",
"317 493 OFFCURVE",
"331 490 CURVE",
"417 475 OFFCURVE",
"488 395 OFFCURVE",
"488 287 CURVE SMOOTH",
"488 237 OFFCURVE",
"478 192 OFFCURVE",
"463 159 CURVE SMOOTH",
"439 110 OFFCURVE",
"392 72 OFFCURVE",
"332 63 CURVE",
"311 61 OFFCURVE",
"284 58 OFFCURVE",
"252 58 CURVE SMOOTH",
"172 58 LINE",
"172 256 LINE"
);
}
);
width = 592;
}
);
unicode = 00D0;
},
{
glyphname = E;
lastChange = "2014-08-17 18:33:54 +0000";
layers = (
{
anchors = (
{
name = top.cap;
position = "{228, 550}";
}
);
layerId = "CFA4B904-E3F1-48B6-A7F6-47DC1FF2A3E1";
name = "Regular Italic";
paths = (
{
closed = 1;
nodes = (
"67 550 LINE",
"389 550 LINE",
"389 494 LINE",
"133 494 LINE",
"133 313 LINE",
"369 313 LINE",
"369 256 LINE",
"133 256 LINE",
"133 58 LINE",
"389 58 LINE",
"389 0 LINE",
"67 0 LINE"
);
}
);
width = 442;
}
);
unicode = 0045;
},
{
glyphname = Eogonek;
lastChange = "2014-08-17 19:16:12 +0000";
layers = (
{
layerId = "CFA4B904-E3F1-48B6-A7F6-47DC1FF2A3E1";
name = "Regular Italic";
paths = (
{
closed = 1;
nodes = (
"266 -93 OFFCURVE",
"284 -66 OFFCURVE",
"322 -38 CURVE SMOOTH",
"389 10 LINE",
"389 58 LINE",
"133 58 LINE",
"133 256 LINE",
"368 256 LINE",
"368 313 LINE",
"133 313 LINE",
"133 494 LINE",
"389 494 LINE",
"389 550 LINE",
"67 550 LINE",
"67 0 LINE",
"300 0 LINE",
"292 -6 LINE",
"245 -37 OFFCURVE",
"210 -82 OFFCURVE",
"210 -129 CURVE SMOOTH",
"210 -181 OFFCURVE",
"242 -210 OFFCURVE",
"288 -210 CURVE SMOOTH",
"321 -210 OFFCURVE",
"358 -197 OFFCURVE",
"391 -172 CURVE",
"370 -136 LINE",
"344 -151 OFFCURVE",
"324 -159 OFFCURVE",
"305 -159 CURVE SMOOTH",
"283 -159 OFFCURVE",
"266 -147 OFFCURVE",
"266 -118 CURVE SMOOTH"
);
}
);
width = 442;
}
);
unicode = 0118;
},
{
glyphname = F;
lastChange = "2014-08-17 11:44:31 +0000";
layers = (
{
layerId = "CFA4B904-E3F1-48B6-A7F6-47DC1FF2A3E1";
name = "Regular Italic";
paths = (
{
closed = 1;
nodes = (
"133 313 LINE",
"364 313 LINE",
"364 256 LINE",
"133 256 LINE",
"133 0 LINE",
"67 0 LINE",
"67 550 LINE",
"387 550 LINE",
"387 494 LINE",
"133 494 LINE"
);
}
);
width = 424;
}
);
unicode = 0046;
},
{
glyphname = G;
lastChange = "2014-08-19 10:21:23 +0000";
layers = (
{
anchors = (
{
name = bottom;
position = "{308, 0}";
},
{
name = top.cap;
position = "{315, 550}";
}
);
layerId = "CFA4B904-E3F1-48B6-A7F6-47DC1FF2A3E1";
name = "Regular Italic";
paths = (
{
closed = 1;
nodes = (
"430 483 OFFCURVE",
"369 500 OFFCURVE",
"321 500 CURVE SMOOTH",
"240 500 OFFCURVE",
"170 451 OFFCURVE",
"140 387 CURVE SMOOTH",
"125 355 OFFCURVE",
"117 318 OFFCURVE",
"117 276 CURVE SMOOTH",
"117 184 OFFCURVE",
"160 116 OFFCURVE",
"220 81 CURVE SMOOTH",
"256 61 OFFCURVE",
"288 50 OFFCURVE",
"333 50 CURVE SMOOTH",
"376 50 OFFCURVE",
"427 66 OFFCURVE",
"458 91 CURVE",
"458 237 LINE",
"300 237 LINE",
"300 291 LINE",
"519 291 LINE",
"519 70 LINE",
"502 53 OFFCURVE",
"477 34 OFFCURVE",
"442 19 CURVE SMOOTH",
"407 3 OFFCURVE",
"364 -8 OFFCURVE",
"309 -8 CURVE SMOOTH",
"206 -8 OFFCURVE",
"122 49 OFFCURVE",
"79 130 CURVE SMOOTH",
"56 173 OFFCURVE",
"44 220 OFFCURVE",
"44 271 CURVE SMOOTH",
"44 388 OFFCURVE",
"101 477 OFFCURVE",
"177 521 CURVE SMOOTH",
"218 546 OFFCURVE",
"264 558 OFFCURVE",
"315 558 CURVE SMOOTH",
"388 558 OFFCURVE",
"443 541 OFFCURVE",
"496 510 CURVE",
"470 462 LINE"
);
}
);
width = 563;
}
);
unicode = 0047;
},
{
glyphname = H;
lastChange = "2014-08-17 19:06:47 +0000";
layers = (
{
anchors = (
{
name = top.cap;
position = "{286, 550}";
}
);
layerId = "CFA4B904-E3F1-48B6-A7F6-47DC1FF2A3E1";
name = "Regular Italic";
paths = (
{
closed = 1;
nodes = (
"505 550 LINE",
"505 0 LINE",
"439 0 LINE",
"439 247 LINE",
"133 247 LINE",
"133 0 LINE",
"67 0 LINE",
"67 550 LINE",
"133 550 LINE",
"133 307 LINE",
"439 307 LINE",
"439 550 LINE"
);
}
);
width = 573;
}
);
unicode = 0048;
},
{
glyphname = I;
lastChange = "2014-08-17 18:35:06 +0000";
layers = (
{
anchors = (
{
name = top.cap;
position = "{108, 550}";
}
);
layerId = "CFA4B904-E3F1-48B6-A7F6-47DC1FF2A3E1";
name = "Regular Italic";
paths = (
{
closed = 1;
nodes = (
"141 550 LINE",
"141 0 LINE",
"76 0 LINE",
"76 550 LINE"
);
}
);
width = 217;
}
);
unicode = 0049;
},
{
glyphname = IJ;
lastChange = "2014-08-19 08:29:23 +0000";
layers = (
{
layerId = "CFA4B904-E3F1-48B6-A7F6-47DC1FF2A3E1";
name = "Regular Italic";
paths = (
{
closed = 1;
nodes = (
"369 161 LINE SMOOTH",
"369 145 OFFCURVE",
"368 130 OFFCURVE",
"365 121 CURVE",
"353 77 OFFCURVE",
"312 50 OFFCURVE",
"256 50 CURVE SMOOTH",
"237 50 OFFCURVE",
"219 53 OFFCURVE",
"199 58 CURVE",
"189 2 LINE",
"216 -4 OFFCURVE",
"240 -7 OFFCURVE",
"264 -7 CURVE SMOOTH",
"323 -7 OFFCURVE",
"367 9 OFFCURVE",
"396 42 CURVE",
"426 72 OFFCURVE",
"435 105 OFFCURVE",
"435 165 CURVE SMOOTH",
"435 550 LINE",
"369 550 LINE"
);
},
{
closed = 1;
nodes = (
"76 0 LINE",
"141 0 LINE",
"141 550 LINE",
"76 550 LINE"
);
}
);
width = 495;
}
);
unicode = 0132;
},
{
glyphname = Iogonek;
lastChange = "2014-08-19 08:27:30 +0000";
layers = (
{
layerId = "CFA4B904-E3F1-48B6-A7F6-47DC1FF2A3E1";
name = "Regular Italic";
paths = (
{
closed = 1;
nodes = (
"39 -5 LINE",
"-10 -36 OFFCURVE",
"-44 -82 OFFCURVE",
"-44 -129 CURVE SMOOTH",
"-44 -181 OFFCURVE",
"-11 -210 OFFCURVE",
"34 -210 CURVE SMOOTH",
"66 -210 OFFCURVE",
"104 -197 OFFCURVE",
"137 -172 CURVE",
"117 -136 LINE",
"91 -151 OFFCURVE",
"72 -159 OFFCURVE",
"51 -159 CURVE SMOOTH",
"29 -159 OFFCURVE",
"11 -147 OFFCURVE",
"11 -118 CURVE SMOOTH",
"11 -93 OFFCURVE",
"29 -66 OFFCURVE",
"67 -38 CURVE SMOOTH",
"136 10 LINE",
"136 550 LINE",
"69 550 LINE",
"69 16 LINE"
);
}
);
width = 212;
}
);
unicode = 012E;
},
{
glyphname = J;
lastChange = "2014-08-17 18:37:22 +0000";
layers = (
{
anchors = (
{
name = top.cap;
position = "{220, 550}";
}
);
layerId = "CFA4B904-E3F1-48B6-A7F6-47DC1FF2A3E1";
name = "Regular Italic";
paths = (
{
closed = 1;
nodes = (
"253 550 LINE",
"253 165 LINE SMOOTH",
"253 105 OFFCURVE",
"244 73 OFFCURVE",
"216 42 CURVE SMOOTH",
"185 9 OFFCURVE",
"141 -7 OFFCURVE",
"83 -7 CURVE SMOOTH",
"58 -7 OFFCURVE",
"33 -4 OFFCURVE",
"9 2 CURVE",
"18 58 LINE",
"39 53 OFFCURVE",
"58 50 OFFCURVE",
"73 50 CURVE SMOOTH",
"132 50 OFFCURVE",
"172 77 OFFCURVE",
"184 121 CURVE",
"187 130 OFFCURVE",
"188 145 OFFCURVE",
"188 161 CURVE SMOOTH",
"188 550 LINE"
);
}
);
width = 313;
}
);
unicode = 004A;
},
{
glyphname = K;
lastChange = "2014-08-19 08:33:44 +0000";
layers = (
{
anchors = (
{
name = bottom;
position = "{254, 0}";
}
);
layerId = "CFA4B904-E3F1-48B6-A7F6-47DC1FF2A3E1";
name = "Regular Italic";
paths = (
{
closed = 1;
nodes = (
"133 550 LINE",
"133 0 LINE",
"67 0 LINE",
"67 550 LINE"
);
},
{
closed = 1;
nodes = (
"459 550 LINE",
"225 288 LINE",
"474 0 LINE",
"388 0 LINE",
"142 282 LINE",
"375 550 LINE"
);
}
);
width = 497;
}
);
unicode = 004B;
},
{
glyphname = L;
lastChange = "2014-08-19 08:38:06 +0000";
layers = (
{
anchors = (
{
name = bottom;
position = "{223, 0}";
},
{
name = top.cap;
position = "{176, 550}";
}
);
layerId = "CFA4B904-E3F1-48B6-A7F6-47DC1FF2A3E1";
name = "Regular Italic";
paths = (
{
closed = 1;
nodes = (
"133 550 LINE",
"133 58 LINE",
"380 58 LINE",
"380 0 LINE",
"67 0 LINE",
"67 550 LINE"
);
}
);
width = 400;
}
);
unicode = 004C;
},
{
glyphname = Lcaron;
layers = (
{
layerId = "CFA4B904-E3F1-48B6-A7F6-47DC1FF2A3E1";
name = "Regular Italic";
paths = (
{
closed = 1;
nodes = (
"67 0 LINE",
"380 0 LINE",
"380 58 LINE",
"133 58 LINE",
"133 550 LINE",
"67 550 LINE"
);
},
{
closed = 1;
nodes = (
"208 435 LINE",
"259 435 LINE",
"307 586 LINE",
"240 586 LINE"
);
}
);
width = 400;
}
);
unicode = 013D;
},
{
glyphname = Lslash;
lastChange = "2014-08-19 08:54:21 +0000";
layers = (
{
layerId = "CFA4B904-E3F1-48B6-A7F6-47DC1FF2A3E1";
name = "Regular Italic";
paths = (
{
closed = 1;
nodes = (
"85 282 LINE",
"9 238 LINE",
"9 170 LINE",
"85 215 LINE",
"85 0 LINE",
"398 0 LINE",
"398 58 LINE",
"151 58 LINE",
"151 253 LINE",
"252 312 LINE",
"252 380 LINE",
"151 321 LINE",
"151 550 LINE",
"85 550 LINE"
);
}
);
width = 418;
}
);
unicode = 0141;
},
{
glyphname = M;
lastChange = "2014-08-17 11:54:15 +0000";
layers = (
{
layerId = "CFA4B904-E3F1-48B6-A7F6-47DC1FF2A3E1";
name = "Regular Italic";
paths = (
{
closed = 1;
nodes = (
"161 550 LINE",
"336 217 LINE",
"517 550 LINE",
"604 550 LINE",
"604 0 LINE",
"538 0 LINE",
"538 457 LINE",
"369 158 LINE",
"302 158 LINE",
"133 457 LINE",
"133 0 LINE",
"67 0 LINE",
"67 550 LINE"
);
}
);
width = 672;
}
);
unicode = 004D;
},
{
glyphname = N;
lastChange = "2014-08-19 08:34:56 +0000";
layers = (
{
anchors = (
{
name = bottom;
position = "{278, 0}";
},
{
name = top.cap;
position = "{296, 550}";
}
);
layerId = "CFA4B904-E3F1-48B6-A7F6-47DC1FF2A3E1";
name = "Regular Italic";
paths = (
{
closed = 1;
nodes = (
"147 550 LINE",
"446 89 LINE",
"446 550 LINE",
"514 550 LINE",
"514 0 LINE",
"429 0 LINE",
"129 463 LINE",
"129 0 LINE",
"63 0 LINE",
"63 550 LINE"
);
}
);
width = 574;
}
);
unicode = 004E;
},
{
glyphname = O;
lastChange = "2014-08-17 18:37:54 +0000";
layers = (
{
anchors = (
{
name = top.cap;
position = "{302, 550}";
}
);
layerId = "CFA4B904-E3F1-48B6-A7F6-47DC1FF2A3E1";
name = "Regular Italic";
paths = (
{
closed = 1;
nodes = (
"189 556 OFFCURVE",
"116 500 OFFCURVE",
"76 424 CURVE SMOOTH",
"53 380 OFFCURVE",
"44 331 OFFCURVE",
"44 275 CURVE SMOOTH",
"44 219 OFFCURVE",
"53 169 OFFCURVE",
"76 127 CURVE SMOOTH",
"116 49 OFFCURVE",
"189 -7 OFFCURVE",
"302 -7 CURVE SMOOTH",
"415 -7 OFFCURVE",
"490 49 OFFCURVE",
"530 127 CURVE SMOOTH",
"550 169 OFFCURVE",
"562 219 OFFCURVE",
"562 275 CURVE SMOOTH",
"562 331 OFFCURVE",
"550 380 OFFCURVE",
"530 424 CURVE",
"490 500 OFFCURVE",
"415 556 OFFCURVE",
"302 556 CURVE SMOOTH"
);
},
{
closed = 1;
nodes = (
"212 51 OFFCURVE",
"168 101 OFFCURVE",
"140 161 CURVE",
"123 194 OFFCURVE",
"117 232 OFFCURVE",
"117 275 CURVE SMOOTH",
"117 317 OFFCURVE",
"123 355 OFFCURVE",
"140 389 CURVE SMOOTH",
"168 447 OFFCURVE",
"212 498 OFFCURVE",
"302 498 CURVE SMOOTH",
"392 498 OFFCURVE",
"438 447 OFFCURVE",
"465 389 CURVE SMOOTH",
"481 355 OFFCURVE",
"489 317 OFFCURVE",
"489 275 CURVE SMOOTH",
"489 232 OFFCURVE",
"481 194 OFFCURVE",
"465 161 CURVE SMOOTH",
"438 101 OFFCURVE",
"392 51 OFFCURVE",
"302 51 CURVE SMOOTH"
);
}
);
width = 606;
}
);
unicode = 004F;
},
{
glyphname = Oslash;
layers = (
{
layerId = "CFA4B904-E3F1-48B6-A7F6-47DC1FF2A3E1";
name = "Regular Italic";
paths = (
{
closed = 1;
nodes = (
"72 -8 LINE",
"144 62 LINE",
"187 20 OFFCURVE",
"244 -7 OFFCURVE",
"323 -7 CURVE SMOOTH",
"435 -7 OFFCURVE",
"508 49 OFFCURVE",
"548 127 CURVE SMOOTH",
"568 169 OFFCURVE",
"579 219 OFFCURVE",
"579 275 CURVE SMOOTH",
"579 331 OFFCURVE",
"568 383 OFFCURVE",
"539 437 CURVE",
"617 511 LINE",
"575 556 LINE",
"502 486 LINE",
"459 529 OFFCURVE",
"402 556 OFFCURVE",
"323 556 CURVE SMOOTH",
"209 556 OFFCURVE",
"136 500 OFFCURVE",
"97 424 CURVE SMOOTH",
"76 380 OFFCURVE",
"65 331 OFFCURVE",
"65 275 CURVE SMOOTH",
"65 219 OFFCURVE",
"76 169 OFFCURVE",
"97 127 CURVE SMOOTH",
"106 109 LINE",
"30 37 LINE"
);
},
{
closed = 1;
nodes = (
"136 317 OFFCURVE",
"144 355 OFFCURVE",
"160 389 CURVE SMOOTH",
"188 447 OFFCURVE",
"232 498 OFFCURVE",
"323 498 CURVE SMOOTH",
"385 498 OFFCURVE",
"425 475 OFFCURVE",
"454 440 CURVE",
"160 160 LINE",
"160 161 LINE",
"144 194 OFFCURVE",
"136 232 OFFCURVE",
"136 275 CURVE SMOOTH"
);
},
{
closed = 1;
nodes = (
"260 51 OFFCURVE",
"221 74 OFFCURVE",
"193 107 CURVE",
"485 387 LINE",
"502 353 OFFCURVE",
"509 315 OFFCURVE",
"509 275 CURVE SMOOTH",
"509 232 OFFCURVE",
"502 194 OFFCURVE",
"485 161 CURVE",
"458 101 OFFCURVE",
"412 51 OFFCURVE",
"323 51 CURVE SMOOTH"
);
}
);
width = 647;
}
);
unicode = 00D8;
},
{
glyphname = OE;
lastChange = "2014-08-18 12:36:10 +0000";
layers = (
{
layerId = "CFA4B904-E3F1-48B6-A7F6-47DC1FF2A3E1";
name = "Regular Italic";
paths = (
{
closed = 1;
nodes = (
"109 390 OFFCURVE",
"167 473 OFFCURVE",
"272 489 CURVE SMOOTH",
"289 491 OFFCURVE",
"314 494 OFFCURVE",
"346 494 CURVE SMOOTH",
"368 494 LINE",
"368 58 LINE",
"318 58 LINE SMOOTH",
"297 58 OFFCURVE",
"279 59 OFFCURVE",
"267 62 CURVE",
"180 77 OFFCURVE",
"109 153 OFFCURVE",
"109 264 CURVE SMOOTH"
);
},
{
closed = 1;
nodes = (
"311 550 OFFCURVE",
"262 547 OFFCURVE",
"230 539 CURVE SMOOTH",
"109 510 OFFCURVE",
"44 419 OFFCURVE",
"44 272 CURVE SMOOTH",
"44 205 OFFCURVE",
"58 149 OFFCURVE",
"86 105 CURVE SMOOTH",
"136 28 OFFCURVE",
"208 0 OFFCURVE",
"337 0 CURVE SMOOTH",
"674 0 LINE",
"674 58 LINE",
"434 58 LINE",
"434 256 LINE",
"653 256 LINE",
"653 313 LINE",
"434 313 LINE",
"434 494 LINE",
"674 494 LINE",
"674 550 LINE",
"372 550 LINE SMOOTH"
);
}
);
width = 725;
}
);
unicode = 0152;
},
{
glyphname = P;
lastChange = "2014-08-17 11:55:24 +0000";
layers = (
{
layerId = "CFA4B904-E3F1-48B6-A7F6-47DC1FF2A3E1";
name = "Regular Italic";
paths = (
{
closed = 1;
nodes = (
"184 286 OFFCURVE",
"160 287 OFFCURVE",
"133 289 CURVE",
"133 494 LINE",
"205 494 LINE SMOOTH",
"240 494 OFFCURVE",
"264 493 OFFCURVE",
"275 490 CURVE",
"329 485 OFFCURVE",
"367 452 OFFCURVE",
"367 392 CURVE SMOOTH",
"367 296 OFFCURVE",
"294 286 OFFCURVE",
"205 286 CURVE SMOOTH"
);
},
{
closed = 1;
nodes = (
"433 465 OFFCURVE",
"395 519 OFFCURVE",
"331 541 CURVE",
"316 545 OFFCURVE",
"300 550 OFFCURVE",
"240 550 CURVE SMOOTH",
"67 550 LINE",
"67 0 LINE",
"133 0 LINE",
"133 230 LINE",
"157 228 OFFCURVE",
"179 228 OFFCURVE",
"199 228 CURVE SMOOTH",
"245 228 OFFCURVE",
"301 233 OFFCURVE",
"331 243 CURVE SMOOTH",
"389 262 OFFCURVE",
"430 314 OFFCURVE",
"433 388 CURVE"
);
}
);
width = 465;
}
);
unicode = 0050;
},
{
glyphname = Thorn;
lastChange = "2014-08-18 12:42:12 +0000";
layers = (
{
layerId = "CFA4B904-E3F1-48B6-A7F6-47DC1FF2A3E1";
name = "Regular Italic";
paths = (
{
closed = 1;
nodes = (
"201 450 OFFCURVE",
"168 448 OFFCURVE",
"129 445 CURVE",
"129 550 LINE",
"63 550 LINE",
"63 0 LINE",
"129 0 LINE",
"129 129 LINE",
"153 127 OFFCURVE",
"175 126 OFFCURVE",
"196 126 CURVE SMOOTH",
"237 126 OFFCURVE",
"296 132 OFFCURVE",
"319 139 CURVE SMOOTH",
"388 159 OFFCURVE",
"430 216 OFFCURVE",
"430 292 CURVE SMOOTH",
"430 396 OFFCURVE",
"357 450 OFFCURVE",
"231 450 CURVE SMOOTH"
);
},
{
closed = 1;
nodes = (
"364 205 OFFCURVE",
"304 185 OFFCURVE",
"209 185 CURVE SMOOTH",
"187 185 OFFCURVE",
"160 185 OFFCURVE",
"129 188 CURVE",
"129 388 LINE",
"160 389 OFFCURVE",
"187 390 OFFCURVE",
"210 390 CURVE SMOOTH",
"299 390 OFFCURVE",
"364 370 OFFCURVE",
"364 292 CURVE SMOOTH"
);
}
);
width = 464;
}
);
unicode = 00DE;
},
{
glyphname = Q;
lastChange = "2014-08-17 11:56:18 +0000";
layers = (
{
layerId = "CFA4B904-E3F1-48B6-A7F6-47DC1FF2A3E1";
name = "Regular Italic";
paths = (
{
closed = 1;
nodes = (
"190 556 OFFCURVE",
"116 500 OFFCURVE",
"76 424 CURVE SMOOTH",
"53 380 OFFCURVE",
"44 331 OFFCURVE",
"44 275 CURVE SMOOTH",
"44 219 OFFCURVE",
"53 169 OFFCURVE",
"76 127 CURVE SMOOTH",
"116 49 OFFCURVE",
"190 -7 OFFCURVE",
"304 -7 CURVE SMOOTH",
"370 -7 OFFCURVE",
"427 13 OFFCURVE",
"466 47 CURVE",
"541 -22 LINE",
"582 21 LINE",
"507 89 LINE",
"516 101 OFFCURVE",
"523 113 OFFCURVE",
"530 127 CURVE SMOOTH",
"552 169 OFFCURVE",
"562 219 OFFCURVE",
"562 275 CURVE SMOOTH",
"562 331 OFFCURVE",
"552 380 OFFCURVE",
"530 424 CURVE SMOOTH",
"490 500 OFFCURVE",
"416 556 OFFCURVE",
"304 556 CURVE SMOOTH"
);
},
{
closed = 1;
nodes = (
"302 204 LINE",
"423 90 LINE",
"393 66 OFFCURVE",
"354 51 OFFCURVE",
"304 51 CURVE SMOOTH",
"214 51 OFFCURVE",
"169 101 OFFCURVE",
"141 161 CURVE SMOOTH",
"125 194 OFFCURVE",
"117 232 OFFCURVE",
"117 275 CURVE SMOOTH",
"117 317 OFFCURVE",
"125 355 OFFCURVE",
"141 389 CURVE SMOOTH",
"169 447 OFFCURVE",
"214 498 OFFCURVE",
"304 498 CURVE SMOOTH",
"393 498 OFFCURVE",
"439 447 OFFCURVE",
"466 389 CURVE SMOOTH",
"483 355 OFFCURVE",
"490 317 OFFCURVE",
"490 275 CURVE SMOOTH",
"490 225 OFFCURVE",
"480 175 OFFCURVE",
"459 136 CURVE",
"344 245 LINE"
);
}
);
width = 610;
}
);
unicode = 0051;
},
{
glyphname = R;
lastChange = "2014-08-19 08:36:38 +0000";
layers = (
{
anchors = (
{
name = bottom;
position = "{259, 0}";
},
{
name = top.cap;
position = "{222, 550}";
}
);
layerId = "CFA4B904-E3F1-48B6-A7F6-47DC1FF2A3E1";
name = "Regular Italic";
paths = (
{
closed = 1;
nodes = (
"463 0 LINE",
"307 237 LINE",
"383 257 OFFCURVE",
"432 313 OFFCURVE",
"433 388 CURVE SMOOTH",
"433 464 OFFCURVE",
"395 519 OFFCURVE",
"331 541 CURVE",
"316 545 OFFCURVE",
"300 550 OFFCURVE",
"240 550 CURVE SMOOTH",
"67 550 LINE",
"67 0 LINE",
"133 0 LINE",
"133 228 LINE",
"238 228 LINE",
"388 0 LINE"
);
},
{
closed = 1;
nodes = (
"184 286 OFFCURVE",
"160 287 OFFCURVE",
"133 289 CURVE",
"133 494 LINE",
"205 494 LINE SMOOTH",
"240 494 OFFCURVE",
"264 493 OFFCURVE",
"275 490 CURVE",
"329 485 OFFCURVE",
"367 452 OFFCURVE",
"367 392 CURVE SMOOTH",
"367 296 OFFCURVE",
"294 286 OFFCURVE",
"205 286 CURVE SMOOTH"
);
}
);
width = 496;
}
);
unicode = 0052;
},
{
glyphname = S;
lastChange = "2014-08-22 19:26:13 +0000";
layers = (
{
anchors = (
{
name = bottom;
position = "{209, 2}";
},
{
name = top.cap;
position = "{238, 549}";
}
);
background = {
paths = (
{
closed = 1;
nodes = (
"371 60 OFFCURVE",
"327 69 OFFCURVE",
"263 93 CURVE",
"240 29 LINE",
"297 9 OFFCURVE",
"337 -8 OFFCURVE",
"407 -8 CURVE SMOOTH",
"515 -8 OFFCURVE",
"620 40 OFFCURVE",
"620 149 CURVE SMOOTH",
"620 190 OFFCURVE",
"604 226 OFFCURVE",
"570 249 CURVE",
"519 287 OFFCURVE",
"431 313 OFFCURVE",
"369 345 CURVE",
"337 360 OFFCURVE",
"321 386 OFFCURVE",
"321 415 CURVE SMOOTH",
"321 468 OFFCURVE",
"369 497 OFFCURVE",
"446 497 CURVE SMOOTH",
"485 497 OFFCURVE",
"530 481 OFFCURVE",
"570 465 CURVE",
"589 524 LINE",
"544 543 OFFCURVE",
"488 562 OFFCURVE",
"438 562 CURVE SMOOTH",
"380 562 OFFCURVE",
"341 550 OFFCURVE",
"302 521 CURVE SMOOTH",
"271 497 OFFCURVE",
"253 459 OFFCURVE",
"253 408 CURVE SMOOTH",
"253 359 OFFCURVE",
"285 315 OFFCURVE",
"317 296 CURVE SMOOTH",
"367 266 OFFCURVE",
"433 246 OFFCURVE",
"490 220 CURVE",
"529 204 OFFCURVE",
"549 178 OFFCURVE",
"549 145 CURVE SMOOTH",
"549 85 OFFCURVE",
"482 60 OFFCURVE",
"409 60 CURVE SMOOTH"
);
}
);
};
layerId = "CFA4B904-E3F1-48B6-A7F6-47DC1FF2A3E1";
name = "Regular Italic";
paths = (
{
closed = 1;
nodes = (
"171 60 OFFCURVE",
"127 69 OFFCURVE",
"63 93 CURVE",
"40 29 LINE",
"97 9 OFFCURVE",
"137 -8 OFFCURVE",
"207 -8 CURVE SMOOTH",
"315 -8 OFFCURVE",
"420 40 OFFCURVE",
"420 149 CURVE SMOOTH",
"420 253 OFFCURVE",
"323 278 OFFCURVE",
"238 313 CURVE SMOOTH",
"189 333 OFFCURVE",
"121 357 OFFCURVE",
"121 415 CURVE SMOOTH",
"121 468 OFFCURVE",
"169 497 OFFCURVE",
"246 497 CURVE SMOOTH",
"285 497 OFFCURVE",
"330 481 OFFCURVE",
"370 465 CURVE",
"389 524 LINE",
"344 543 OFFCURVE",
"288 562 OFFCURVE",
"238 562 CURVE SMOOTH",
"180 562 OFFCURVE",
"141 550 OFFCURVE",
"102 521 CURVE SMOOTH",
"71 497 OFFCURVE",
"53 459 OFFCURVE",
"53 408 CURVE SMOOTH",
"53 324 OFFCURVE",
"119 290 OFFCURVE",
"202 257 CURVE SMOOTH",
"265 232 OFFCURVE",
"349 209 OFFCURVE",
"349 145 CURVE SMOOTH",
"349 85 OFFCURVE",
"282 60 OFFCURVE",
"209 60 CURVE SMOOTH"
);
}
);
width = 462;
}
);
unicode = 0053;
},
{
glyphname = T;
lastChange = "2014-08-19 10:09:49 +0000";
layers = (
{
anchors = (
{
name = bottom;
position = "{219, 0}";
},
{
name = top.cap;
position = "{223, 550}";
}
);
layerId = "CFA4B904-E3F1-48B6-A7F6-47DC1FF2A3E1";
name = "Regular Italic";
paths = (
{
closed = 1;
nodes = (
"442 550 LINE",
"442 494 LINE",
"257 494 LINE",
"257 0 LINE",
"191 0 LINE",
"191 494 LINE",
"9 494 LINE",
"9 550 LINE"
);
}
);
width = 451;
}
);
unicode = 0054;
},
{
glyphname = Tcedilla;
lastChange = "2014-08-19 10:13:17 +0000";
layers = (
{
layerId = "CFA4B904-E3F1-48B6-A7F6-47DC1FF2A3E1";
name = "Regular Italic";
paths = (
{
closed = 1;
nodes = (
"228 -171 OFFCURVE",
"206 -166 OFFCURVE",
"171 -157 CURVE",
"160 -153 LINE",
"145 -206 LINE",
"158 -209 LINE",
"202 -221 LINE",
"214 -225 OFFCURVE",
"224 -226 OFFCURVE",
"241 -226 CURVE SMOOTH",
"299 -226 OFFCURVE",
"337 -190 OFFCURVE",
"337 -145 CURVE SMOOTH",
"337 -82 OFFCURVE",
"291 -67 OFFCURVE",
"256 -57 CURVE",
"244 -52 LINE",
"257 0 LINE",
"257 494 LINE",
"442 494 LINE",
"442 550 LINE",
"9 550 LINE",
"9 494 LINE",
"191 494 LINE",
"191 0 LINE",
"171 -91 LINE",
"238 -106 LINE SMOOTH",
"256 -110 OFFCURVE",
"279 -121 OFFCURVE",
"279 -142 CURVE SMOOTH",
"279 -164 OFFCURVE",
"261 -174 OFFCURVE",
"238 -172 CURVE SMOOTH"
);
}
);
width = 451;
}
);
unicode = 0162;
},
{
glyphname = U;
lastChange = "2014-08-17 18:44:28 +0000";
layers = (
{
anchors = (
{
name = top.cap;
position = "{271, 550}";
}
);
layerId = "CFA4B904-E3F1-48B6-A7F6-47DC1FF2A3E1";
name = "Regular Italic";
paths = (
{
closed = 1;
nodes = (
"421 -9 OFFCURVE",
"480 66 OFFCURVE",
"480 210 CURVE SMOOTH",
"480 550 LINE",
"415 550 LINE",
"415 194 LINE SMOOTH",
"415 161 OFFCURVE",
"408 133 OFFCURVE",
"396 110 CURVE SMOOTH",
"375 69 OFFCURVE",
"334 49 OFFCURVE",
"271 49 CURVE SMOOTH",
"207 49 OFFCURVE",
"167 69 OFFCURVE",
"145 110 CURVE SMOOTH",
"133 133 OFFCURVE",
"127 161 OFFCURVE",
"127 194 CURVE SMOOTH",
"127 550 LINE",
"62 550 LINE",
"62 210 LINE SMOOTH",
"62 66 OFFCURVE",
"121 -9 OFFCURVE",
"271 -9 CURVE SMOOTH"
);
}
);
width = 542;
}
);
unicode = 0055;
},
{
glyphname = Uogonek;
lastChange = "2014-08-19 10:26:54 +0000";
layers = (
{
background = {
paths = (
{
closed = 1;
nodes = (
"515 -211 OFFCURVE",
"558 -200 OFFCURVE",
"593 -174 CURVE",
"572 -133 LINE",
"548 -150 OFFCURVE",
"524 -159 OFFCURVE",
"498 -159 CURVE SMOOTH",
"471 -159 OFFCURVE",
"460 -142 OFFCURVE",
"460 -118 CURVE SMOOTH",
"460 -95 OFFCURVE",
"473 -69 OFFCURVE",
"499 -41 CURVE",
"533 -11 OFFCURVE",
"577 10 OFFCURVE",
"621 34 CURVE",
"660 62 OFFCURVE",
"679 116 OFFCURVE",
"680 177 CURVE SMOOTH",
"680 550 LINE",
"615 550 LINE",
"615 194 LINE SMOOTH",
"615 171 OFFCURVE",
"613 152 OFFCURVE",
"608 137 CURVE",
"594 81 OFFCURVE",
"539 49 OFFCURVE",
"471 49 CURVE SMOOTH",
"421 49 OFFCURVE",
"381 64 OFFCURVE",
"358 91 CURVE SMOOTH",
"333 119 OFFCURVE",
"328 145 OFFCURVE",
"328 194 CURVE SMOOTH",
"328 550 LINE",
"262 550 LINE",
"262 240 LINE",
"262 202 LINE SMOOTH",
"262 182 OFFCURVE",
"262 165 OFFCURVE",
"263 149 CURVE SMOOTH",
"271 46 OFFCURVE",
"349 -10 OFFCURVE",
"470 -10 CURVE",
"456 -22 OFFCURVE",
"437 -38 OFFCURVE",
"425 -60 CURVE",
"410 -82 OFFCURVE",
"405 -105 OFFCURVE",
"405 -132 CURVE SMOOTH",
"405 -175 OFFCURVE",
"439 -211 OFFCURVE",
"488 -211 CURVE SMOOTH"
);
}
);
};
layerId = "CFA4B904-E3F1-48B6-A7F6-47DC1FF2A3E1";
name = "Regular Italic";
paths = (
{
closed = 1;
nodes = (
"315 -211 OFFCURVE",
"358 -200 OFFCURVE",
"393 -174 CURVE",
"372 -133 LINE",
"348 -150 OFFCURVE",
"324 -159 OFFCURVE",
"298 -159 CURVE SMOOTH",
"271 -159 OFFCURVE",
"260 -142 OFFCURVE",
"260 -118 CURVE SMOOTH",
"260 -58 OFFCURVE",
"335 -12 OFFCURVE",
"384 14 CURVE SMOOTH",
"446 47 OFFCURVE",
"480 90 OFFCURVE",
"480 182 CURVE SMOOTH",
"480 550 LINE",
"415 550 LINE",
"415 194 LINE SMOOTH",
"415 171 OFFCURVE",
"413 152 OFFCURVE",
"408 137 CURVE",
"394 81 OFFCURVE",
"339 49 OFFCURVE",
"271 49 CURVE SMOOTH",
"221 49 OFFCURVE",
"181 64 OFFCURVE",
"158 91 CURVE SMOOTH",
"133 119 OFFCURVE",
"128 145 OFFCURVE",
"128 194 CURVE SMOOTH",
"128 550 LINE",
"62 550 LINE",
"62 245 LINE",
"62 207 LINE SMOOTH",
"62 187 OFFCURVE",
"62 170 OFFCURVE",
"63 154 CURVE SMOOTH",
"71 51 OFFCURVE",
"149 -10 OFFCURVE",
"270 -10 CURVE",
"256 -22 OFFCURVE",
"237 -38 OFFCURVE",
"225 -60 CURVE",
"210 -82 OFFCURVE",
"205 -105 OFFCURVE",
"205 -132 CURVE SMOOTH",
"205 -175 OFFCURVE",
"239 -211 OFFCURVE",
"288 -211 CURVE SMOOTH"
);
}
);
width = 542;
}
);
unicode = 0172;
},
{
glyphname = V;
lastChange = "2014-08-17 13:31:57 +0000";
layers = (
{
layerId = "CFA4B904-E3F1-48B6-A7F6-47DC1FF2A3E1";
name = "Regular Italic";
paths = (
{
closed = 1;
nodes = (
"88 550 LINE",
"245 69 LINE",
"404 550 LINE",
"476 550 LINE",
"284 0 LINE",
"201 0 LINE",
"9 550 LINE"
);
}
);
width = 485;
}
);
unicode = 0056;
},
{
glyphname = W;
lastChange = "2014-08-17 13:32:14 +0000";
layers = (
{
layerId = "CFA4B904-E3F1-48B6-A7F6-47DC1FF2A3E1";
name = "Regular Italic";
paths = (
{
closed = 1;
nodes = (
"81 550 LINE",
"219 88 LINE",
"358 550 LINE",
"425 550 LINE",
"568 88 LINE",
"703 550 LINE",
"768 550 LINE",
"603 0 LINE",
"533 0 LINE",
"388 460 LINE",
"252 0 LINE",
"182 0 LINE",
"9 550 LINE"
);
}
);
width = 777;
}
);
unicode = 0057;
},
{
glyphname = X;
lastChange = "2014-08-17 13:32:41 +0000";
layers = (
{
layerId = "CFA4B904-E3F1-48B6-A7F6-47DC1FF2A3E1";
name = "Regular Italic";
paths = (
{
closed = 1;
nodes = (
"463 550 LINE",
"288 289 LINE",
"484 0 LINE",
"399 0 LINE",
"244 232 LINE",
"89 0 LINE",
"9 0 LINE",
"207 288 LINE",
"30 550 LINE",
"111 550 LINE",
"251 344 LINE",
"388 550 LINE"
);
}
);
width = 493;
}
);
unicode = 0058;
},
{
glyphname = Y;
lastChange = "2014-08-17 18:57:03 +0000";
layers = (
{
anchors = (
{
name = top.cap;
position = "{228, 550}";
}
);
guideLines = (
{
angle = 90;
position = "{428, 453}";
}
);
layerId = "CFA4B904-E3F1-48B6-A7F6-47DC1FF2A3E1";
name = "Regular Italic";
paths = (
{
closed = 1;
nodes = (
"191 0 LINE",
"191 261 LINE",
"9 550 LINE",
"87 550 LINE",
"228 324 LINE",
"370 550 LINE",
"445 550 LINE",
"257 261 LINE",
"257 0 LINE"
);
}
);
width = 454;
}
);
unicode = 0059;
},
{
glyphname = Z;
lastChange = "2014-08-18 12:04:18 +0000";
layers = (
{
anchors = (
{
name = top.cap;
position = "{242, 550}";
}
);
layerId = "CFA4B904-E3F1-48B6-A7F6-47DC1FF2A3E1";
name = "Regular Italic";
paths = (
{
closed = 1;
nodes = (
"437 550 LINE",
"437 509 LINE",
"119 58 LINE",
"439 58 LINE",
"439 0 LINE",
"36 0 LINE",
"36 43 LINE",
"352 494 LINE",
"47 494 LINE",
"47 550 LINE"
);
}
);
width = 475;
}
);
unicode = 005A;
},
{
glyphname = a;
lastChange = "2014-08-17 17:45:35 +0000";
layers = (
{
anchors = (
{
name = top;
position = "{189, 384}";
}
);
background = {
paths = (
{
closed = 1;
nodes = (
"428 333 OFFCURVE",
"457 318 OFFCURVE",
"468 288 CURVE",
"473 276 OFFCURVE",
"476 256 OFFCURVE",
"476 228 CURVE SMOOTH",
"476 225 LINE",
"417 225 OFFCURVE",
"369 218 OFFCURVE",
"331 208 CURVE SMOOTH",
"281 196 OFFCURVE",
"238 159 OFFCURVE",
"238 96 CURVE SMOOTH",
"238 33 OFFCURVE",
"293 -10 OFFCURVE",
"361 -10 CURVE SMOOTH",
"404 -10 OFFCURVE",
"442 7 OFFCURVE",
"478 36 CURVE",
"492 0 LINE",
"541 0 LINE",
"541 248 LINE SMOOTH",
"541 312 OFFCURVE",
"528 339 OFFCURVE",
"488 368 CURVE",
"466 381 OFFCURVE",
"432 388 OFFCURVE",
"389 388 CURVE SMOOTH",
"348 388 OFFCURVE",
"305 379 OFFCURVE",
"264 365 CURVE",
"277 317 LINE",
"309 327 OFFCURVE",
"353 333 OFFCURVE",
"380 333 CURVE SMOOTH"
);
},
{
closed = 1;
nodes = (
"361 42 OFFCURVE",
"351 44 OFFCURVE",
"343 47 CURVE",
"321 58 OFFCURVE",
"301 77 OFFCURVE",
"301 103 CURVE SMOOTH",
"301 113 OFFCURVE",
"305 121 OFFCURVE",
"310 131 CURVE",
"323 152 OFFCURVE",
"345 165 OFFCURVE",
"374 171 CURVE SMOOTH",
"389 174 OFFCURVE",
"424 177 OFFCURVE",
"476 178 CURVE",
"476 86 LINE",
"448 60 OFFCURVE",
"417 42 OFFCURVE",
"370 42 CURVE SMOOTH"
);
}
);
};
layerId = "CFA4B904-E3F1-48B6-A7F6-47DC1FF2A3E1";
name = "Regular Italic";
paths = (
{
closed = 1;
nodes = (
"228 333 OFFCURVE",
"257 318 OFFCURVE",
"268 288 CURVE",
"273 276 OFFCURVE",
"276 256 OFFCURVE",
"276 228 CURVE SMOOTH",
"276 225 LINE",
"217 224 OFFCURVE",
"171 220 OFFCURVE",
"133 210 CURVE SMOOTH",
"83 198 OFFCURVE",
"38 159 OFFCURVE",
"38 96 CURVE SMOOTH",
"38 33 OFFCURVE",
"93 -10 OFFCURVE",
"161 -10 CURVE SMOOTH",
"204 -10 OFFCURVE",
"242 7 OFFCURVE",
"278 36 CURVE",
"292 0 LINE",
"341 0 LINE",
"341 248 LINE SMOOTH",
"341 312 OFFCURVE",
"328 339 OFFCURVE",
"288 368 CURVE",
"266 381 OFFCURVE",
"232 388 OFFCURVE",
"189 388 CURVE SMOOTH",
"148 388 OFFCURVE",
"105 379 OFFCURVE",
"64 365 CURVE",
"77 317 LINE",
"109 327 OFFCURVE",
"153 333 OFFCURVE",
"180 333 CURVE SMOOTH"
);
},
{
closed = 1;
nodes = (
"136 42 OFFCURVE",
"101 62 OFFCURVE",
"101 103 CURVE SMOOTH",
"101 141 OFFCURVE",
"127 160 OFFCURVE",
"174 170 CURVE SMOOTH",
"189 173 OFFCURVE",
"224 177 OFFCURVE",
"276 178 CURVE",
"276 86 LINE",
"248 60 OFFCURVE",
"217 42 OFFCURVE",
"170 42 CURVE SMOOTH"
);
}
);
width = 393;
}
);
unicode = 0061;
},
{
glyphname = aogonek;
lastChange = "2014-08-18 12:59:36 +0000";
layers = (
{
background = {
paths = (
{
closed = 1;
nodes = (
"541 312 OFFCURVE",
"528 339 OFFCURVE",
"488 368 CURVE",
"466 381 OFFCURVE",
"432 388 OFFCURVE",
"389 388 CURVE SMOOTH",
"348 388 OFFCURVE",
"305 379 OFFCURVE",
"264 365 CURVE",
"277 317 LINE",
"309 327 OFFCURVE",
"353 333 OFFCURVE",
"380 333 CURVE SMOOTH",
"428 333 OFFCURVE",
"457 318 OFFCURVE",
"468 288 CURVE",
"473 276 OFFCURVE",
"476 256 OFFCURVE",
"476 228 CURVE SMOOTH",
"476 225 LINE",
"417 224 OFFCURVE",
"371 220 OFFCURVE",
"333 210 CURVE SMOOTH",
"283 198 OFFCURVE",
"238 159 OFFCURVE",
"238 96 CURVE SMOOTH",
"238 33 OFFCURVE",
"293 -10 OFFCURVE",
"361 -10 CURVE SMOOTH",
"404 -10 OFFCURVE",
"442 7 OFFCURVE",
"478 36 CURVE",
"489 8 LINE",
"444 -19 LINE SMOOTH",
"381 -57 OFFCURVE",
"348 -93 OFFCURVE",
"348 -144 CURVE SMOOTH",
"348 -190 OFFCURVE",
"385 -214 OFFCURVE",
"427 -214 CURVE SMOOTH",
"460 -214 OFFCURVE",
"493 -200 OFFCURVE",
"532 -177 CURVE",
"513 -142 LINE",
"488 -157 OFFCURVE",
"465 -164 OFFCURVE",
"448 -164 CURVE SMOOTH",
"425 -164 OFFCURVE",
"408 -151 OFFCURVE",
"408 -123 CURVE SMOOTH",
"408 -99 OFFCURVE",
"426 -78 OFFCURVE",
"459 -57 CURVE",
"472 -48 OFFCURVE",
"504 -29 OFFCURVE",
"541 -11 CURVE",
"541 248 LINE SMOOTH"
);
},
{
closed = 1;
nodes = (
"336 42 OFFCURVE",
"301 62 OFFCURVE",
"301 103 CURVE SMOOTH",
"301 141 OFFCURVE",
"327 160 OFFCURVE",
"374 170 CURVE SMOOTH",
"389 173 OFFCURVE",
"424 177 OFFCURVE",
"476 178 CURVE",
"476 86 LINE",
"448 60 OFFCURVE",
"417 42 OFFCURVE",
"370 42 CURVE SMOOTH"
);
}
);
};
layerId = "CFA4B904-E3F1-48B6-A7F6-47DC1FF2A3E1";
name = "Regular Italic";
paths = (
{
closed = 1;
nodes = (
"341 312 OFFCURVE",
"328 339 OFFCURVE",
"288 368 CURVE",
"266 381 OFFCURVE",
"232 388 OFFCURVE",
"189 388 CURVE SMOOTH",
"148 388 OFFCURVE",
"105 379 OFFCURVE",
"64 365 CURVE",
"77 317 LINE",
"109 327 OFFCURVE",
"153 333 OFFCURVE",
"180 333 CURVE SMOOTH",
"228 333 OFFCURVE",
"257 318 OFFCURVE",
"268 288 CURVE",
"273 276 OFFCURVE",
"276 256 OFFCURVE",
"276 228 CURVE SMOOTH",
"276 225 LINE",
"217 224 OFFCURVE",
"171 220 OFFCURVE",
"133 210 CURVE SMOOTH",
"83 198 OFFCURVE",
"38 159 OFFCURVE",
"38 96 CURVE SMOOTH",
"38 33 OFFCURVE",
"93 -10 OFFCURVE",
"161 -10 CURVE SMOOTH",
"214 -10 OFFCURVE",
"249 13 OFFCURVE",
"282 40 CURVE",
"289 8 LINE",
"244 -19 LINE SMOOTH",
"180 -57 OFFCURVE",
"148 -93 OFFCURVE",
"148 -144 CURVE SMOOTH",
"148 -190 OFFCURVE",
"185 -214 OFFCURVE",
"227 -214 CURVE SMOOTH",
"260 -214 OFFCURVE",
"293 -200 OFFCURVE",
"332 -177 CURVE",
"313 -142 LINE",
"288 -157 OFFCURVE",
"265 -164 OFFCURVE",
"248 -164 CURVE SMOOTH",
"225 -164 OFFCURVE",
"208 -151 OFFCURVE",
"208 -123 CURVE SMOOTH",
"208 -99 OFFCURVE",
"226 -78 OFFCURVE",
"259 -57 CURVE",
"272 -48 OFFCURVE",
"304 -29 OFFCURVE",
"341 -11 CURVE",
"341 248 LINE SMOOTH"
);
},
{
closed = 1;
nodes = (
"136 42 OFFCURVE",
"101 62 OFFCURVE",
"101 103 CURVE SMOOTH",
"101 141 OFFCURVE",
"127 160 OFFCURVE",
"174 170 CURVE SMOOTH",
"189 173 OFFCURVE",
"224 177 OFFCURVE",
"276 178 CURVE",
"276 86 LINE",
"248 60 OFFCURVE",
"217 42 OFFCURVE",
"170 42 CURVE SMOOTH"
);
}
);
width = 393;
}
);
unicode = 0105;
},
{
glyphname = ae;
lastChange = "2014-08-18 12:37:37 +0000";
layers = (
{
layerId = "CFA4B904-E3F1-48B6-A7F6-47DC1FF2A3E1";
name = "Regular Italic";
paths = (
{
closed = 1;
nodes = (
"384 389 OFFCURVE",
"351 370 OFFCURVE",
"319 333 CURVE",
"313 346 OFFCURVE",
"304 356 OFFCURVE",
"288 368 CURVE",
"266 381 OFFCURVE",
"232 388 OFFCURVE",
"189 388 CURVE SMOOTH",
"148 388 OFFCURVE",
"105 379 OFFCURVE",
"64 365 CURVE",
"77 317 LINE",
"109 327 OFFCURVE",
"153 333 OFFCURVE",
"180 333 CURVE SMOOTH",
"228 333 OFFCURVE",
"257 318 OFFCURVE",
"268 288 CURVE",
"273 276 OFFCURVE",
"276 256 OFFCURVE",
"276 228 CURVE SMOOTH",
"276 225 LINE",
"217 225 OFFCURVE",
"169 218 OFFCURVE",
"131 208 CURVE SMOOTH",
"81 196 OFFCURVE",
"38 159 OFFCURVE",
"38 96 CURVE SMOOTH",
"38 33 OFFCURVE",
"93 -10 OFFCURVE",
"161 -10 CURVE SMOOTH",
"225 -10 OFFCURVE",
"275 14 OFFCURVE",
"308 58 CURVE",
"335 14 OFFCURVE",
"385 -8 OFFCURVE",
"456 -8 CURVE SMOOTH",
"498 -8 OFFCURVE",
"540 0 OFFCURVE",
"579 13 CURVE",
"567 61 LINE",
"534 50 OFFCURVE",
"503 46 OFFCURVE",
"474 46 CURVE SMOOTH",
"425 46 OFFCURVE",
"395 58 OFFCURVE",
"372 81 CURVE",
"351 105 OFFCURVE",
"335 137 OFFCURVE",
"335 172 CURVE",
"589 172 LINE",
"594 180 LINE",
"594 215 LINE SMOOTH",
"594 325 OFFCURVE",
"538 389 OFFCURVE",
"437 389 CURVE SMOOTH"
);
},
{
closed = 1;
nodes = (
"121 42 OFFCURVE",
"101 67 OFFCURVE",
"101 103 CURVE SMOOTH",
"101 180 OFFCURVE",
"214 177 OFFCURVE",
"276 178 CURVE",
"276 86 LINE",
"248 60 OFFCURVE",
"217 42 OFFCURVE",
"170 42 CURVE SMOOTH"
);
},
{
closed = 1;
nodes = (
"336 224 LINE",
"344 284 OFFCURVE",
"369 338 OFFCURVE",
"443 338 CURVE SMOOTH",
"503 338 OFFCURVE",
"529 286 OFFCURVE",
"529 224 CURVE"
);
}
);
width = 629;
}
);
unicode = 00E6;
},
{
glyphname = b;
lastChange = "2014-08-17 13:37:44 +0000";
layers = (
{
layerId = "CFA4B904-E3F1-48B6-A7F6-47DC1FF2A3E1";
name = "Regular Italic";
paths = (
{
closed = 1;
nodes = (
"171 47 OFFCURVE",
"150 56 OFFCURVE",
"123 70 CURVE",
"123 324 LINE",
"151 335 OFFCURVE",
"179 339 OFFCURVE",
"208 339 CURVE SMOOTH",
"294 339 OFFCURVE",
"333 278 OFFCURVE",
"333 192 CURVE SMOOTH",
"333 91 OFFCURVE",
"294 47 OFFCURVE",
"209 47 CURVE SMOOTH"
);
},
{
closed = 1;
nodes = (
"149 5 OFFCURVE",
"186 -8 OFFCURVE",
"225 -8 CURVE SMOOTH",
"341 -8 OFFCURVE",
"401 73 OFFCURVE",
"401 188 CURVE SMOOTH",
"401 253 OFFCURVE",
"384 308 OFFCURVE",
"348 344 CURVE SMOOTH",
"312 378 OFFCURVE",
"268 392 OFFCURVE",
"216 392 CURVE SMOOTH",
"185 392 OFFCURVE",
"153 388 OFFCURVE",
"123 374 CURVE",
"123 532 LINE",
"58 532 LINE",
"58 0 LINE",
"104 0 LINE",
"116 27 LINE"
);
}
);
width = 439;
}
);
unicode = 0062;
},
{
glyphname = c;
lastChange = "2014-08-17 18:02:26 +0000";
layers = (
{
anchors = (
{
name = top;
position = "{212, 384}";
}
);
background = {
paths = (
{
closed = 1;
nodes = (
"427 -9 LINE SMOOTH",
"464 -9 OFFCURVE",
"497 -1 OFFCURVE",
"534 13 CURVE",
"519 58 LINE",
"495 49 OFFCURVE",
"468 45 OFFCURVE",
"446 45 CURVE SMOOTH",
"440 45 OFFCURVE",
"435 45 OFFCURVE",
"428 46 CURVE SMOOTH",
"343 56 OFFCURVE",
"304 102 OFFCURVE",
"304 197 CURVE SMOOTH",
"304 286 OFFCURVE",
"349 335 OFFCURVE",
"440 335 CURVE SMOOTH",
"462 335 OFFCURVE",
"491 332 OFFCURVE",
"519 320 CURVE",
"535 368 LINE",
"500 383 OFFCURVE",
"468 389 OFFCURVE",
"437 389 CURVE SMOOTH",
"370 389 OFFCURVE",
"321 370 OFFCURVE",
"288 333 CURVE",
"258 296 OFFCURVE",
"238 246 OFFCURVE",
"238 185 CURVE SMOOTH",
"238 63 OFFCURVE",
"305 -9 OFFCURVE",
"424 -9 CURVE SMOOTH"
);
}
);
};
layerId = "CFA4B904-E3F1-48B6-A7F6-47DC1FF2A3E1";
name = "Regular Italic";
paths = (
{
closed = 1;
nodes = (
"264 -9 OFFCURVE",
"297 -1 OFFCURVE",
"334 13 CURVE",
"319 58 LINE",
"295 49 OFFCURVE",
"268 45 OFFCURVE",
"246 45 CURVE SMOOTH",
"181 45 OFFCURVE",
"104 70 OFFCURVE",
"104 197 CURVE SMOOTH",
"104 286 OFFCURVE",
"149 335 OFFCURVE",
"240 335 CURVE SMOOTH",
"262 335 OFFCURVE",
"291 332 OFFCURVE",
"319 320 CURVE",
"335 368 LINE",
"300 383 OFFCURVE",
"268 389 OFFCURVE",
"237 389 CURVE SMOOTH",
"170 389 OFFCURVE",
"121 370 OFFCURVE",
"88 333 CURVE",
"58 296 OFFCURVE",
"38 246 OFFCURVE",
"38 185 CURVE SMOOTH",
"38 63 OFFCURVE",
"105 -9 OFFCURVE",
"224 -9 CURVE SMOOTH"
);
}
);
width = 363;
}
);
unicode = 0063;
},
{
glyphname = ccedilla;
lastChange = "2014-08-18 12:38:38 +0000";
layers = (
{
layerId = "CFA4B904-E3F1-48B6-A7F6-47DC1FF2A3E1";
name = "Regular Italic";
paths = (
{
closed = 1;
nodes = (
"205 -158 OFFCURVE",
"181 -155 OFFCURVE",
"148 -145 CURVE",
"136 -142 LINE",
"122 -188 LINE",
"134 -192 LINE",
"165 -201 OFFCURVE",
"189 -207 OFFCURVE",
"218 -207 CURVE SMOOTH",
"276 -207 OFFCURVE",
"306 -178 OFFCURVE",
"306 -136 CURVE SMOOTH",
"306 -82 OFFCURVE",
"267 -64 OFFCURVE",
"232 -53 CURVE SMOOTH",
"218 -49 LINE",
"228 -9 LINE",
"260 -8 OFFCURVE",
"292 0 OFFCURVE",
"328 13 CURVE",
"312 58 LINE",
"288 48 OFFCURVE",
"264 45 OFFCURVE",
"242 45 CURVE SMOOTH",
"237 45 OFFCURVE",
"230 45 OFFCURVE",
"225 46 CURVE",
"140 56 OFFCURVE",
"100 102 OFFCURVE",
"100 197 CURVE SMOOTH",
"100 286 OFFCURVE",
"145 335 OFFCURVE",
"237 335 CURVE SMOOTH",
"259 335 OFFCURVE",
"287 332 OFFCURVE",
"315 320 CURVE",
"332 368 LINE",
"297 383 OFFCURVE",
"264 389 OFFCURVE",
"232 389 CURVE SMOOTH",
"166 389 OFFCURVE",
"117 370 OFFCURVE",
"85 332 CURVE SMOOTH",
"53 295 OFFCURVE",
"38 246 OFFCURVE",
"38 185 CURVE SMOOTH",
"38 78 OFFCURVE",
"87 9 OFFCURVE",
"180 -6 CURVE",
"161 -81 LINE",
"215 -96 LINE",
"232 -100 OFFCURVE",
"256 -109 OFFCURVE",
"256 -131 CURVE SMOOTH",
"256 -153 OFFCURVE",
"238 -160 OFFCURVE",
"215 -159 CURVE"
);
}
);
width = 358;
}
);
unicode = 00E7;
},
{
glyphname = d;
lastChange = "2014-08-17 13:39:37 +0000";
layers = (
{
layerId = "CFA4B904-E3F1-48B6-A7F6-47DC1FF2A3E1";
name = "Regular Italic";
paths = (
{
closed = 1;
nodes = (
"145 47 OFFCURVE",
"105 107 OFFCURVE",
"105 192 CURVE SMOOTH",
"105 278 OFFCURVE",
"145 339 OFFCURVE",
"230 339 CURVE SMOOTH",
"260 339 OFFCURVE",
"288 335 OFFCURVE",
"315 324 CURVE",
"315 70 LINE",
"289 56 OFFCURVE",
"268 47 OFFCURVE",
"229 47 CURVE SMOOTH"
);
},
{
closed = 1;
nodes = (
"253 -8 OFFCURVE",
"290 5 OFFCURVE",
"324 27 CURVE",
"335 0 LINE",
"383 0 LINE",
"383 532 LINE",
"315 532 LINE",
"315 374 LINE",
"286 388 OFFCURVE",
"256 392 OFFCURVE",
"225 392 CURVE SMOOTH",
"171 392 OFFCURVE",
"128 375 OFFCURVE",
"93 341 CURVE SMOOTH",
"57 305 OFFCURVE",
"38 253 OFFCURVE",
"38 188 CURVE SMOOTH",
"38 73 OFFCURVE",
"98 -8 OFFCURVE",
"216 -8 CURVE SMOOTH"
);
}
);
width = 439;
}
);
unicode = 0064;
},
{
glyphname = eth;
lastChange = "2014-08-18 12:53:14 +0000";
layers = (
{
layerId = "CFA4B904-E3F1-48B6-A7F6-47DC1FF2A3E1";
name = "Regular Italic";
paths = (
{
closed = 1;
nodes = (
"375 523 LINE",
"321 486 LINE",
"372 431 OFFCURVE",
"406 353 OFFCURVE",
"406 246 CURVE SMOOTH",
"406 105 OFFCURVE",
"352 -8 OFFCURVE",
"220 -8 CURVE SMOOTH",
"105 -8 OFFCURVE",
"36 79 OFFCURVE",
"36 177 CURVE SMOOTH",
"36 284 OFFCURVE",
"105 366 OFFCURVE",
"210 366 CURVE SMOOTH",
"248 366 OFFCURVE",
"289 353 OFFCURVE",
"332 332 CURVE",
"323 380 OFFCURVE",
"304 420 OFFCURVE",
"271 452 CURVE",
"199 403 LINE",
"177 439 LINE",
"237 480 LINE",
"216 493 OFFCURVE",
"193 505 OFFCURVE",
"165 515 CURVE",
"189 566 LINE",
"224 555 OFFCURVE",
"258 538 OFFCURVE",
"288 515 CURVE",
"354 560 LINE"
);
},
{
closed = 1;
nodes = (
"340 257 OFFCURVE",
"340 267 OFFCURVE",
"339 276 CURVE",
"296 300 OFFCURVE",
"259 313 OFFCURVE",
"228 313 CURVE SMOOTH",
"142 313 OFFCURVE",
"102 252 OFFCURVE",
"102 180 CURVE SMOOTH",
"102 109 OFFCURVE",
"146 45 OFFCURVE",
"224 45 CURVE SMOOTH",
"268 45 OFFCURVE",
"293 66 OFFCURVE",
"314 103 CURVE SMOOTH",
"330 131 OFFCURVE",
"340 180 OFFCURVE",
"340 247 CURVE SMOOTH"
);
}
);
width = 444;
}
);
unicode = 00F0;
},
{
glyphname = dcaron;
layers = (
{
layerId = "CFA4B904-E3F1-48B6-A7F6-47DC1FF2A3E1";
name = "Regular Italic";
paths = (
{
closed = 1;
nodes = (
"145 47 OFFCURVE",
"105 107 OFFCURVE",
"105 192 CURVE SMOOTH",
"105 278 OFFCURVE",
"145 339 OFFCURVE",
"230 339 CURVE SMOOTH",
"260 339 OFFCURVE",
"288 335 OFFCURVE",
"315 324 CURVE",
"315 70 LINE",
"289 56 OFFCURVE",
"268 47 OFFCURVE",
"229 47 CURVE SMOOTH"
);
},
{
closed = 1;
nodes = (
"253 -8 OFFCURVE",
"290 5 OFFCURVE",
"324 27 CURVE",
"335 0 LINE",
"383 0 LINE",
"383 532 LINE",
"315 532 LINE",
"315 374 LINE",
"286 388 OFFCURVE",
"256 392 OFFCURVE",
"225 392 CURVE SMOOTH",
"171 392 OFFCURVE",
"128 375 OFFCURVE",
"93 341 CURVE SMOOTH",
"57 305 OFFCURVE",
"38 253 OFFCURVE",
"38 188 CURVE SMOOTH",
"38 73 OFFCURVE",
"98 -8 OFFCURVE",
"216 -8 CURVE SMOOTH"
);
},
{
closed = 1;
nodes = (
"420 435 LINE",
"466 435 LINE",
"503 586 LINE",
"443 586 LINE"
);
}
);
width = 496;
}
);
unicode = 010F;
},
{
glyphname = dcroat;
lastChange = "2014-08-18 12:24:07 +0000";
layers = (
{
layerId = "CFA4B904-E3F1-48B6-A7F6-47DC1FF2A3E1";
name = "Regular Italic";
paths = (
{
closed = 1;
nodes = (
"253 -8 OFFCURVE",
"290 5 OFFCURVE",
"324 27 CURVE",
"335 0 LINE",
"383 0 LINE",
"383 439 LINE",
"439 439 LINE",
"439 485 LINE",
"383 485 LINE",
"383 532 LINE",
"315 532 LINE",
"315 485 LINE",
"212 485 LINE",
"212 439 LINE",
"315 439 LINE",
"315 374 LINE",
"286 388 OFFCURVE",
"256 392 OFFCURVE",
"225 392 CURVE SMOOTH",
"171 392 OFFCURVE",
"128 375 OFFCURVE",
"93 341 CURVE SMOOTH",
"57 305 OFFCURVE",
"38 253 OFFCURVE",
"38 188 CURVE SMOOTH",
"38 73 OFFCURVE",
"98 -8 OFFCURVE",
"216 -8 CURVE SMOOTH"
);
},
{
closed = 1;
nodes = (
"145 47 OFFCURVE",
"105 107 OFFCURVE",
"105 192 CURVE SMOOTH",
"105 278 OFFCURVE",
"145 339 OFFCURVE",
"230 339 CURVE SMOOTH",
"260 339 OFFCURVE",
"288 335 OFFCURVE",
"315 324 CURVE",
"315 70 LINE",
"289 56 OFFCURVE",
"268 47 OFFCURVE",
"229 47 CURVE SMOOTH"
);
}
);
width = 446;
}
);
unicode = 0111;
},
{
glyphname = e;
lastChange = "2014-08-17 17:53:01 +0000";
layers = (
{
anchors = (
{
name = top;
position = "{210, 384}";
}
);
layerId = "CFA4B904-E3F1-48B6-A7F6-47DC1FF2A3E1";
name = "Regular Italic";
paths = (
{
closed = 1;
nodes = (
"155 389 OFFCURVE",
"112 370 OFFCURVE",
"81 330 CURVE SMOOTH",
"51 290 OFFCURVE",
"38 242 OFFCURVE",
"38 185 CURVE SMOOTH",
"38 62 OFFCURVE",
"105 -8 OFFCURVE",
"229 -8 CURVE SMOOTH",
"272 -8 OFFCURVE",
"314 0 OFFCURVE",
"352 13 CURVE",
"340 61 LINE",
"308 50 OFFCURVE",
"276 46 OFFCURVE",
"247 46 CURVE SMOOTH",
"199 46 OFFCURVE",
"161 58 OFFCURVE",
"138 81 CURVE",
"117 105 OFFCURVE",
"101 137 OFFCURVE",
"101 172 CURVE",
"364 172 LINE",
"368 180 LINE",
"368 215 LINE SMOOTH",
"368 325 OFFCURVE",
"312 389 OFFCURVE",
"210 389 CURVE SMOOTH"
);
},
{
closed = 1;
nodes = (
"102 224 LINE",
"109 284 OFFCURVE",
"142 338 OFFCURVE",
"217 338 CURVE SMOOTH",
"276 338 OFFCURVE",
"302 286 OFFCURVE",
"302 224 CURVE"
);
}
);
width = 404;
}
);
unicode = 0065;
},
{
glyphname = eogonek;
lastChange = "2014-10-03 07:35:17 +0000";
layers = (
{
background = {
paths = (
{
closed = 1;
nodes = (
"355 389 OFFCURVE",
"312 370 OFFCURVE",
"281 330 CURVE SMOOTH",
"251 290 OFFCURVE",
"238 242 OFFCURVE",
"238 185 CURVE SMOOTH",
"238 62 OFFCURVE",
"305 -8 OFFCURVE",
"429 -8 CURVE SMOOTH",
"472 -8 OFFCURVE",
"514 0 OFFCURVE",
"552 13 CURVE",
"540 61 LINE",
"508 50 OFFCURVE",
"476 46 OFFCURVE",
"447 46 CURVE SMOOTH",
"399 46 OFFCURVE",
"361 58 OFFCURVE",
"338 81 CURVE",
"317 105 OFFCURVE",
"301 137 OFFCURVE",
"301 172 CURVE",
"564 172 LINE",
"568 180 LINE",
"568 215 LINE SMOOTH",
"568 325 OFFCURVE",
"512 389 OFFCURVE",
"410 389 CURVE SMOOTH"
);
},
{
closed = 1;
nodes = (
"302 224 LINE",
"309 284 OFFCURVE",
"342 338 OFFCURVE",
"417 338 CURVE SMOOTH",
"476 338 OFFCURVE",
"502 286 OFFCURVE",
"502 224 CURVE"
);
}
);
};
layerId = "CFA4B904-E3F1-48B6-A7F6-47DC1FF2A3E1";
name = "Regular Italic";
paths = (
{
closed = 1;
nodes = (
"186 -47 OFFCURVE",
"159 -92 OFFCURVE",
"159 -135 CURVE SMOOTH",
"159 -176 OFFCURVE",
"185 -211 OFFCURVE",
"244 -211 CURVE SMOOTH",
"279 -211 OFFCURVE",
"304 -200 OFFCURVE",
"341 -175 CURVE",
"324 -142 LINE",
"308 -153 OFFCURVE",
"280 -164 OFFCURVE",
"260 -164 CURVE SMOOTH",
"232 -164 OFFCURVE",
"218 -149 OFFCURVE",
"218 -120 CURVE SMOOTH",
"218 -91 OFFCURVE",
"238 -59 OFFCURVE",
"277 -26 CURVE SMOOTH",
"296 -10 OFFCURVE",
"325 5 OFFCURVE",
"352 13 CURVE",
"340 61 LINE",
"308 50 OFFCURVE",
"276 46 OFFCURVE",
"247 46 CURVE SMOOTH",
"199 46 OFFCURVE",
"161 58 OFFCURVE",
"138 81 CURVE",
"117 105 OFFCURVE",
"101 137 OFFCURVE",
"101 172 CURVE",
"364 172 LINE",
"368 180 LINE",
"368 215 LINE SMOOTH",
"368 325 OFFCURVE",
"312 389 OFFCURVE",
"210 389 CURVE SMOOTH",
"155 389 OFFCURVE",
"112 370 OFFCURVE",
"81 330 CURVE SMOOTH",
"51 290 OFFCURVE",
"38 242 OFFCURVE",
"38 185 CURVE SMOOTH",
"38 16 OFFCURVE",
"159 -8 OFFCURVE",
"233 -8 CURVE"
);
},
{
closed = 1;
nodes = (
"102 224 LINE",
"109 284 OFFCURVE",
"142 338 OFFCURVE",
"217 338 CURVE SMOOTH",
"276 338 OFFCURVE",
"302 286 OFFCURVE",
"302 224 CURVE"
);
}
);
width = 404;
}
);
unicode = 0119;
},
{
glyphname = f;
lastChange = "2014-08-17 13:42:13 +0000";
layers = (
{
layerId = "CFA4B904-E3F1-48B6-A7F6-47DC1FF2A3E1";
name = "Regular Italic";
paths = (
{
closed = 1;
nodes = (
"248 503 OFFCURVE",
"268 498 OFFCURVE",
"293 491 CURVE",
"304 539 LINE",
"276 547 OFFCURVE",
"244 554 OFFCURVE",
"211 554 CURVE SMOOTH",
"157 554 OFFCURVE",
"118 534 OFFCURVE",
"96 495 CURVE SMOOTH",
"87 479 OFFCURVE",
"83 455 OFFCURVE",
"83 423 CURVE SMOOTH",
"83 384 LINE",
"28 384 LINE",
"28 333 LINE",
"85 333 LINE",
"85 0 LINE",
"150 0 LINE",
"150 333 LINE",
"276 333 LINE",
"276 384 LINE",
"149 384 LINE",
"149 419 LINE SMOOTH",
"149 429 OFFCURVE",
"150 440 OFFCURVE",
"151 446 CURVE SMOOTH",
"156 478 OFFCURVE",
"186 503 OFFCURVE",
"231 503 CURVE SMOOTH"
);
}
);
width = 288;
}
);
unicode = 0066;
},
{
glyphname = g;
lastChange = "2014-08-17 18:12:49 +0000";
layers = (
{
anchors = (
{
name = top;
position = "{218, 384}";
}
);
layerId = "CFA4B904-E3F1-48B6-A7F6-47DC1FF2A3E1";
name = "Regular Italic";
paths = (
{
closed = 1;
nodes = (
"315 8 LINE SMOOTH",
"315 -18 OFFCURVE",
"315 -37 OFFCURVE",
"314 -48 CURVE SMOOTH",
"306 -118 OFFCURVE",
"261 -159 OFFCURVE",
"180 -159 CURVE SMOOTH",
"153 -159 OFFCURVE",
"123 -151 OFFCURVE",
"89 -139 CURVE",
"72 -185 LINE",
"104 -200 OFFCURVE",
"152 -210 OFFCURVE",
"189 -210 CURVE SMOOTH",
"248 -210 OFFCURVE",
"297 -192 OFFCURVE",
"328 -162 CURVE SMOOTH",
"367 -126 OFFCURVE",
"381 -89 OFFCURVE",
"381 -18 CURVE SMOOTH",
"381 384 LINE",
"334 384 LINE",
"327 360 LINE",
"308 369 LINE SMOOTH",
"276 384 OFFCURVE",
"246 389 OFFCURVE",
"218 389 CURVE SMOOTH",
"196 389 OFFCURVE",
"174 387 OFFCURVE",
"153 377 CURVE",
"83 348 OFFCURVE",
"38 282 OFFCURVE",
"38 185 CURVE SMOOTH",
"38 135 OFFCURVE",
"50 97 OFFCURVE",
"73 63 CURVE SMOOTH",
"102 21 OFFCURVE",
"148 -8 OFFCURVE",
"214 -8 CURVE SMOOTH",
"252 -8 OFFCURVE",
"282 1 OFFCURVE",
"315 18 CURVE"
);
},
{
closed = 1;
nodes = (
"208 45 OFFCURVE",
"189 49 OFFCURVE",
"171 59 CURVE SMOOTH",
"129 81 OFFCURVE",
"104 132 OFFCURVE",
"104 194 CURVE SMOOTH",
"104 277 OFFCURVE",
"143 337 OFFCURVE",
"226 337 CURVE SMOOTH",
"252 337 OFFCURVE",
"281 332 OFFCURVE",
"315 317 CURVE",
"315 66 LINE",
"291 52 OFFCURVE",
"262 45 OFFCURVE",
"229 45 CURVE SMOOTH"
);
}
);
width = 439;
}
);
unicode = 0067;
},
{
glyphname = gcommaaccent;
lastChange = "2014-10-28 06:09:33 +0000";
layers = (
{
components = (
{
name = g;
transform = "{1, 0, 0, 1, 0, 0}";
}
);
layerId = "CFA4B904-E3F1-48B6-A7F6-47DC1FF2A3E1";
name = "Regular Italic";
paths = (
{
closed = 1;
nodes = (
"191 435 LINE",
"237 435 LINE",
"274 586 LINE",
"214 586 LINE"
);
}
);
width = 439;
}
);
unicode = 0123;
},
{
glyphname = h;
lastChange = "2014-08-17 13:43:48 +0000";
layers = (
{
layerId = "CFA4B904-E3F1-48B6-A7F6-47DC1FF2A3E1";
name = "Regular Italic";
paths = (
{
closed = 1;
nodes = (
"313 0 LINE",
"379 0 LINE",
"379 261 LINE SMOOTH",
"379 343 OFFCURVE",
"333 394 OFFCURVE",
"253 394 CURVE SMOOTH",
"214 394 OFFCURVE",
"171 383 OFFCURVE",
"125 359 CURVE",
"125 532 LINE",
"60 532 LINE",
"60 0 LINE",
"125 0 LINE",
"125 311 LINE",
"165 330 OFFCURVE",
"199 339 OFFCURVE",
"228 339 CURVE SMOOTH",
"292 339 OFFCURVE",
"313 310 OFFCURVE",
"313 246 CURVE SMOOTH"
);
}
);
width = 430;
}
);
unicode = 0068;
},
{
glyphname = i;
lastChange = "2014-08-19 10:40:01 +0000";
layers = (
{
background = {
paths = (
{
closed = 1;
nodes = (
"258 466 LINE",
"323 466 LINE",
"323 532 LINE",
"258 532 LINE"
);
}
);
};
layerId = "CFA4B904-E3F1-48B6-A7F6-47DC1FF2A3E1";
name = "Regular Italic";
paths = (
{
closed = 1;
nodes = (
"58 0 LINE",
"123 0 LINE",
"123 384 LINE",
"58 384 LINE"
);
},
{
closed = 1;
nodes = (
"115 458 OFFCURVE",
"132 478 OFFCURVE",
"132 500 CURVE SMOOTH",
"132 521 OFFCURVE",
"115 541 OFFCURVE",
"91 541 CURVE SMOOTH",
"66 541 OFFCURVE",
"49 521 OFFCURVE",
"49 500 CURVE SMOOTH",
"49 478 OFFCURVE",
"66 458 OFFCURVE",
"91 458 CURVE SMOOTH"
);
}
);
width = 181;
}
);
unicode = 0069;
},
{
glyphname = dotlessi;
lastChange = "2014-08-17 18:09:16 +0000";
layers = (
{
anchors = (
{
name = top;
position = "{91, 384}";
}
);
layerId = "CFA4B904-E3F1-48B6-A7F6-47DC1FF2A3E1";
name = "Regular Italic";
paths = (
{
closed = 1;
nodes = (
"58 0 LINE",
"123 0 LINE",
"123 384 LINE",
"58 384 LINE"
);
}
);
width = 181;
}
);
unicode = 0131;
},
{
glyphname = ij;
lastChange = "2014-08-19 08:30:03 +0000";
layers = (
{
layerId = "CFA4B904-E3F1-48B6-A7F6-47DC1FF2A3E1";
name = "Regular Italic";
paths = (
{
closed = 1;
nodes = (
"58 0 LINE",
"123 0 LINE",
"123 384 LINE",
"58 384 LINE"
);
},
{
closed = 1;
nodes = (
"58 466 LINE",
"123 466 LINE",
"123 532 LINE",
"58 532 LINE"
);
},
{
closed = 1;
nodes = (
"211 -108 OFFCURVE",
"190 -141 OFFCURVE",
"148 -161 CURVE",
"172 -208 LINE",
"208 -197 OFFCURVE",
"241 -176 OFFCURVE",
"257 -143 CURVE SMOOTH",
"271 -113 OFFCURVE",
"274 -105 OFFCURVE",
"274 -50 CURVE SMOOTH",
"274 384 LINE",
"211 384 LINE",
"211 -53 LINE",
"211 -62 LINE SMOOTH"
);
},
{
closed = 1;
nodes = (
"211 466 LINE",
"274 466 LINE",
"274 532 LINE",
"211 532 LINE"
);
}
);
width = 332;
}
);
unicode = 0133;
},
{
glyphname = iogonek;
lastChange = "2014-08-19 08:28:10 +0000";
layers = (
{
layerId = "CFA4B904-E3F1-48B6-A7F6-47DC1FF2A3E1";
name = "Regular Italic";
paths = (
{
closed = 1;
nodes = (
"64 478 LINE",
"139 478 LINE",
"139 550 LINE",
"64 550 LINE"
);
},
{
closed = 1;
nodes = (
"43 -10 LINE",
"-19 -48 OFFCURVE",
"-38 -93 OFFCURVE",
"-38 -131 CURVE SMOOTH",
"-38 -190 OFFCURVE",
"0 -214 OFFCURVE",
"42 -214 CURVE SMOOTH",
"76 -214 OFFCURVE",
"108 -200 OFFCURVE",
"146 -177 CURVE",
"128 -142 LINE",
"102 -157 OFFCURVE",
"81 -164 OFFCURVE",
"63 -164 CURVE SMOOTH",
"39 -164 OFFCURVE",
"21 -151 OFFCURVE",
"21 -117 CURVE SMOOTH",
"21 -99 OFFCURVE",
"28 -77 OFFCURVE",
"66 -46 CURVE",
"79 -37 OFFCURVE",
"98 -24 OFFCURVE",
"133 -7 CURVE",
"133 384 LINE",
"69 384 LINE",
"69 4 LINE"
);
}
);
width = 198;
}
);
unicode = 012F;
},
{
glyphname = dotlessj;
lastChange = "2014-08-18 11:43:19 +0000";
layers = (
{
anchors = (
{
name = top;
position = "{90, 384}";
}
);
layerId = "CFA4B904-E3F1-48B6-A7F6-47DC1FF2A3E1";
name = "Regular Italic";
paths = (
{
closed = 1;
nodes = (
"59 -108 OFFCURVE",
"38 -141 OFFCURVE",
"-4 -161 CURVE",
"20 -208 LINE",
"56 -197 OFFCURVE",
"89 -176 OFFCURVE",
"105 -143 CURVE SMOOTH",
"119 -113 OFFCURVE",
"122 -105 OFFCURVE",
"122 -50 CURVE SMOOTH",
"122 384 LINE",
"59 384 LINE",
"59 -53 LINE",
"59 -62 LINE SMOOTH"
);
}
);
width = 180;
}
);
unicode = 0237;
},
{
glyphname = k;
lastChange = "2014-08-19 08:43:52 +0000";
layers = (
{
anchors = (
{
name = bottom;
position = "{210, 0}";
}
);
layerId = "CFA4B904-E3F1-48B6-A7F6-47DC1FF2A3E1";
name = "Regular Italic";
paths = (
{
closed = 1;
nodes = (
"60 0 LINE",
"125 0 LINE",
"125 532 LINE",
"60 532 LINE"
);
},
{
closed = 1;
nodes = (
"132 212 LINE",
"305 0 LINE",
"385 0 LINE",
"209 212 LINE",
"376 384 LINE",
"300 384 LINE"
);
}
);
width = 400;
}
);
unicode = 006B;
},
{
glyphname = l;
lastChange = "2014-08-18 12:20:25 +0000";
layers = (
{
anchors = (
{
name = bottom;
position = "{138, 0}";
},
{
name = top;
position = "{168, 533}";
}
);
layerId = "CFA4B904-E3F1-48B6-A7F6-47DC1FF2A3E1";
name = "Regular Italic";
paths = (
{
closed = 1;
nodes = (
"121 51 OFFCURVE",
"119 78 OFFCURVE",
"119 106 CURVE SMOOTH",
"119 533 LINE",
"56 533 LINE",
"56 83 LINE SMOOTH",
"57 29 OFFCURVE",
"88 -9 OFFCURVE",
"138 -9 CURVE SMOOTH",
"176 -9 OFFCURVE",
"201 4 OFFCURVE",
"216 10 CURVE",
"204 57 LINE",
"191 53 OFFCURVE",
"181 51 OFFCURVE",
"170 51 CURVE SMOOTH"
);
}
);
width = 220;
}
);
unicode = 006C;
},
{
glyphname = lcaron;
layers = (
{
layerId = "CFA4B904-E3F1-48B6-A7F6-47DC1FF2A3E1";
name = "Regular Italic";
paths = (
{
closed = 1;
nodes = (
"121 51 OFFCURVE",
"119 78 OFFCURVE",
"119 106 CURVE SMOOTH",
"119 533 LINE",
"56 533 LINE",
"56 83 LINE SMOOTH",
"57 29 OFFCURVE",
"88 -9 OFFCURVE",
"138 -9 CURVE SMOOTH",
"176 -9 OFFCURVE",
"201 7 OFFCURVE",
"216 10 CURVE",
"204 57 LINE",
"191 53 OFFCURVE",
"181 51 OFFCURVE",
"170 51 CURVE SMOOTH"
);
},
{
closed = 1;
nodes = (
"162 435 LINE",
"208 435 LINE",
"245 586 LINE",
"185 586 LINE"
);
}
);
width = 245;
}
);
unicode = 013E;
},
{
glyphname = lslash;
lastChange = "2014-08-19 08:53:30 +0000";
layers = (
{
layerId = "CFA4B904-E3F1-48B6-A7F6-47DC1FF2A3E1";
name = "Regular Italic";
paths = (
{
closed = 1;
nodes = (
"141 51 OFFCURVE",
"140 78 OFFCURVE",
"140 106 CURVE SMOOTH",
"140 265 LINE",
"232 318 LINE",
"232 376 LINE",
"140 324 LINE",
"140 533 LINE",
"77 533 LINE",
"77 287 LINE",
"16 252 LINE",
"16 194 LINE",
"77 228 LINE",
"77 83 LINE SMOOTH",
"78 29 OFFCURVE",
"109 -9 OFFCURVE",
"159 -9 CURVE SMOOTH",
"197 -9 OFFCURVE",
"222 3 OFFCURVE",
"237 10 CURVE",
"237 61 LINE",
"218 55 OFFCURVE",
"206 51 OFFCURVE",
"190 51 CURVE SMOOTH"
);
}
);
width = 244;
}
);
unicode = 0142;
},
{
glyphname = m;
lastChange = "2014-08-17 13:50:27 +0000";
layers = (
{
layerId = "CFA4B904-E3F1-48B6-A7F6-47DC1FF2A3E1";
name = "Regular Italic";
paths = (
{
closed = 1;
nodes = (
"515 0 LINE",
"582 0 LINE",
"582 260 LINE SMOOTH",
"582 336 OFFCURVE",
"541 390 OFFCURVE",
"460 390 CURVE SMOOTH",
"408 390 OFFCURVE",
"370 369 OFFCURVE",
"331 341 CURVE",
"311 370 OFFCURVE",
"276 390 OFFCURVE",
"231 390 CURVE SMOOTH",
"215 390 OFFCURVE",
"197 389 OFFCURVE",
"178 384 CURVE SMOOTH",
"161 379 OFFCURVE",
"141 370 OFFCURVE",
"115 352 CURVE",
"101 384 LINE",
"56 384 LINE",
"56 0 LINE",
"121 0 LINE",
"121 309 LINE",
"156 328 OFFCURVE",
"186 338 OFFCURVE",
"210 338 CURVE SMOOTH",
"264 338 OFFCURVE",
"286 302 OFFCURVE",
"286 244 CURVE SMOOTH",
"286 0 LINE",
"351 0 LINE",
"351 260 LINE SMOOTH",
"351 278 OFFCURVE",
"351 293 OFFCURVE",
"348 304 CURVE",
"385 327 OFFCURVE",
"413 338 OFFCURVE",
"440 338 CURVE SMOOTH",
"494 338 OFFCURVE",
"515 302 OFFCURVE",
"515 244 CURVE SMOOTH"
);
}
);
width = 634;
}
);
unicode = 006D;
},
{
glyphname = n;
lastChange = "2014-08-19 08:40:32 +0000";
layers = (
{
anchors = (
{
name = bottom;
position = "{214, 0}";
},
{
name = top;
position = "{217, 384}";
}
);
layerId = "CFA4B904-E3F1-48B6-A7F6-47DC1FF2A3E1";
name = "Regular Italic";
paths = (
{
closed = 1;
nodes = (
"310 0 LINE",
"375 0 LINE",
"375 260 LINE SMOOTH",
"375 340 OFFCURVE",
"333 390 OFFCURVE",
"250 390 CURVE SMOOTH",
"209 390 OFFCURVE",
"162 378 OFFCURVE",
"115 352 CURVE",
"101 384 LINE",
"56 384 LINE",
"56 0 LINE",
"121 0 LINE",
"121 308 LINE",
"161 327 OFFCURVE",
"197 335 OFFCURVE",
"227 335 CURVE SMOOTH",
"289 335 OFFCURVE",
"310 308 OFFCURVE",
"310 244 CURVE SMOOTH"
);
}
);
width = 427;
}
);
unicode = 006E;
},
{
glyphname = o;
lastChange = "2014-08-17 17:55:06 +0000";
layers = (
{
anchors = (
{
name = top;
position = "{225, 384}";
}
);
layerId = "CFA4B904-E3F1-48B6-A7F6-47DC1FF2A3E1";
name = "Regular Italic";
paths = (
{
closed = 1;
nodes = (
"301 338 OFFCURVE",
"343 272 OFFCURVE",
"343 190 CURVE SMOOTH",
"343 109 OFFCURVE",
"302 44 OFFCURVE",
"225 44 CURVE SMOOTH",
"146 44 OFFCURVE",
"105 109 OFFCURVE",
"105 190 CURVE SMOOTH",
"105 272 OFFCURVE",
"147 338 OFFCURVE",
"225 338 CURVE SMOOTH"
);
},
{
closed = 1;
nodes = (
"339 -9 OFFCURVE",
"409 72 OFFCURVE",
"409 191 CURVE SMOOTH",
"409 312 OFFCURVE",
"344 389 OFFCURVE",
"225 389 CURVE SMOOTH",
"107 389 OFFCURVE",
"38 311 OFFCURVE",
"38 190 CURVE SMOOTH",
"38 71 OFFCURVE",
"105 -9 OFFCURVE",
"222 -9 CURVE SMOOTH"
);
}
);
width = 447;
}
);
unicode = 006F;
},
{
glyphname = oslash;
layers = (
{
layerId = "CFA4B904-E3F1-48B6-A7F6-47DC1FF2A3E1";
name = "Regular Italic";
paths = (
{
closed = 1;
nodes = (
"344 -9 OFFCURVE",
"412 72 OFFCURVE",
"412 191 CURVE SMOOTH",
"412 238 OFFCURVE",
"403 279 OFFCURVE",
"384 311 CURVE",
"427 355 LINE",
"390 393 LINE",
"349 351 LINE",
"318 375 OFFCURVE",
"279 389 OFFCURVE",
"228 389 CURVE SMOOTH",
"111 389 OFFCURVE",
"44 311 OFFCURVE",
"44 190 CURVE SMOOTH",
"44 142 OFFCURVE",
"53 101 OFFCURVE",
"74 68 CURVE",
"29 22 LINE",
"66 -12 LINE",
"108 29 LINE",
"138 7 OFFCURVE",
"178 -9 OFFCURVE",
"226 -9 CURVE SMOOTH"
);
},
{
closed = 1;
nodes = (
"260 338 OFFCURVE",
"287 327 OFFCURVE",
"307 307 CURVE",
"122 117 LINE",
"113 139 OFFCURVE",
"109 164 OFFCURVE",
"109 190 CURVE SMOOTH",
"109 272 OFFCURVE",
"151 338 OFFCURVE",
"228 338 CURVE SMOOTH"
);
},
{
closed = 1;
nodes = (
"347 109 OFFCURVE",
"307 44 OFFCURVE",
"228 44 CURVE SMOOTH",
"196 44 OFFCURVE",
"170 55 OFFCURVE",
"151 73 CURVE",
"334 260 LINE",
"343 240 OFFCURVE",
"347 217 OFFCURVE",
"347 190 CURVE SMOOTH"
);
}
);
width = 456;
}
);
unicode = 00F8;
},
{
glyphname = oe;
lastChange = "2014-08-18 12:36:57 +0000";
layers = (
{
layerId = "CFA4B904-E3F1-48B6-A7F6-47DC1FF2A3E1";
name = "Regular Italic";
paths = (
{
closed = 1;
nodes = (
"284 334 OFFCURVE",
"326 268 OFFCURVE",
"326 187 CURVE SMOOTH",
"326 140 OFFCURVE",
"315 105 OFFCURVE",
"294 81 CURVE SMOOTH",
"275 60 OFFCURVE",
"253 46 OFFCURVE",
"212 46 CURVE SMOOTH",
"192 46 OFFCURVE",
"175 52 OFFCURVE",
"157 66 CURVE",
"122 91 OFFCURVE",
"101 137 OFFCURVE",
"101 195 CURVE SMOOTH",
"101 267 OFFCURVE",
"140 334 OFFCURVE",
"208 334 CURVE SMOOTH"
);
},
{
closed = 1;
nodes = (
"576 206 LINE",
"387 206 LINE",
"388 239 OFFCURVE",
"395 268 OFFCURVE",
"412 294 CURVE SMOOTH",
"428 319 OFFCURVE",
"454 332 OFFCURVE",
"484 332 CURVE SMOOTH",
"552 332 OFFCURVE",
"576 287 OFFCURVE",
"576 214 CURVE SMOOTH"
);
},
{
closed = 1;
nodes = (
"38 77 OFFCURVE",
"101 -10 OFFCURVE",
"211 -10 CURVE SMOOTH",
"272 -10 OFFCURVE",
"319 14 OFFCURVE",
"351 62 CURVE",
"381 13 OFFCURVE",
"430 -10 OFFCURVE",
"498 -10 CURVE SMOOTH",
"538 -10 OFFCURVE",
"577 -2 OFFCURVE",
"615 12 CURVE",
"604 56 LINE",
"574 46 OFFCURVE",
"547 42 OFFCURVE",
"523 42 CURVE SMOOTH",
"486 42 OFFCURVE",
"457 49 OFFCURVE",
"434 67 CURVE SMOOTH",
"403 91 OFFCURVE",
"386 121 OFFCURVE",
"385 158 CURVE",
"637 158 LINE",
"637 196 LINE SMOOTH",
"637 226 OFFCURVE",
"636 248 OFFCURVE",
"634 262 CURVE SMOOTH",
"622 339 OFFCURVE",
"575 388 OFFCURVE",
"500 388 CURVE SMOOTH",
"439 388 OFFCURVE",
"387 363 OFFCURVE",
"354 312 CURVE",
"326 354 OFFCURVE",
"284 388 OFFCURVE",
"218 388 CURVE SMOOTH",
"105 388 OFFCURVE",
"38 305 OFFCURVE",
"38 189 CURVE SMOOTH"
);
}
);
width = 674;
}
);
unicode = 0153;
},
{
glyphname = p;
lastChange = "2014-08-17 14:17:05 +0000";
layers = (
{
layerId = "CFA4B904-E3F1-48B6-A7F6-47DC1FF2A3E1";
name = "Regular Italic";
paths = (
{
closed = 1;
nodes = (
"293 335 OFFCURVE",
"334 276 OFFCURVE",
"334 189 CURVE SMOOTH",
"334 105 OFFCURVE",
"291 42 OFFCURVE",
"208 42 CURVE SMOOTH",
"180 42 OFFCURVE",
"151 47 OFFCURVE",
"123 60 CURVE",
"123 312 LINE",
"150 328 OFFCURVE",
"171 335 OFFCURVE",
"209 335 CURVE SMOOTH"
);
},
{
closed = 1;
nodes = (
"123 9 LINE",
"153 -4 OFFCURVE",
"185 -10 OFFCURVE",
"216 -10 CURVE SMOOTH",
"268 -10 OFFCURVE",
"312 9 OFFCURVE",
"347 42 CURVE SMOOTH",
"384 78 OFFCURVE",
"403 129 OFFCURVE",
"403 196 CURVE SMOOTH",
"403 275 OFFCURVE",
"374 331 OFFCURVE",
"320 365 CURVE SMOOTH",
"294 381 OFFCURVE",
"261 389 OFFCURVE",
"225 389 CURVE SMOOTH",
"186 389 OFFCURVE",
"150 378 OFFCURVE",
"117 355 CURVE",
"104 384 LINE",
"58 384 LINE",
"58 -208 LINE",
"123 -208 LINE"
);
}
);
width = 440;
}
);
unicode = 0070;
},
{
glyphname = thorn;
lastChange = "2014-08-18 12:55:34 +0000";
layers = (
{
layerId = "CFA4B904-E3F1-48B6-A7F6-47DC1FF2A3E1";
name = "Regular Italic";
paths = (
{
closed = 1;
nodes = (
"246 -10 OFFCURVE",
"269 -4 OFFCURVE",
"291 7 CURVE",
"356 34 OFFCURVE",
"401 108 OFFCURVE",
"401 195 CURVE SMOOTH",
"401 250 OFFCURVE",
"387 296 OFFCURVE",
"357 330 CURVE SMOOTH",
"329 364 OFFCURVE",
"284 388 OFFCURVE",
"226 388 CURVE SMOOTH",
"177 388 OFFCURVE",
"142 373 OFFCURVE",
"116 344 CURVE",
"116 550 LINE",
"51 550 LINE",
"51 -206 LINE",
"116 -206 LINE",
"116 32 LINE",
"142 7 OFFCURVE",
"177 -10 OFFCURVE",
"222 -10 CURVE SMOOTH"
);
},
{
closed = 1;
nodes = (
"179 46 OFFCURVE",
"149 62 OFFCURVE",
"129 95 CURVE",
"117 113 OFFCURVE",
"111 145 OFFCURVE",
"111 189 CURVE SMOOTH",
"111 268 OFFCURVE",
"140 334 OFFCURVE",
"217 334 CURVE SMOOTH",
"259 333 OFFCURVE",
"293 312 OFFCURVE",
"319 270 CURVE SMOOTH",
"333 248 OFFCURVE",
"339 218 OFFCURVE",
"339 180 CURVE SMOOTH",
"339 106 OFFCURVE",
"290 46 OFFCURVE",
"217 46 CURVE SMOOTH"
);
}
);
width = 439;
}
);
unicode = 00FE;
},
{
glyphname = q;
lastChange = "2014-08-17 14:17:24 +0000";
layers = (
{
layerId = "CFA4B904-E3F1-48B6-A7F6-47DC1FF2A3E1";
name = "Regular Italic";
paths = (
{
closed = 1;
nodes = (
"316 60 LINE",
"289 47 OFFCURVE",
"260 42 OFFCURVE",
"231 42 CURVE SMOOTH",
"149 42 OFFCURVE",
"105 105 OFFCURVE",
"105 189 CURVE SMOOTH",
"105 276 OFFCURVE",
"147 335 OFFCURVE",
"230 335 CURVE SMOOTH",
"269 335 OFFCURVE",
"290 328 OFFCURVE",
"316 312 CURVE"
);
},
{
closed = 1;
nodes = (
"256 -10 OFFCURVE",
"287 -4 OFFCURVE",
"316 9 CURVE",
"316 -208 LINE",
"384 -208 LINE",
"384 383 LINE",
"335 383 LINE",
"324 355 LINE",
"290 378 OFFCURVE",
"255 389 OFFCURVE",
"217 389 CURVE SMOOTH",
"178 389 OFFCURVE",
"146 381 OFFCURVE",
"119 365 CURVE",
"66 331 OFFCURVE",
"38 275 OFFCURVE",
"38 196 CURVE SMOOTH",
"38 129 OFFCURVE",
"58 78 OFFCURVE",
"93 42 CURVE",
"129 9 OFFCURVE",
"172 -10 OFFCURVE",
"225 -10 CURVE SMOOTH"
);
}
);
width = 440;
}
);
unicode = 0071;
},
{
glyphname = r;
lastChange = "2014-08-19 08:39:52 +0000";
layers = (
{
anchors = (
{
name = bottom;
position = "{84, 0}";
},
{
name = top;
position = "{162, 384}";
}
);
layerId = "CFA4B904-E3F1-48B6-A7F6-47DC1FF2A3E1";
name = "Regular Italic";
paths = (
{
closed = 1;
nodes = (
"185 389 OFFCURVE",
"150 376 OFFCURVE",
"117 351 CURVE",
"103 384 LINE",
"56 384 LINE",
"56 0 LINE",
"121 0 LINE",
"121 304 LINE",
"149 323 OFFCURVE",
"178 332 OFFCURVE",
"204 332 CURVE SMOOTH",
"225 332 OFFCURVE",
"244 328 OFFCURVE",
"261 320 CURVE",
"284 378 LINE",
"267 386 OFFCURVE",
"252 389 OFFCURVE",
"222 389 CURVE SMOOTH"
);
}
);
width = 293;
}
);
unicode = 0072;
},
{
glyphname = s;
lastChange = "2014-08-19 09:17:29 +0000";
layers = (
{
anchors = (
{
name = bottom;
position = "{169, 0}";
},
{
name = top;
position = "{180, 384}";
}
);
background = {
paths = (
{
closed = 1;
nodes = (
"337 46 OFFCURVE",
"299 53 OFFCURVE",
"262 66 CURVE",
"243 17 LINE",
"278 3 OFFCURVE",
"323 -9 OFFCURVE",
"382 -9 CURVE SMOOTH",
"441 -9 OFFCURVE",
"484 9 OFFCURVE",
"510 43 CURVE",
"524 60 OFFCURVE",
"530 81 OFFCURVE",
"530 101 CURVE SMOOTH",
"530 126 OFFCURVE",
"524 145 OFFCURVE",
"508 162 CURVE SMOOTH",
"493 179 OFFCURVE",
"479 191 OFFCURVE",
"428 210 CURVE SMOOTH",
"369 232 LINE SMOOTH",
"352 238 OFFCURVE",
"340 244 OFFCURVE",
"334 248 CURVE SMOOTH",
"321 257 OFFCURVE",
"311 264 OFFCURVE",
"311 287 CURVE SMOOTH",
"311 295 OFFCURVE",
"316 304 OFFCURVE",
"323 312 CURVE",
"345 331 OFFCURVE",
"371 335 OFFCURVE",
"407 335 CURVE SMOOTH",
"444 335 OFFCURVE",
"475 324 OFFCURVE",
"494 316 CURVE",
"509 363 LINE",
"475 377 OFFCURVE",
"449 387 OFFCURVE",
"400 388 CURVE SMOOTH",
"398 388 LINE SMOOTH",
"369 388 OFFCURVE",
"342 383 OFFCURVE",
"317 372 CURVE SMOOTH",
"280 357 OFFCURVE",
"246 331 OFFCURVE",
"246 278 CURVE SMOOTH",
"246 218 OFFCURVE",
"298 199 OFFCURVE",
"328 185 CURVE",
"388 161 LINE SMOOTH",
"407 153 OFFCURVE",
"426 145 OFFCURVE",
"439 136 CURVE SMOOTH",
"455 125 OFFCURVE",
"461 115 OFFCURVE",
"461 99 CURVE SMOOTH",
"461 62 OFFCURVE",
"419 46 OFFCURVE",
"377 46 CURVE SMOOTH"
);
}
);
};
guideLines = (
{
angle = 90;
position = "{380, 276}";
}
);
layerId = "CFA4B904-E3F1-48B6-A7F6-47DC1FF2A3E1";
name = "Regular Italic";
paths = (
{
closed = 1;
nodes = (
"137 46 OFFCURVE",
"91 56 OFFCURVE",
"54 69 CURVE",
"36 20 LINE",
"71 6 OFFCURVE",
"123 -9 OFFCURVE",
"182 -9 CURVE SMOOTH",
"272 -9 OFFCURVE",
"325 40 OFFCURVE",
"325 94 CURVE SMOOTH",
"325 150 OFFCURVE",
"298 178 OFFCURVE",
"226 208 CURVE SMOOTH",
"159 236 OFFCURVE",
"111 246 OFFCURVE",
"111 287 CURVE SMOOTH",
"111 318 OFFCURVE",
"151 335 OFFCURVE",
"207 335 CURVE SMOOTH",
"244 335 OFFCURVE",
"275 324 OFFCURVE",
"294 316 CURVE",
"310 364 LINE",
"279 378 OFFCURVE",
"243 389 OFFCURVE",
"200 389 CURVE SMOOTH",
"123 389 OFFCURVE",
"46 361 OFFCURVE",
"46 283 CURVE",
"46 218 OFFCURVE",
"99 197 OFFCURVE",
"129 183 CURVE",
"226 143 OFFCURVE",
"261 135 OFFCURVE",
"261 99 CURVE SMOOTH",
"261 62 OFFCURVE",
"219 46 OFFCURVE",
"177 46 CURVE SMOOTH"
);
}
);
width = 370;
}
);
unicode = 0073;
},
{
glyphname = germandbls;
lastChange = "2014-08-18 12:45:33 +0000";
layers = (
{
background = {
paths = (
{
closed = 1;
nodes = (
"279 0 LINE",
"342 0 LINE",
"342 396 LINE SMOOTH",
"342 429 OFFCURVE",
"349 455 OFFCURVE",
"365 471 CURVE",
"381 489 OFFCURVE",
"400 497 OFFCURVE",
"425 497 CURVE SMOOTH",
"461 497 OFFCURVE",
"504 465 OFFCURVE",
"504 427 CURVE SMOOTH",
"504 408 OFFCURVE",
"496 394 OFFCURVE",
"482 383 CURVE",
"477 376 OFFCURVE",
"471 372 OFFCURVE",
"464 368 CURVE",
"435 345 OFFCURVE",
"400 324 OFFCURVE",
"400 272 CURVE SMOOTH",
"400 260 OFFCURVE",
"404 248 OFFCURVE",
"407 238 CURVE",
"417 214 OFFCURVE",
"439 195 OFFCURVE",
"475 180 CURVE",
"502 171 LINE",
"539 157 OFFCURVE",
"575 143 OFFCURVE",
"575 100 CURVE SMOOTH",
"575 56 OFFCURVE",
"547 42 OFFCURVE",
"501 42 CURVE SMOOTH",
"479 42 OFFCURVE",
"448 46 OFFCURVE",
"407 53 CURVE",
"396 9 LINE",
"437 -4 OFFCURVE",
"476 -10 OFFCURVE",
"515 -10 CURVE SMOOTH",
"554 -10 OFFCURVE",
"584 -1 OFFCURVE",
"606 18 CURVE SMOOTH",
"624 33 OFFCURVE",
"643 64 OFFCURVE",
"643 101 CURVE SMOOTH",
"643 130 OFFCURVE",
"635 153 OFFCURVE",
"619 171 CURVE",
"599 197 OFFCURVE",
"579 205 OFFCURVE",
"538 219 CURVE SMOOTH",
"511 229 LINE SMOOTH",
"491 237 OFFCURVE",
"477 246 OFFCURVE",
"471 256 CURVE",
"467 261 OFFCURVE",
"464 269 OFFCURVE",
"464 279 CURVE SMOOTH",
"464 302 OFFCURVE",
"492 318 OFFCURVE",
"512 333 CURVE",
"524 341 OFFCURVE",
"535 352 OFFCURVE",
"546 366 CURVE SMOOTH",
"559 383 OFFCURVE",
"566 404 OFFCURVE",
"566 427 CURVE SMOOTH",
"566 450 OFFCURVE",
"558 475 OFFCURVE",
"544 496 CURVE SMOOTH",
"524 528 OFFCURVE",
"487 554 OFFCURVE",
"433 554 CURVE SMOOTH",
"337 554 OFFCURVE",
"278 490 OFFCURVE",
"278 397 CURVE SMOOTH"
);
}
);
};
layerId = "CFA4B904-E3F1-48B6-A7F6-47DC1FF2A3E1";
name = "Regular Italic";
paths = (
{
closed = 1;
nodes = (
"79 0 LINE",
"142 0 LINE",
"142 396 LINE SMOOTH",
"142 429 OFFCURVE",
"149 455 OFFCURVE",
"165 471 CURVE",
"181 489 OFFCURVE",
"200 497 OFFCURVE",
"225 497 CURVE SMOOTH",
"261 497 OFFCURVE",
"302 465 OFFCURVE",
"302 424 CURVE",
"302 396 OFFCURVE",
"281 383 OFFCURVE",
"264 368 CURVE",
"235 345 OFFCURVE",
"200 314 OFFCURVE",
"200 272 CURVE SMOOTH",
"200 216 OFFCURVE",
"246 194 OFFCURVE",
"289 175 CURVE SMOOTH",
"332 156 OFFCURVE",
"375 148 OFFCURVE",
"375 100 CURVE SMOOTH",
"375 56 OFFCURVE",
"347 42 OFFCURVE",
"301 42 CURVE SMOOTH",
"279 42 OFFCURVE",
"248 46 OFFCURVE",
"207 53 CURVE",
"196 9 LINE",
"237 -4 OFFCURVE",
"276 -10 OFFCURVE",
"315 -10 CURVE SMOOTH",
"354 -10 OFFCURVE",
"384 -1 OFFCURVE",
"406 18 CURVE SMOOTH",
"424 33 OFFCURVE",
"443 64 OFFCURVE",
"443 101 CURVE SMOOTH",
"443 156 OFFCURVE",
"408 195 OFFCURVE",
"338 219 CURVE SMOOTH",
"311 229 LINE SMOOTH",
"291 237 OFFCURVE",
"277 246 OFFCURVE",
"271 256 CURVE",
"267 261 OFFCURVE",
"264 269 OFFCURVE",
"264 279 CURVE SMOOTH",
"264 302 OFFCURVE",
"300 324 OFFCURVE",
"328 349 CURVE SMOOTH",
"351 371 OFFCURVE",
"366 396 OFFCURVE",
"366 427 CURVE SMOOTH",
"366 460 OFFCURVE",
"350 493 OFFCURVE",
"325 517 CURVE SMOOTH",
"302 539 OFFCURVE",
"272 554 OFFCURVE",
"233 554 CURVE SMOOTH",
"137 554 OFFCURVE",
"78 490 OFFCURVE",
"78 397 CURVE SMOOTH"
);
}
);
width = 488;
}
);
unicode = 00DF;
},
{
glyphname = t;
lastChange = "2014-08-19 09:06:02 +0000";
layers = (
{
anchors = (
{
name = bottom;
position = "{173, 0}";
}
);
layerId = "CFA4B904-E3F1-48B6-A7F6-47DC1FF2A3E1";
name = "Regular Italic";
paths = (
{
closed = 1;
nodes = (
"215 -8 OFFCURVE",
"250 -2 OFFCURVE",
"279 9 CURVE",
"268 53 LINE",
"250 49 OFFCURVE",
"225 47 OFFCURVE",
"207 47 CURVE SMOOTH",
"157 47 OFFCURVE",
"146 73 OFFCURVE",
"146 123 CURVE SMOOTH",
"146 330 LINE",
"272 330 LINE",
"272 384 LINE",
"146 384 LINE",
"146 483 LINE",
"81 478 LINE",
"81 384 LINE",
"16 384 LINE",
"16 330 LINE",
"81 330 LINE",
"81 119 LINE SMOOTH",
"81 38 OFFCURVE",
"108 -8 OFFCURVE",
"188 -8 CURVE SMOOTH"
);
}
);
width = 297;
}
);
unicode = 0074;
},
{
glyphname = tcaron;
layers = (
{
layerId = "CFA4B904-E3F1-48B6-A7F6-47DC1FF2A3E1";
name = "Regular Italic";
paths = (
{
closed = 1;
nodes = (
"215 -8 OFFCURVE",
"250 -2 OFFCURVE",
"279 9 CURVE",
"268 53 LINE",
"250 49 OFFCURVE",
"225 47 OFFCURVE",
"207 47 CURVE SMOOTH",
"157 47 OFFCURVE",
"146 73 OFFCURVE",
"146 123 CURVE SMOOTH",
"146 330 LINE",
"272 330 LINE",
"272 384 LINE",
"146 384 LINE",
"146 483 LINE",
"81 478 LINE",
"81 384 LINE",
"16 384 LINE",
"16 330 LINE",
"81 330 LINE",
"81 119 LINE SMOOTH",
"81 38 OFFCURVE",
"108 -8 OFFCURVE",
"188 -8 CURVE SMOOTH"
);
},
{
closed = 1;
nodes = (
"194 435 LINE",
"240 435 LINE",
"277 586 LINE",
"217 586 LINE"
);
}
);
width = 297;
}
);
unicode = 0165;
},
{
glyphname = u;
lastChange = "2014-08-17 17:57:01 +0000";
layers = (
{
anchors = (
{
name = top;
position = "{216, 384}";
}
);
layerId = "CFA4B904-E3F1-48B6-A7F6-47DC1FF2A3E1";
name = "Regular Italic";
paths = (
{
closed = 1;
nodes = (
"121 384 LINE",
"56 384 LINE",
"56 121 LINE SMOOTH",
"56 41 OFFCURVE",
"99 -10 OFFCURVE",
"181 -10 CURVE SMOOTH",
"222 -10 OFFCURVE",
"268 3 OFFCURVE",
"316 28 CURVE",
"330 0 LINE",
"375 0 LINE",
"375 384 LINE",
"310 384 LINE",
"310 73 LINE",
"271 55 OFFCURVE",
"236 46 OFFCURVE",
"205 46 CURVE SMOOTH",
"142 46 OFFCURVE",
"121 73 OFFCURVE",
"121 137 CURVE SMOOTH"
);
}
);
width = 430;
}
);
unicode = 0075;
},
{
glyphname = uogonek;
lastChange = "2014-08-19 10:28:47 +0000";
layers = (
{
background = {
components = (
{
name = u;
transform = "{1, 0, 0, 1, 0, 0}";
}
);
};
layerId = "CFA4B904-E3F1-48B6-A7F6-47DC1FF2A3E1";
name = "Regular Italic";
paths = (
{
closed = 1;
nodes = (
"311 384 LINE",
"311 74 LINE",
"272 54 OFFCURVE",
"237 46 OFFCURVE",
"208 46 CURVE SMOOTH",
"137 46 OFFCURVE",
"121 74 OFFCURVE",
"121 146 CURVE SMOOTH",
"121 384 LINE",
"58 384 LINE",
"56 132 LINE SMOOTH",
"55 49 OFFCURVE",
"89 -9 OFFCURVE",
"180 -9 CURVE SMOOTH",
"230 -9 OFFCURVE",
"274 6 OFFCURVE",
"316 29 CURVE",
"328 2 LINE",
"285 -22 LINE",
"224 -60 OFFCURVE",
"189 -97 OFFCURVE",
"189 -147 CURVE SMOOTH",
"189 -194 OFFCURVE",
"226 -217 OFFCURVE",
"268 -217 CURVE SMOOTH",
"301 -217 OFFCURVE",
"334 -205 OFFCURVE",
"372 -180 CURVE",
"354 -145 LINE",
"329 -160 OFFCURVE",
"307 -167 OFFCURVE",
"290 -167 CURVE SMOOTH",
"265 -167 OFFCURVE",
"249 -154 OFFCURVE",
"249 -126 CURVE SMOOTH",
"249 -101 OFFCURVE",
"268 -82 OFFCURVE",
"299 -60 CURVE SMOOTH",
"314 -50 OFFCURVE",
"337 -37 OFFCURVE",
"374 -18 CURVE",
"374 384 LINE"
);
}
);
width = 430;
}
);
unicode = 0173;
},
{
glyphname = v;
lastChange = "2014-08-17 14:35:28 +0000";
layers = (
{
layerId = "CFA4B904-E3F1-48B6-A7F6-47DC1FF2A3E1";
name = "Regular Italic";
paths = (
{
closed = 1;
nodes = (
"312 384 LINE",
"205 83 LINE",
"202 63 LINE",
"198 83 LINE",
"92 384 LINE",
"22 384 LINE",
"165 0 LINE",
"237 0 LINE",
"379 384 LINE"
);
}
);
width = 401;
}
);
unicode = 0076;
},
{
glyphname = w;
lastChange = "2014-08-17 14:35:52 +0000";
layers = (
{
layerId = "CFA4B904-E3F1-48B6-A7F6-47DC1FF2A3E1";
name = "Regular Italic";
paths = (
{
closed = 1;
nodes = (
"152 0 LINE",
"224 0 LINE",
"321 297 LINE",
"418 0 LINE",
"491 0 LINE",
"623 384 LINE",
"557 384 LINE",
"457 77 LINE",
"455 62 LINE",
"452 77 LINE",
"356 384 LINE",
"293 384 LINE",
"192 77 LINE",
"190 62 LINE",
"189 77 LINE",
"88 384 LINE",
"22 384 LINE"
);
}
);
width = 645;
}
);
unicode = 0077;
},
{
glyphname = x;
lastChange = "2014-08-17 14:36:07 +0000";
layers = (
{
layerId = "CFA4B904-E3F1-48B6-A7F6-47DC1FF2A3E1";
name = "Regular Italic";
paths = (
{
closed = 1;
nodes = (
"27 384 LINE",
"164 189 LINE",
"27 0 LINE",
"99 0 LINE",
"200 141 LINE",
"301 0 LINE",
"380 0 LINE",
"241 191 LINE",
"380 384 LINE",
"307 384 LINE",
"205 240 LINE",
"101 384 LINE"
);
}
);
width = 407;
}
);
unicode = 0078;
},
{
glyphname = y;
lastChange = "2014-08-17 18:06:48 +0000";
layers = (
{
anchors = (
{
name = top;
position = "{202, 384}";
}
);
layerId = "CFA4B904-E3F1-48B6-A7F6-47DC1FF2A3E1";
name = "Regular Italic";
paths = (
{
closed = 1;
nodes = (
"208 66 LINE",
"90 384 LINE",
"22 384 LINE",
"176 -20 LINE",
"102 -206 LINE",
"169 -206 LINE",
"388 384 LINE",
"326 384 LINE"
);
}
);
width = 412;
}
);
unicode = 0079;
},
{
glyphname = z;
lastChange = "2014-08-18 12:02:21 +0000";
layers = (
{
anchors = (
{
name = top;
position = "{192, 384}";
}
);
layerId = "CFA4B904-E3F1-48B6-A7F6-47DC1FF2A3E1";
name = "Regular Italic";
paths = (
{
closed = 1;
nodes = (
"46 333 LINE",
"252 333 LINE",
"46 33 LINE",
"46 0 LINE",
"348 0 LINE",
"348 49 LINE",
"129 49 LINE",
"337 350 LINE",
"337 384 LINE",
"46 384 LINE"
);
}
);
width = 385;
}
);
unicode = 007A;
},
{
glyphname = fi;
lastChange = "2014-10-03 10:45:04 +0000";
layers = (
{
layerId = "CFA4B904-E3F1-48B6-A7F6-47DC1FF2A3E1";
name = "Regular Italic";
paths = (
{
closed = 1;
nodes = (
"243 503 OFFCURVE",
"256 500 OFFCURVE",
"271 497 CURVE",
"284 544 LINE",
"261 550 OFFCURVE",
"241 554 OFFCURVE",
"211 554 CURVE SMOOTH",
"157 554 OFFCURVE",
"118 534 OFFCURVE",
"96 495 CURVE SMOOTH",
"87 479 OFFCURVE",
"83 455 OFFCURVE",
"83 423 CURVE SMOOTH",
"83 384 LINE",
"28 384 LINE",
"28 333 LINE",
"85 333 LINE",
"85 0 LINE",
"150 0 LINE",
"150 333 LINE",
"266 333 LINE",
"266 384 LINE",
"149 384 LINE",
"149 426 LINE",
"149 488 OFFCURVE",
"186 503 OFFCURVE",
"231 503 CURVE SMOOTH"
);
},
{
closed = 1;
nodes = (
"346 0 LINE",
"411 0 LINE",
"411 384 LINE",
"346 384 LINE"
);
},
{
closed = 1;
nodes = (
"403 458 OFFCURVE",
"420 478 OFFCURVE",
"420 500 CURVE SMOOTH",
"420 521 OFFCURVE",
"403 541 OFFCURVE",
"379 541 CURVE SMOOTH",
"354 541 OFFCURVE",
"337 521 OFFCURVE",
"337 500 CURVE SMOOTH",
"337 478 OFFCURVE",
"354 458 OFFCURVE",
"379 458 CURVE SMOOTH"
);
}
);
width = 469;
}
);
leftMetricsKey = f;
rightMetricsKey = i;
unicode = FB01;
},
{
glyphname = fl;
lastChange = "2014-10-03 10:47:09 +0000";
layers = (
{
background = {
paths = (
{
closed = 1;
nodes = (
"443 503 OFFCURVE",
"456 500 OFFCURVE",
"471 497 CURVE",
"484 544 LINE",
"461 550 OFFCURVE",
"441 554 OFFCURVE",
"411 554 CURVE SMOOTH",
"357 554 OFFCURVE",
"318 534 OFFCURVE",
"296 495 CURVE SMOOTH",
"287 479 OFFCURVE",
"283 455 OFFCURVE",
"283 423 CURVE SMOOTH",
"283 384 LINE",
"228 384 LINE",
"228 333 LINE",
"285 333 LINE",
"285 0 LINE",
"350 0 LINE",
"350 333 LINE",
"466 333 LINE",
"466 384 LINE",
"349 384 LINE",
"349 426 LINE",
"349 488 OFFCURVE",
"386 503 OFFCURVE",
"431 503 CURVE SMOOTH"
);
},
{
closed = 1;
nodes = (
"609 51 OFFCURVE",
"607 78 OFFCURVE",
"607 106 CURVE SMOOTH",
"607 533 LINE",
"544 533 LINE",
"544 83 LINE SMOOTH",
"545 29 OFFCURVE",
"576 -9 OFFCURVE",
"626 -9 CURVE SMOOTH",
"664 -9 OFFCURVE",
"689 4 OFFCURVE",
"704 10 CURVE",
"692 57 LINE",
"679 53 OFFCURVE",
"669 51 OFFCURVE",
"658 51 CURVE SMOOTH"
);
},
{
closed = 1;
nodes = (
"651 51 OFFCURVE",
"662 53 OFFCURVE",
"674 57 CURVE",
"685 10 LINE",
"668 1 OFFCURVE",
"647 -9 OFFCURVE",
"608 -9 CURVE SMOOTH",
"557 -9 OFFCURVE",
"527 28 OFFCURVE",
"526 83 CURVE",
"526 493 LINE",
"497 498 OFFCURVE",
"462 503 OFFCURVE",
"431 503 CURVE SMOOTH",
"386 503 OFFCURVE",
"356 485 OFFCURVE",
"351 446 CURVE SMOOTH",
"350 439 OFFCURVE",
"349 430 OFFCURVE",
"349 419 CURVE SMOOTH",
"349 384 LINE",
"476 384 LINE",
"476 333 LINE",
"350 333 LINE",
"350 0 LINE",
"285 0 LINE",
"285 333 LINE",
"228 333 LINE",
"228 384 LINE",
"283 384 LINE",
"283 423 LINE SMOOTH",
"283 456 OFFCURVE",
"287 480 OFFCURVE",
"296 495 CURVE SMOOTH",
"318 534 OFFCURVE",
"356 554 OFFCURVE",
"411 554 CURVE SMOOTH",
"467 554 OFFCURVE",
"539 538 OFFCURVE",
"589 525 CURVE",
"589 106 LINE SMOOTH",
"589 91 OFFCURVE",
"589 79 OFFCURVE",
"596 68 CURVE SMOOTH",
"603 57 OFFCURVE",
"615 51 OFFCURVE",
"640 51 CURVE SMOOTH"
);
}
);
};
layerId = "CFA4B904-E3F1-48B6-A7F6-47DC1FF2A3E1";
name = "Regular Italic";
paths = (
{
closed = 1;
nodes = (
"243 503 OFFCURVE",
"256 500 OFFCURVE",
"271 497 CURVE",
"284 544 LINE",
"261 550 OFFCURVE",
"241 554 OFFCURVE",
"211 554 CURVE SMOOTH",
"157 554 OFFCURVE",
"118 534 OFFCURVE",
"96 495 CURVE SMOOTH",
"87 479 OFFCURVE",
"83 455 OFFCURVE",
"83 423 CURVE SMOOTH",
"83 384 LINE",
"28 384 LINE",
"28 333 LINE",
"85 333 LINE",
"85 0 LINE",
"150 0 LINE",
"150 333 LINE",
"266 333 LINE",
"266 384 LINE",
"149 384 LINE",
"149 426 LINE",
"149 488 OFFCURVE",
"186 503 OFFCURVE",
"231 503 CURVE SMOOTH"
);
},
{
closed = 1;
nodes = (
"409 51 OFFCURVE",
"407 78 OFFCURVE",
"407 106 CURVE SMOOTH",
"407 533 LINE",
"344 533 LINE",
"344 83 LINE SMOOTH",
"345 29 OFFCURVE",
"376 -9 OFFCURVE",
"426 -9 CURVE SMOOTH",
"464 -9 OFFCURVE",
"489 4 OFFCURVE",
"504 10 CURVE",
"492 57 LINE",
"479 53 OFFCURVE",
"469 51 OFFCURVE",
"458 51 CURVE SMOOTH"
);
}
);
width = 509;
}
);
leftMetricsKey = f;
unicode = FB02;
},
{
glyphname = ordfeminine;
lastChange = "2014-10-03 06:30:36 +0000";
layers = (
{
background = {
paths = (
{
closed = 1;
nodes = (
"307 505 OFFCURVE",
"282 500 OFFCURVE",
"263 495 CURVE",
"253 529 LINE",
"277 538 OFFCURVE",
"303 544 OFFCURVE",
"326 544 CURVE SMOOTH",
"353 544 OFFCURVE",
"375 538 OFFCURVE",
"388 530 CURVE",
"411 514 OFFCURVE",
"424 491 OFFCURVE",
"424 455 CURVE SMOOTH",
"424 312 LINE",
"388 312 LINE",
"380 332 LINE",
"357 315 OFFCURVE",
"334 306 OFFCURVE",
"311 306 CURVE SMOOTH",
"264 306 OFFCURVE",
"240 338 OFFCURVE",
"240 375 CURVE SMOOTH",
"240 411 OFFCURVE",
"259 428 OFFCURVE",
"285 437 CURVE SMOOTH",
"311 446 OFFCURVE",
"345 446 OFFCURVE",
"378 446 CURVE",
"378 447 LINE SMOOTH",
"378 466 OFFCURVE",
"376 470 OFFCURVE",
"373 478 CURVE SMOOTH",
"366 497 OFFCURVE",
"351 505 OFFCURVE",
"322 505 CURVE SMOOTH"
);
},
{
closed = 1;
nodes = (
"344 344 OFFCURVE",
"362 354 OFFCURVE",
"378 370 CURVE",
"378 410 LINE",
"368 410 OFFCURVE",
"358 410 OFFCURVE",
"347 411 CURVE",
"325 411 OFFCURVE",
"306 408 OFFCURVE",
"294 400 CURVE",
"288 395 OFFCURVE",
"285 388 OFFCURVE",
"285 379 CURVE SMOOTH",
"285 359 OFFCURVE",
"297 344 OFFCURVE",
"317 344 CURVE SMOOTH"
);
}
);
};
layerId = "CFA4B904-E3F1-48B6-A7F6-47DC1FF2A3E1";
name = "Regular Italic";
paths = (
{
closed = 1;
nodes = (
"104 505 OFFCURVE",
"80 499 OFFCURVE",
"58 492 CURVE",
"48 526 LINE",
"72 535 OFFCURVE",
"107 544 OFFCURVE",
"130 544 CURVE SMOOTH",
"157 544 OFFCURVE",
"175 538 OFFCURVE",
"188 530 CURVE",
"211 514 OFFCURVE",
"224 491 OFFCURVE",
"224 455 CURVE SMOOTH",
"224 312 LINE",
"188 312 LINE",
"180 332 LINE",
"157 315 OFFCURVE",
"134 306 OFFCURVE",
"111 306 CURVE SMOOTH",
"64 306 OFFCURVE",
"40 338 OFFCURVE",
"40 375 CURVE SMOOTH",
"40 411 OFFCURVE",
"60 429 OFFCURVE",
"86 438 CURVE SMOOTH",
"112 447 OFFCURVE",
"145 447 OFFCURVE",
"178 446 CURVE",
"178 447 LINE SMOOTH",
"178 484 OFFCURVE",
"167 505 OFFCURVE",
"122 505 CURVE SMOOTH"
);
},
{
closed = 1;
nodes = (
"144 344 OFFCURVE",
"162 354 OFFCURVE",
"178 370 CURVE",
"178 411 LINE",
"147 411 LINE",
"115 411 OFFCURVE",
"85 408 OFFCURVE",
"85 379 CURVE SMOOTH",
"85 359 OFFCURVE",
"97 344 OFFCURVE",
"117 344 CURVE SMOOTH"
);
}
);
width = 264;
}
);
unicode = 00AA;
},
{
glyphname = ordmasculine;
lastChange = "2014-10-03 06:30:19 +0000";
layers = (
{
layerId = "CFA4B904-E3F1-48B6-A7F6-47DC1FF2A3E1";
name = "Regular Italic";
paths = (
{
closed = 1;
nodes = (
"111 506 OFFCURVE",
"85 474 OFFCURVE",
"85 425 CURVE SMOOTH",
"85 376 OFFCURVE",
"111 344 OFFCURVE",
"150 344 CURVE SMOOTH",
"189 344 OFFCURVE",
"215 374 OFFCURVE",
"215 425 CURVE SMOOTH",
"215 474 OFFCURVE",
"189 506 OFFCURVE",
"150 506 CURVE SMOOTH"
);
},
{
closed = 1;
nodes = (
"78 307 OFFCURVE",
"40 353 OFFCURVE",
"40 425 CURVE SMOOTH",
"40 497 OFFCURVE",
"81 543 OFFCURVE",
"150 543 CURVE SMOOTH",
"221 543 OFFCURVE",
"260 497 OFFCURVE",
"260 425 CURVE SMOOTH",
"260 353 OFFCURVE",
"220 307 OFFCURVE",
"149 307 CURVE SMOOTH"
);
}
);
width = 300;
}
);
unicode = 00BA;
},
{
glyphname = pi;
lastChange = "2014-11-05 14:02:17 +0000";
layers = (
{
layerId = "CFA4B904-E3F1-48B6-A7F6-47DC1FF2A3E1";
name = "Regular Italic";
paths = (
{
closed = 1;
nodes = (
"10 384 LINE",
"406 384 LINE",
"406 324 LINE",
"341 324 LINE",
"341 106 LINE SMOOTH",
"341 74 OFFCURVE",
"344 51 OFFCURVE",
"392 51 CURVE SMOOTH",
"405 51 OFFCURVE",
"414 53 OFFCURVE",
"426 57 CURVE",
"438 10 LINE",
"423 4 OFFCURVE",
"402 -9 OFFCURVE",
"360 -9 CURVE SMOOTH",
"311 -9 OFFCURVE",
"279 28 OFFCURVE",
"278 83 CURVE",
"278 324 LINE",
"136 324 LINE",
"136 0 LINE",
"69 0 LINE",
"69 324 LINE",
"10 324 LINE"
);
}
);
width = 438;
}
);
unicode = 03C0;
},
{
glyphname = "ka-deva";
lastChange = "2014-11-09 11:36:18 +0000";
layers = (
{
anchors = (
{
name = bottom;
position = "{284, 5}";
},
{
name = top;
position = "{284, 447}";
}
);
layerId = "CFA4B904-E3F1-48B6-A7F6-47DC1FF2A3E1";
name = "Regular Italic";
paths = (
{
closed = 1;
nodes = (
"573 408 LINE",
"573 456 LINE",
"-24 456 LINE",
"-24 408 LINE",
"257 408 LINE",
"257 313.755 LINE",
"233.1 326.228 OFFCURVE",
"203.845 337 OFFCURVE",
"171 337 CURVE SMOOTH",
"88 337 OFFCURVE",
"28 286 OFFCURVE",
"28 205 CURVE SMOOTH",
"28 124 OFFCURVE",
"88 73 OFFCURVE",
"171 73 CURVE SMOOTH",
"208.639 73 OFFCURVE",
"235.591 82.9512 OFFCURVE",
"257 94.7984 CURVE",
"257 0 LINE",
"310 0 LINE",
"310 259.168 LINE",
"328.201 271.348 OFFCURVE",
"350.105 282 OFFCURVE",
"373 282 CURVE SMOOTH",
"427 282 OFFCURVE",
"458 254 OFFCURVE",
"458 207 CURVE SMOOTH",
"458 156 OFFCURVE",
"421 128 OFFCURVE",
"392 101 CURVE",
"431 62 LINE",
"468 91 OFFCURVE",
"514 138 OFFCURVE",
"514 201 CURVE SMOOTH",
"514 280 OFFCURVE",
"460 333 OFFCURVE",
"377 333 CURVE SMOOTH",
"352.407 333 OFFCURVE",
"329.827 324.724 OFFCURVE",
"310 314.096 CURVE",
"310 408 LINE"
);
},
{
closed = 1;
nodes = (
"121 124 OFFCURVE",
"84 151 OFFCURVE",
"84 205 CURVE SMOOTH",
"84 258 OFFCURVE",
"121 286 OFFCURVE",
"175 286 CURVE SMOOTH",
"209.979 286 OFFCURVE",
"237.718 271.068 OFFCURVE",
"257 257.64 CURVE",
"257 150.51 LINE",
"240.404 137.598 OFFCURVE",
"216.589 124 OFFCURVE",
"180 124 CURVE SMOOTH"
);
}
);
width = 549;
}
);
unicode = 0915;
},
{
glyphname = "kha-deva";
lastChange = "2014-11-09 11:36:22 +0000";
layers = (
{
anchors = (
{
name = bottom;
position = "{480, 5}";
},
{
name = top;
position = "{480, 447}";
}
);
annotations = (
{
position = "{618, 514}";
text = "98 units";
type = Text;
width = 119.527;
},
{
angle = 39.8188;
position = "{566, 465}";
type = Arrow;
}
);
background = {
paths = (
{
closed = 1;
nodes = (
"668 0 LINE",
"721 0 LINE",
"721 456 LINE",
"668 456 LINE"
);
},
{
closed = 1;
nodes = (
"172 456 LINE",
"172 408 LINE",
"819 408 LINE",
"819 456 LINE"
);
},
{
closed = 1;
nodes = (
"287 427 OFFCURVE",
"358 403 OFFCURVE",
"358 306 CURVE SMOOTH",
"358 209 OFFCURVE",
"244 206 OFFCURVE",
"244 206 CURVE SMOOTH",
"244 206 OFFCURVE",
"266 157 OFFCURVE",
"266 157 CURVE",
"305 157 OFFCURVE",
"412 191 OFFCURVE",
"412 304 CURVE SMOOTH",
"412 412 OFFCURVE",
"339 443 OFFCURVE",
"339 443 CURVE",
"287 427 LINE"
);
},
{
closed = 1;
nodes = (
"214 212 OFFCURVE",
"409 -17 OFFCURVE",
"409 -17 CURVE SMOOTH",
"409 -17 OFFCURVE",
"453 18 OFFCURVE",
"453 18 CURVE",
"254 246 LINE",
"214 212 LINE"
);
},
{
closed = 1;
nodes = (
"440 121 OFFCURVE",
"500 70 OFFCURVE",
"583 70 CURVE SMOOTH",
"645 70 OFFCURVE",
"678 97 OFFCURVE",
"705 115 CURVE",
"691 166 LINE",
"675 154 OFFCURVE",
"649 121 OFFCURVE",
"592 121 CURVE SMOOTH",
"533 121 OFFCURVE",
"496 148 OFFCURVE",
"496 202 CURVE SMOOTH",
"496 255 OFFCURVE",
"533 283 OFFCURVE",
"587 283 CURVE SMOOTH",
"639 283 OFFCURVE",
"675 250 OFFCURVE",
"691 238 CURVE",
"705 289 LINE",
"678 307 OFFCURVE",
"635 334 OFFCURVE",
"583 334 CURVE SMOOTH",
"500 334 OFFCURVE",
"440 283 OFFCURVE",
"440 202 CURVE SMOOTH"
);
}
);
};
guideLines = (
{
angle = 90;
position = "{695, 204}";
}
);
layerId = "CFA4B904-E3F1-48B6-A7F6-47DC1FF2A3E1";
name = "Regular Italic";
paths = (
{
closed = 1;
nodes = (
"604 456 LINE",
"-24 456 LINE",
"-24 408 LINE",
"117.142 408 LINE",
"136.485 390.672 OFFCURVE",
"158 359.397 OFFCURVE",
"158 306 CURVE SMOOTH",
"158 247.072 OFFCURVE",
"115.927 222.836 OFFCURVE",
"82.8997 212.889 CURVE",
"54 246 LINE",
"14 212 LINE",
"14 212 OFFCURVE",
"209 -17 OFFCURVE",
"209 -17 CURVE",
"253 18 LINE",
"120.564 169.736 LINE",
"163.988 188.06 OFFCURVE",
"212 228.306 OFFCURVE",
"212 304 CURVE SMOOTH",
"212 353.193 OFFCURVE",
"196.854 386.411 OFFCURVE",
"180.36 408 CURVE",
"453 408 LINE",
"453 317.665 LINE",
"432.133 326.842 OFFCURVE",
"407.109 334 OFFCURVE",
"376 334 CURVE SMOOTH",
"303 334 OFFCURVE",
"245 283 OFFCURVE",
"245 202 CURVE SMOOTH",
"245 121 OFFCURVE",
"303 70 OFFCURVE",
"376 70 CURVE SMOOTH",
"407.109 70 OFFCURVE",
"432.133 75.0109 OFFCURVE",
"453 82.8909 CURVE",
"453 0 LINE",
"506 0 LINE",
"506 408 LINE",
"604 408 LINE"
);
},
{
closed = 1;
nodes = (
"336 121 OFFCURVE",
"301 148 OFFCURVE",
"301 202 CURVE SMOOTH",
"301 255 OFFCURVE",
"336 283 OFFCURVE",
"380 283 CURVE SMOOTH",
"412.954 283 OFFCURVE",
"436.269 272.959 OFFCURVE",
"453 262.296 CURVE",
"453 137.647 LINE",
"436.718 128.555 OFFCURVE",
"414.636 121 OFFCURVE",
"385 121 CURVE SMOOTH"
);
}
);
width = 580;
}
);
unicode = 0916;
},
{
glyphname = "ga-deva";
lastChange = "2014-11-09 11:36:26 +0000";
layers = (
{
anchors = (
{
name = bottom;
position = "{341, 5}";
},
{
name = top;
position = "{341, 447}";
}
);
annotations = (
{
position = "{452, 535}";
text = "98 units";
type = Text;
},
{
angle = 38.5692;
position = "{418, 463}";
type = Arrow;
}
);
guideLines = (
{
angle = 90;
position = "{545, 66}";
}
);
layerId = "CFA4B904-E3F1-48B6-A7F6-47DC1FF2A3E1";
name = "Regular Italic";
paths = (
{
closed = 1;
nodes = (
"467 456 LINE",
"-24 456 LINE",
"-24 408 LINE",
"92 408 LINE",
"92 215 LINE",
"34 215 LINE",
"34 181 LINE",
"109 90 LINE",
"147 90 LINE",
"147 408 LINE",
"313 408 LINE",
"313 0 LINE",
"369 0 LINE",
"369 408 LINE",
"467 408 LINE"
);
}
);
width = 443;
}
);
unicode = 0917;
},
{
glyphname = "gha-deva";
lastChange = "2014-11-09 11:36:29 +0000";
layers = (
{
anchors = (
{
name = bottom;
position = "{391, 5}";
},
{
name = top;
position = "{391, 447}";
}
);
annotations = (
{
position = "{500, 549}";
text = "98 units";
type = Text;
},
{
angle = 54.123;
position = "{463, 485}";
type = Arrow;
}
);
background = {
paths = (
{
closed = 1;
nodes = (
"547 0 LINE",
"602 0 LINE",
"602 456 LINE",
"547 456 LINE"
);
},
{
closed = 1;
nodes = (
"176 456 LINE",
"176 408 LINE",
"679 408 LINE",
"679 456 LINE"
);
},
{
closed = 1;
nodes = (
"316 237 OFFCURVE",
"392 261 OFFCURVE",
"392 262 CURVE",
"392 262 OFFCURVE",
"294 281 OFFCURVE",
"294 354 CURVE SMOOTH",
"294 426 OFFCURVE",
"373 456 OFFCURVE",
"373 456 CURVE SMOOTH",
"297 456 LINE SMOOTH",
"297 456 OFFCURVE",
"237 422 OFFCURVE",
"237 354 CURVE SMOOTH",
"237 279 OFFCURVE",
"300 249 OFFCURVE",
"316 237 CURVE"
);
},
{
closed = 1;
nodes = (
"307 298 OFFCURVE",
"263 245 OFFCURVE",
"263 191 CURVE SMOOTH",
"263 122 OFFCURVE",
"324 75 OFFCURVE",
"412 75 CURVE SMOOTH",
"497 75 OFFCURVE",
"551 123 OFFCURVE",
"551 123 CURVE",
"551 190 LINE",
"551 190 OFFCURVE",
"499 128 OFFCURVE",
"409 128 CURVE SMOOTH",
"371 128 OFFCURVE",
"319 147 OFFCURVE",
"319 188 CURVE SMOOTH",
"319 230 OFFCURVE",
"369 243 OFFCURVE",
"438 248 CURVE",
"420 298 LINE"
);
},
{
closed = 1;
nodes = (
"1142 0 LINE",
"1197 0 LINE",
"1197 456 LINE",
"1142 456 LINE"
);
},
{
closed = 1;
nodes = (
"776 456 LINE",
"776 408 LINE",
"1274 408 LINE",
"1274 456 LINE"
);
},
{
closed = 1;
nodes = (
"947 287 OFFCURVE",
"893 314 OFFCURVE",
"893 363 CURVE SMOOTH",
"893 433 OFFCURVE",
"969 454 OFFCURVE",
"973 456 CURVE",
"897 456 LINE SMOOTH",
"897 456 OFFCURVE",
"837 431 OFFCURVE",
"837 363 CURVE SMOOTH",
"837 312 OFFCURVE",
"868 279 OFFCURVE",
"912 263 CURVE",
"877 245 OFFCURVE",
"863 216 OFFCURVE",
"863 182 CURVE SMOOTH",
"863 122 OFFCURVE",
"924 75 OFFCURVE",
"1012 75 CURVE SMOOTH",
"1091 75 OFFCURVE",
"1151 121 OFFCURVE",
"1151 123 CURVE",
"1151 190 LINE",
"1151 190 OFFCURVE",
"1099 127 OFFCURVE",
"1009 127 CURVE SMOOTH",
"971 127 OFFCURVE",
"919 143 OFFCURVE",
"919 184 CURVE SMOOTH",
"919 221 OFFCURVE",
"945 243 OFFCURVE",
"1025 243 CURVE",
"1025 293 LINE"
);
},
{
closed = 1;
nodes = (
"379 30 OFFCURVE",
"415 -9 OFFCURVE",
"415 -9 CURVE SMOOTH",
"415 -9 OFFCURVE",
"644 190 OFFCURVE",
"644 190 CURVE",
"615 228 LINE",
"379 30 LINE"
);
}
);
};
guideLines = (
{
angle = 90;
position = "{591, 239}";
}
);
layerId = "CFA4B904-E3F1-48B6-A7F6-47DC1FF2A3E1";
name = "Regular Italic";
paths = (
{
closed = 1;
nodes = (
"517 456 LINE",
"-24 456 LINE",
"-24 408 LINE",
"66.0331 408 LINE",
"57.9164 393.352 OFFCURVE",
"52 375.352 OFFCURVE",
"52 354 CURVE SMOOTH",
"52 303.451 OFFCURVE",
"80.6181 273.344 OFFCURVE",
"104.177 255.412 CURVE",
"85.3645 237.39 OFFCURVE",
"78 215.091 OFFCURVE",
"78 191 CURVE SMOOTH",
"78 122 OFFCURVE",
"141 74.9999 OFFCURVE",
"227 74.9999 CURVE SMOOTH",
"298.606 74.9999 OFFCURVE",
"348.921 109.064 OFFCURVE",
"363 119.799 CURVE",
"363 0 LINE",
"419 0 LINE",
"419 408 LINE",
"517 408 LINE"
);
},
{
closed = 1;
nodes = (
"363 185.751 LINE",
"349.105 171.757 OFFCURVE",
"299.609 128 OFFCURVE",
"224 128 CURVE SMOOTH",
"186 128 OFFCURVE",
"134 147 OFFCURVE",
"134 188 CURVE SMOOTH",
"134 230 OFFCURVE",
"182 243 OFFCURVE",
"249 248 CURVE",
"235 298 LINE",
"201.71 295.781 OFFCURVE",
"174.808 290.714 OFFCURVE",
"153.311 283.397 CURVE",
"130.47 297.494 OFFCURVE",
"109 319.832 OFFCURVE",
"109 354 CURVE SMOOTH",
"109 375.708 OFFCURVE",
"116.182 393.599 OFFCURVE",
"126.215 408 CURVE",
"363 408 LINE"
);
}
);
width = 493;
}
);
unicode = 0918;
},
{
glyphname = "nga-deva";
lastChange = "2014-11-09 11:36:36 +0000";
layers = (
{
anchors = (
{
name = bottom;
position = "{225, -25}";
},
{
name = top;
position = "{302, 447}";
}
);
background = {
paths = (
{
closed = 1;
nodes = (
"629 207 LINE",
"629 266 LINE",
"568 266 LINE",
"568 207 LINE"
);
},
{
closed = 1;
nodes = (
"176 456 LINE",
"176 408 LINE",
"700 408 LINE",
"700 456 LINE"
);
},
{
closed = 1;
nodes = (
"478 164 OFFCURVE",
"508 153 OFFCURVE",
"508 106 CURVE SMOOTH",
"508 73 OFFCURVE",
"464 52 OFFCURVE",
"424 52 CURVE SMOOTH",
"365 52 OFFCURVE",
"315 78 OFFCURVE",
"267 130 CURVE",
"227 98 LINE",
"280 32 OFFCURVE",
"334 0 OFFCURVE",
"424 0 CURVE SMOOTH",
"509 0 OFFCURVE",
"566 46 OFFCURVE",
"566 111 CURVE SMOOTH",
"566 191 OFFCURVE",
"501 216 OFFCURVE",
"437 216 CURVE SMOOTH",
"385 216 OFFCURVE",
"332 212 OFFCURVE",
"332 256 CURVE SMOOTH",
"332 284 OFFCURVE",
"355 294 OFFCURVE",
"405 294 CURVE SMOOTH",
"467 294 OFFCURVE",
"484 289 OFFCURVE",
"519 285 CURVE",
"529 292 LINE",
"529 456 LINE",
"473 456 LINE",
"473 344 LINE",
"447 347 OFFCURVE",
"439 348 OFFCURVE",
"406 348 CURVE SMOOTH",
"329 348 OFFCURVE",
"276 324 OFFCURVE",
"276 260 CURVE SMOOTH",
"276 153 OFFCURVE",
"387 164 OFFCURVE",
"417 164 CURVE SMOOTH"
);
},
{
closed = 1;
nodes = (
"634 207 LINE",
"634 266 LINE",
"573 266 LINE",
"573 207 LINE"
);
}
);
};
layerId = "CFA4B904-E3F1-48B6-A7F6-47DC1FF2A3E1";
name = "Regular Italic";
paths = (
{
closed = 1;
nodes = (
"-24 456 LINE",
"-24 408 LINE",
"274 408 LINE",
"274 343 LINE",
"253 345 OFFCURVE",
"241 346 OFFCURVE",
"208 346 CURVE SMOOTH",
"131 346 OFFCURVE",
"80 322 OFFCURVE",
"80 259 CURVE SMOOTH",
"80 162 OFFCURVE",
"182 161 OFFCURVE",
"220 165 CURVE SMOOTH",
"280 171 OFFCURVE",
"309 153 OFFCURVE",
"309 116 CURVE SMOOTH",
"309 73 OFFCURVE",
"268 52 OFFCURVE",
"224 52 CURVE SMOOTH",
"165 52 OFFCURVE",
"116 81 OFFCURVE",
"68 128 CURVE",
"34 91 LINE",
"86 38 OFFCURVE",
"149 0 OFFCURVE",
"225 0 CURVE SMOOTH",
"306 0 OFFCURVE",
"363 46 OFFCURVE",
"363 120 CURVE SMOOTH",
"363 181 OFFCURVE",
"310 220 OFFCURVE",
"238 216 CURVE SMOOTH",
"186 213 OFFCURVE",
"133 212 OFFCURVE",
"133 256 CURVE SMOOTH",
"133 284 OFFCURVE",
"156 294 OFFCURVE",
"206 294 CURVE SMOOTH",
"268 294 OFFCURVE",
"285 289 OFFCURVE",
"320 285 CURVE",
"330 292 LINE",
"330 408 LINE",
"500 408 LINE",
"500 456 LINE"
);
},
{
closed = 1;
nodes = (
"381 271 OFFCURVE",
"367 257 OFFCURVE",
"367 236 CURVE SMOOTH",
"367 216 OFFCURVE",
"381 202 OFFCURVE",
"401 202 CURVE SMOOTH",
"422 202 OFFCURVE",
"436 216 OFFCURVE",
"436 236 CURVE SMOOTH",
"436 257 OFFCURVE",
"422 271 OFFCURVE",
"401 271 CURVE SMOOTH"
);
}
);
width = 475;
}
);
unicode = 0919;
},
{
glyphname = "ca-deva";
lastChange = "2014-11-09 11:37:16 +0000";
layers = (
{
anchors = (
{
name = bottom;
position = "{368, 5}";
},
{
name = top;
position = "{368, 447}";
}
);
annotations = (
{
position = "{430, 541}";
text = "98 units";
type = Text;
},
{
angle = 56.7035;
position = "{435, 470}";
type = Arrow;
}
);
background = {
paths = (
{
closed = 1;
nodes = (
"535 0 LINE",
"591 0 LINE",
"591 456 LINE",
"535 456 LINE"
);
},
{
closed = 1;
nodes = (
"176 456 LINE",
"176 408 LINE",
"689 408 LINE",
"689 456 LINE"
);
},
{
closed = 1;
nodes = (
"557 187 OFFCURVE",
"517 130 OFFCURVE",
"433 130 CURVE SMOOTH",
"379 130 OFFCURVE",
"338 155 OFFCURVE",
"338 200 CURVE SMOOTH",
"338 251 OFFCURVE",
"390 266 OFFCURVE",
"390 266 CURVE SMOOTH",
"315 266 LINE SMOOTH",
"315 266 OFFCURVE",
"282 249 OFFCURVE",
"282 194 CURVE SMOOTH",
"282 133 OFFCURVE",
"334 78 OFFCURVE",
"432 78 CURVE SMOOTH",
"510 78 OFFCURVE",
"547 112 OFFCURVE",
"568 130 CURVE",
"568 200 LINE"
);
},
{
closed = 1;
nodes = (
"216 296 LINE",
"216 248 LINE",
"448 248 LINE",
"448 296 LINE"
);
}
);
};
guideLines = (
{
angle = 90;
position = "{568, 248}";
}
);
layerId = "CFA4B904-E3F1-48B6-A7F6-47DC1FF2A3E1";
name = "Regular Italic";
paths = (
{
closed = 1;
nodes = (
"494 456 LINE",
"-24 456 LINE",
"-24 408 LINE",
"340 408 LINE",
"340 165.597 LINE",
"317.922 147.683 OFFCURVE",
"284.786 130 OFFCURVE",
"238 130 CURVE SMOOTH",
"184 130 OFFCURVE",
"143 155 OFFCURVE",
"143 200 CURVE SMOOTH",
"143 225.694 OFFCURVE",
"154 242.339 OFFCURVE",
"166.733 253 CURVE",
"253 253 LINE",
"253 301 LINE",
"21 301 LINE",
"21 253 LINE",
"102.529 253 LINE",
"94.3687 241.459 OFFCURVE",
"87 223.007 OFFCURVE",
"87 194 CURVE SMOOTH",
"87 133 OFFCURVE",
"139 78 OFFCURVE",
"237 78 CURVE SMOOTH",
"284.403 78 OFFCURVE",
"317.025 90.8859 OFFCURVE",
"340 104.992 CURVE",
"340 0 LINE",
"396 0 LINE",
"396 408 LINE",
"494 408 LINE"
);
}
);
width = 470;
}
);
unicode = 091A;
},
{
glyphname = "cha-deva";
lastChange = "2014-11-09 11:37:20 +0000";
layers = (
{
anchors = (
{
name = bottom;
position = "{254, -19}";
},
{
name = top;
position = "{406, 447}";
}
);
background = {
paths = (
{
closed = 1;
nodes = (
"753 908 LINE",
"753 956 LINE",
"176 956 LINE",
"176 908 LINE"
);
},
{
closed = 1;
nodes = (
"640 621 OFFCURVE",
"547 558 OFFCURVE",
"444 558 CURVE SMOOTH",
"376 558 OFFCURVE",
"308 590 OFFCURVE",
"308 647 CURVE SMOOTH",
"308 687 OFFCURVE",
"333 730 OFFCURVE",
"441 726 CURVE",
"446 726 LINE",
"446 775 LINE",
"437 775 LINE SMOOTH",
"333 774 OFFCURVE",
"326 823 OFFCURVE",
"326 844 CURVE SMOOTH",
"326 878 OFFCURVE",
"343 900 OFFCURVE",
"389 908 CURVE",
"437 956 LINE",
"402 956 OFFCURVE",
"348 944 OFFCURVE",
"317 924 CURVE SMOOTH",
"284 903 OFFCURVE",
"272 873 OFFCURVE",
"272 844 CURVE SMOOTH",
"272 805 OFFCURVE",
"290 775 OFFCURVE",
"335 752 CURVE",
"288 736 OFFCURVE",
"254 704 OFFCURVE",
"254 641 CURVE SMOOTH",
"254 564 OFFCURVE",
"331 506 OFFCURVE",
"444 506 CURVE SMOOTH",
"539 506 OFFCURVE",
"691 557 OFFCURVE",
"691 720 CURVE SMOOTH",
"691 798 OFFCURVE",
"657 849 OFFCURVE",
"600 849 CURVE SMOOTH",
"543 849 OFFCURVE",
"506 798 OFFCURVE",
"506 728 CURVE SMOOTH",
"506 637 OFFCURVE",
"551 584 OFFCURVE",
"563 569 CURVE",
"563 569 OFFCURVE",
"610 594 OFFCURVE",
"610 594 CURVE SMOOTH",
"610 594 OFFCURVE",
"557 640 OFFCURVE",
"557 728 CURVE SMOOTH",
"557 766 OFFCURVE",
"574 794 OFFCURVE",
"600 794 CURVE SMOOTH",
"622 794 OFFCURVE",
"640 773 OFFCURVE",
"640 716 CURVE SMOOTH"
);
},
{
closed = 1;
nodes = (
"581 833 LINE",
"631 833 LINE",
"631 956 LINE",
"581 956 LINE"
);
},
{
closed = 1;
nodes = (
"758 908 LINE",
"758 956 LINE",
"176 956 LINE",
"176 908 LINE"
);
},
{
closed = 1;
nodes = (
"650 621 OFFCURVE",
"575 558 OFFCURVE",
"454 558 CURVE SMOOTH",
"386 558 OFFCURVE",
"318 590 OFFCURVE",
"318 647 CURVE SMOOTH",
"318 687 OFFCURVE",
"333 730 OFFCURVE",
"441 726 CURVE",
"446 726 LINE",
"446 775 LINE",
"437 775 LINE SMOOTH",
"333 774 OFFCURVE",
"326 823 OFFCURVE",
"326 844 CURVE SMOOTH",
"326 878 OFFCURVE",
"343 900 OFFCURVE",
"389 908 CURVE",
"437 956 LINE",
"402 956 OFFCURVE",
"348 944 OFFCURVE",
"317 924 CURVE SMOOTH",
"284 903 OFFCURVE",
"272 873 OFFCURVE",
"272 844 CURVE SMOOTH",
"272 805 OFFCURVE",
"290 775 OFFCURVE",
"335 752 CURVE",
"294 732 OFFCURVE",
"264 704 OFFCURVE",
"264 653 CURVE SMOOTH",
"264 564 OFFCURVE",
"341 506 OFFCURVE",
"454 506 CURVE SMOOTH",
"558 506 OFFCURVE",
"701 557 OFFCURVE",
"701 720 CURVE SMOOTH",
"701 798 OFFCURVE",
"657 849 OFFCURVE",
"600 849 CURVE SMOOTH",
"543 849 OFFCURVE",
"506 798 OFFCURVE",
"506 728 CURVE SMOOTH",
"506 637 OFFCURVE",
"558 584 OFFCURVE",
"560 569 CURVE",
"560 569 OFFCURVE",
"620 594 OFFCURVE",
"610 594 CURVE SMOOTH",
"610 594 OFFCURVE",
"557 640 OFFCURVE",
"557 728 CURVE SMOOTH",
"557 766 OFFCURVE",
"574 794 OFFCURVE",
"600 794 CURVE SMOOTH",
"622 794 OFFCURVE",
"650 773 OFFCURVE",
"650 716 CURVE SMOOTH"
);
},
{
closed = 1;
nodes = (
"581 833 LINE",
"631 833 LINE",
"631 956 LINE",
"581 956 LINE"
);
},
{
closed = 1;
nodes = (
"758 408 LINE",
"758 456 LINE",
"176 456 LINE",
"176 408 LINE"
);
},
{
closed = 1;
nodes = (
"650 121 OFFCURVE",
"575 58 OFFCURVE",
"454 58 CURVE SMOOTH",
"386 58 OFFCURVE",
"318 85 OFFCURVE",
"318 154 CURVE SMOOTH",
"318 187 OFFCURVE",
"343 230 OFFCURVE",
"441 226 CURVE",
"446 226 LINE",
"446 275 LINE",
"437 275 LINE SMOOTH",
"333 274 OFFCURVE",
"326 323 OFFCURVE",
"326 344 CURVE SMOOTH",
"326 378 OFFCURVE",
"343 400 OFFCURVE",
"389 408 CURVE",
"437 456 LINE",
"402 456 OFFCURVE",
"348 444 OFFCURVE",
"317 424 CURVE SMOOTH",
"284 403 OFFCURVE",
"272 373 OFFCURVE",
"272 344 CURVE SMOOTH",
"272 305 OFFCURVE",
"290 275 OFFCURVE",
"335 252 CURVE",
"294 232 OFFCURVE",
"264 204 OFFCURVE",
"264 153 CURVE SMOOTH",
"264 64 OFFCURVE",
"341 6 OFFCURVE",
"454 6 CURVE SMOOTH",
"558 6 OFFCURVE",
"701 57 OFFCURVE",
"701 220 CURVE SMOOTH",
"701 298 OFFCURVE",
"657 349 OFFCURVE",
"600 349 CURVE SMOOTH",
"543 349 OFFCURVE",
"506 298 OFFCURVE",
"506 228 CURVE SMOOTH",
"506 137 OFFCURVE",
"558 84 OFFCURVE",
"560 69 CURVE",
"560 69 OFFCURVE",
"620 94 OFFCURVE",
"610 94 CURVE SMOOTH",
"610 94 OFFCURVE",
"557 140 OFFCURVE",
"557 228 CURVE SMOOTH",
"557 266 OFFCURVE",
"574 294 OFFCURVE",
"600 294 CURVE SMOOTH",
"622 294 OFFCURVE",
"650 273 OFFCURVE",
"650 216 CURVE SMOOTH"
);
},
{
closed = 1;
nodes = (
"581 333 LINE",
"631 333 LINE",
"631 456 LINE",
"581 456 LINE"
);
}
);
};
layerId = "CFA4B904-E3F1-48B6-A7F6-47DC1FF2A3E1";
name = "Regular Italic";
paths = (
{
closed = 1;
nodes = (
"558 408 LINE",
"558 456 LINE",
"-24 456 LINE",
"-24 408 LINE",
"97.2577 408 LINE",
"79.0646 389.089 OFFCURVE",
"71.9999 366.25 OFFCURVE",
"71.9999 344 CURVE SMOOTH",
"71.9999 305 OFFCURVE",
"89.9999 275 OFFCURVE",
"135 252 CURVE",
"93.9999 232 OFFCURVE",
"63.9999 204 OFFCURVE",
"63.9999 153 CURVE SMOOTH",
"63.9999 64 OFFCURVE",
"141 6 OFFCURVE",
"254 6 CURVE SMOOTH",
"358 6 OFFCURVE",
"501 57 OFFCURVE",
"501 220 CURVE SMOOTH",
"501 283.113 OFFCURVE",
"472.192 328.549 OFFCURVE",
"431 343.593 CURVE",
"431 408 LINE"
);
},
{
closed = 1;
nodes = (
"381 347.054 LINE",
"333.314 337.11 OFFCURVE",
"298 290.01 OFFCURVE",
"298 228 CURVE SMOOTH",
"298 153.4 OFFCURVE",
"333.625 105.943 OFFCURVE",
"354.878 76.2547 CURVE",
"326.57 64.4214 OFFCURVE",
"292.629 57.9999 OFFCURVE",
"254 57.9999 CURVE SMOOTH",
"186 57.9999 OFFCURVE",
"118 89.9999 OFFCURVE",
"118 147 CURVE SMOOTH",
"118 187 OFFCURVE",
"133 230 OFFCURVE",
"241 226 CURVE",
"246 226 LINE",
"246 275 LINE",
"237 275 LINE SMOOTH",
"133 274 OFFCURVE",
"126 323 OFFCURVE",
"126 344 CURVE SMOOTH",
"126 378 OFFCURVE",
"143 400 OFFCURVE",
"189 408 CURVE",
"381 408 LINE"
);
},
{
closed = 1;
nodes = (
"383.039 121.111 OFFCURVE",
"351 163.151 OFFCURVE",
"351 228 CURVE SMOOTH",
"351 266 OFFCURVE",
"374 295 OFFCURVE",
"400 295 CURVE SMOOTH",
"422 295 OFFCURVE",
"450 273 OFFCURVE",
"450 216 CURVE SMOOTH",
"450 169.693 OFFCURVE",
"432.179 130.989 OFFCURVE",
"399.898 103.479 CURVE"
);
}
);
width = 534;
}
);
unicode = 091B;
},
{
glyphname = "ja-deva";
lastChange = "2014-11-09 11:37:24 +0000";
layers = (
{
anchors = (
{
name = bottom;
position = "{437, 5}";
},
{
name = top;
position = "{437, 447}";
}
);
annotations = (
{
position = "{513, 547}";
text = "98 units";
type = Text;
},
{
angle = 61.7163;
position = "{504, 475}";
type = Arrow;
}
);
guideLines = (
{
angle = 90;
position = "{637, -65}";
}
);
layerId = "CFA4B904-E3F1-48B6-A7F6-47DC1FF2A3E1";
name = "Regular Italic";
paths = (
{
closed = 1;
nodes = (
"563 456 LINE",
"-24 456 LINE",
"-24 408 LINE",
"409 408 LINE",
"409 284 LINE",
"241 284 LINE",
"198 284 LINE",
"198 239 LINE",
"264 239 OFFCURVE",
"282 193 OFFCURVE",
"282 160 CURVE SMOOTH",
"282 112 OFFCURVE",
"247 87 OFFCURVE",
"204 87 CURVE SMOOTH",
"146 87 OFFCURVE",
"91 144 OFFCURVE",
"61 245 CURVE",
"14 225 LINE",
"51 104 OFFCURVE",
"116 35 OFFCURVE",
"205 35 CURVE SMOOTH",
"256 35 OFFCURVE",
"334 64 OFFCURVE",
"334 156 CURVE SMOOTH",
"334 178.014 OFFCURVE",
"328.615 208.105 OFFCURVE",
"306.782 236 CURVE",
"409 236 LINE",
"409 0 LINE",
"465 0 LINE",
"465 408 LINE",
"563 408 LINE"
);
}
);
width = 539;
}
);
unicode = 091C;
},
{
glyphname = "jha-deva";
lastChange = "2014-11-09 11:37:27 +0000";
layers = (
{
anchors = (
{
name = bottom;
position = "{462, 5}";
},
{
name = top;
position = "{462, 447}";
}
);
annotations = (
{
position = "{529, 544}";
text = "98 units";
type = Text;
},
{
angle = 65.2072;
position = "{539, 470}";
type = Arrow;
}
);
guideLines = (
{
angle = 90;
position = "{662, 364}";
}
);
layerId = "CFA4B904-E3F1-48B6-A7F6-47DC1FF2A3E1";
name = "Regular Italic";
paths = (
{
closed = 1;
nodes = (
"585 456 LINE",
"-24 456 LINE",
"-24 408 LINE",
"247 408 LINE",
"247 341 LINE",
"221 344 OFFCURVE",
"213 345 OFFCURVE",
"180 345 CURVE SMOOTH",
"107 345 OFFCURVE",
"52 323 OFFCURVE",
"52 260 CURVE SMOOTH",
"52 189 OFFCURVE",
"101 163 OFFCURVE",
"150 163 CURVE SMOOTH",
"177 163 OFFCURVE",
"203 169 OFFCURVE",
"223 169 CURVE SMOOTH",
"265 169 OFFCURVE",
"282 146 OFFCURVE",
"282 116 CURVE SMOOTH",
"282 77 OFFCURVE",
"238 59 OFFCURVE",
"203 59 CURVE SMOOTH",
"183 59 OFFCURVE",
"168 59 OFFCURVE",
"151 65 CURVE",
"98 134 LINE",
"71 136 OFFCURVE",
"46 121 OFFCURVE",
"46 96 CURVE SMOOTH",
"46 58.395 OFFCURVE",
"82.9247 33.7529 OFFCURVE",
"124.522 20.5965 CURVE",
"149.749 -19.2351 OFFCURVE",
"199 -97 OFFCURVE",
"199 -97 CURVE",
"247 -75 LINE",
"189.219 9.1594 LINE",
"197 8.9998 LINE SMOOTH",
"277 8.9998 OFFCURVE",
"336 49.9998 OFFCURVE",
"336 115 CURVE SMOOTH",
"336 124.606 OFFCURVE",
"335.171 133.591 OFFCURVE",
"333.568 141.943 CURVE",
"349.517 138.396 OFFCURVE",
"365.863 136 OFFCURVE",
"382 136 CURVE SMOOTH",
"402.794 136 OFFCURVE",
"420.105 141.278 OFFCURVE",
"434 148.405 CURVE",
"434 0 LINE",
"490 0 LINE",
"490 408 LINE",
"585 408 LINE"
);
},
{
closed = 1;
nodes = (
"434 197.067 LINE",
"418.451 189.555 OFFCURVE",
"397.87 184 OFFCURVE",
"371 184 CURVE SMOOTH",
"355.252 184 OFFCURVE",
"327.601 191.539 OFFCURVE",
"300.544 199.118 CURVE",
"281.526 214.245 OFFCURVE",
"255.674 222 OFFCURVE",
"225 222 CURVE SMOOTH",
"204 222 OFFCURVE",
"181 216 OFFCURVE",
"160 216 CURVE SMOOTH",
"127 216 OFFCURVE",
"105 223 OFFCURVE",
"105 256 CURVE SMOOTH",
"105 284 OFFCURVE",
"129 294 OFFCURVE",
"179 294 CURVE SMOOTH",
"241 294 OFFCURVE",
"258 289 OFFCURVE",
"293 285 CURVE",
"303 292 LINE",
"303 408 LINE",
"434 408 LINE"
);
}
);
width = 561;
}
);
unicode = 091D;
},
{
glyphname = "nya-deva";
lastChange = "2014-11-09 11:37:32 +0000";
layers = (
{
anchors = (
{
name = bottom;
position = "{425, 5}";
},
{
name = top;
position = "{425, 447}";
}
);
annotations = (
{
position = "{502, 535}";
text = "98 units";
type = Text;
},
{
angle = 47.8513;
position = "{492, 468}";
type = Arrow;
}
);
guideLines = (
{
angle = 90;
position = "{625, 366}";
}
);
layerId = "CFA4B904-E3F1-48B6-A7F6-47DC1FF2A3E1";
name = "Regular Italic";
paths = (
{
closed = 1;
nodes = (
"551 456 LINE",
"-24 456 LINE",
"-24 408 LINE",
"397 408 LINE",
"397 214.044 LINE",
"386.127 210.384 OFFCURVE",
"373.557 208 OFFCURVE",
"359 208 CURVE SMOOTH",
"340.326 208 OFFCURVE",
"329.623 209.993 OFFCURVE",
"319.752 213.826 CURVE",
"308.559 268.505 OFFCURVE",
"268.736 310 OFFCURVE",
"205 310 CURVE SMOOTH",
"168 310 OFFCURVE",
"141 299 OFFCURVE",
"118 284 CURVE",
"141 236 LINE",
"141 236 OFFCURVE",
"171 257 OFFCURVE",
"200 257 CURVE SMOOTH",
"252 257 OFFCURVE",
"268 226 OFFCURVE",
"268 190 CURVE SMOOTH",
"268 144 OFFCURVE",
"238 116 OFFCURVE",
"195 116 CURVE SMOOTH",
"133 116 OFFCURVE",
"93 174 OFFCURVE",
"53 275 CURVE",
"6 256 LINE",
"50 135 OFFCURVE",
"108 63 OFFCURVE",
"197 63 CURVE SMOOTH",
"254.018 63 OFFCURVE",
"306.365 95.6878 OFFCURVE",
"318.844 162.868 CURVE",
"331.475 159.851 OFFCURVE",
"344.003 158 OFFCURVE",
"359 158 CURVE SMOOTH",
"372.141 158 OFFCURVE",
"385.123 160.062 OFFCURVE",
"397 163.364 CURVE",
"397 0 LINE",
"453 0 LINE",
"453 408 LINE",
"551 408 LINE"
);
}
);
width = 527;
}
);
unicode = 091E;
},
{
glyphname = "tta-deva";
lastChange = "2014-11-09 11:37:36 +0000";
layers = (
{
anchors = (
{
name = bottom;
position = "{205, -25}";
},
{
name = top;
position = "{287, 447}";
}
);
background = {
paths = (
{
closed = 1;
nodes = (
"176 456 LINE",
"176 408 LINE",
"614 408 LINE",
"614 456 LINE"
);
},
{
closed = 1;
nodes = (
"505 80 OFFCURVE",
"464 55 OFFCURVE",
"414 55 CURVE SMOOTH",
"344 55 OFFCURVE",
"299 96 OFFCURVE",
"299 161 CURVE SMOOTH",
"299 219 OFFCURVE",
"333 262 OFFCURVE",
"408 262 CURVE SMOOTH",
"445 262 OFFCURVE",
"470 257 OFFCURVE",
"506 253 CURVE",
"515 260 LINE",
"515 456 LINE",
"459 456 LINE",
"459 315 LINE",
"433 316 OFFCURVE",
"414 317 OFFCURVE",
"400 317 CURVE SMOOTH",
"291 317 OFFCURVE",
"241 244 OFFCURVE",
"241 158 CURVE SMOOTH",
"241 63 OFFCURVE",
"313 0 OFFCURVE",
"410 0 CURVE SMOOTH",
"477 0 OFFCURVE",
"530 29 OFFCURVE",
"555 46 CURVE",
"531 95 LINE"
);
}
);
};
layerId = "CFA4B904-E3F1-48B6-A7F6-47DC1FF2A3E1";
name = "Regular Italic";
paths = (
{
closed = 1;
nodes = (
"245 265 OFFCURVE",
"270 260 OFFCURVE",
"306 256 CURVE",
"315 263 LINE",
"315 408 LINE",
"414 408 LINE",
"414 456 LINE",
"-24 456 LINE",
"-24 408 LINE",
"259 408 LINE",
"259 315 LINE",
"233 316 OFFCURVE",
"214 317 OFFCURVE",
"200 317 CURVE SMOOTH",
"91 317 OFFCURVE",
"41 244 OFFCURVE",
"41 163 CURVE SMOOTH",
"41 63 OFFCURVE",
"113 0 OFFCURVE",
"210 0 CURVE SMOOTH",
"277 0 OFFCURVE",
"330 29 OFFCURVE",
"355 46 CURVE",
"331 92 LINE",
"305 77 OFFCURVE",
"264 52 OFFCURVE",
"214 52 CURVE SMOOTH",
"141 52 OFFCURVE",
"96 93 OFFCURVE",
"96 161 CURVE SMOOTH",
"96 222 OFFCURVE",
"130 265 OFFCURVE",
"208 265 CURVE SMOOTH"
);
}
);
width = 390;
}
);
unicode = 091F;
},
{
glyphname = "ttha-deva";
lastChange = "2014-11-09 11:37:40 +0000";
layers = (
{
anchors = (
{
name = bottom;
position = "{211, -25}";
},
{
name = top;
position = "{277, 447}";
}
);
layerId = "CFA4B904-E3F1-48B6-A7F6-47DC1FF2A3E1";
name = "Regular Italic";
paths = (
{
closed = 1;
nodes = (
"454 408 LINE",
"454 456 LINE",
"-24 456 LINE",
"-24 408 LINE",
"251 408 LINE",
"251 317 LINE",
"202 317 LINE SMOOTH",
"93 317 OFFCURVE",
"43 244 OFFCURVE",
"43 158 CURVE SMOOTH",
"43 65 OFFCURVE",
"110 0 OFFCURVE",
"207 0 CURVE SMOOTH",
"351 0 OFFCURVE",
"388 86 OFFCURVE",
"388 158 CURVE SMOOTH",
"388 222.862 OFFCURVE",
"349.396 270.971 OFFCURVE",
"307 301.706 CURVE",
"307 408 LINE"
);
},
{
closed = 1;
nodes = (
"138 52.9999 OFFCURVE",
"98 95.9999 OFFCURVE",
"98 161 CURVE SMOOTH",
"98 225 OFFCURVE",
"135 264 OFFCURVE",
"210 264 CURVE SMOOTH",
"268.233 264 LINE",
"299.583 247.222 OFFCURVE",
"332 209.092 OFFCURVE",
"332 152 CURVE SMOOTH",
"332 87 OFFCURVE",
"284 53 OFFCURVE",
"213 53 CURVE SMOOTH"
);
}
);
width = 430;
}
);
unicode = 0920;
},
{
glyphname = "dda-deva";
lastChange = "2014-11-09 11:37:44 +0000";
layers = (
{
anchors = (
{
name = bottom;
position = "{225, -25}";
},
{
name = top;
position = "{302, 447}";
}
);
background = {
paths = (
{
closed = 1;
nodes = (
"172 456 LINE",
"172 408 LINE",
"619 408 LINE",
"619 456 LINE"
);
},
{
closed = 1;
nodes = (
"479 164 OFFCURVE",
"509 153 OFFCURVE",
"509 106 CURVE SMOOTH",
"509 73 OFFCURVE",
"465 52 OFFCURVE",
"425 52 CURVE SMOOTH",
"366 52 OFFCURVE",
"316 78 OFFCURVE",
"268 130 CURVE",
"228 98 LINE",
"281 32 OFFCURVE",
"335 0 OFFCURVE",
"425 0 CURVE SMOOTH",
"510 0 OFFCURVE",
"567 46 OFFCURVE",
"567 111 CURVE SMOOTH",
"567 191 OFFCURVE",
"513 216 OFFCURVE",
"438 216 CURVE SMOOTH",
"386 216 OFFCURVE",
"333 212 OFFCURVE",
"333 256 CURVE SMOOTH",
"333 284 OFFCURVE",
"356 294 OFFCURVE",
"406 294 CURVE SMOOTH",
"468 294 OFFCURVE",
"485 289 OFFCURVE",
"520 285 CURVE",
"530 292 LINE",
"530 456 LINE",
"474 456 LINE",
"474 344 LINE",
"448 347 OFFCURVE",
"440 348 OFFCURVE",
"407 348 CURVE SMOOTH",
"330 348 OFFCURVE",
"277 324 OFFCURVE",
"277 260 CURVE SMOOTH",
"277 153 OFFCURVE",
"388 164 OFFCURVE",
"418 164 CURVE SMOOTH"
);
}
);
};
layerId = "CFA4B904-E3F1-48B6-A7F6-47DC1FF2A3E1";
name = "Regular Italic";
paths = (
{
closed = 1;
nodes = (
"268 294 OFFCURVE",
"285 289 OFFCURVE",
"320 285 CURVE",
"330 292 LINE",
"330 408 LINE",
"429 408 LINE",
"429 456 LINE",
"-28 456 LINE",
"-28 408 LINE",
"274 408 LINE",
"274 343 LINE",
"253 345 OFFCURVE",
"241 346 OFFCURVE",
"208 346 CURVE SMOOTH",
"131 346 OFFCURVE",
"80 322 OFFCURVE",
"80 259 CURVE SMOOTH",
"80 162 OFFCURVE",
"182 161 OFFCURVE",
"220 165 CURVE SMOOTH",
"280 171 OFFCURVE",
"309 153 OFFCURVE",
"309 116 CURVE SMOOTH",
"309 73 OFFCURVE",
"268 52 OFFCURVE",
"224 52 CURVE SMOOTH",
"165 52 OFFCURVE",
"116 81 OFFCURVE",
"68 128 CURVE",
"34 91 LINE",
"86 38 OFFCURVE",
"149 0 OFFCURVE",
"225 0 CURVE SMOOTH",
"306 0 OFFCURVE",
"363 46 OFFCURVE",
"363 120 CURVE SMOOTH",
"363 181 OFFCURVE",
"310 220 OFFCURVE",
"238 216 CURVE SMOOTH",
"186 213 OFFCURVE",
"133 212 OFFCURVE",
"133 256 CURVE SMOOTH",
"133 284 OFFCURVE",
"156 294 OFFCURVE",
"206 294 CURVE SMOOTH"
);
}
);
width = 405;
}
);
unicode = 0921;
},
{
glyphname = "ddha-deva";
lastChange = "2014-11-09 11:37:49 +0000";
layers = (
{
anchors = (
{
name = bottom;
position = "{215, -25}";
},
{
name = top;
position = "{287, 447}";
}
);
layerId = "CFA4B904-E3F1-48B6-A7F6-47DC1FF2A3E1";
name = "Regular Italic";
paths = (
{
closed = 1;
nodes = (
"245 264 OFFCURVE",
"270 259 OFFCURVE",
"306 255 CURVE",
"315 262 LINE",
"315 408 LINE",
"420 408 LINE",
"420 456 LINE",
"-24 456 LINE",
"-24 408 LINE",
"259 408 LINE",
"259 315 LINE",
"233 317 OFFCURVE",
"217 317 OFFCURVE",
"203 317 CURVE SMOOTH",
"94 317 OFFCURVE",
"41 244 OFFCURVE",
"41 158 CURVE SMOOTH",
"41 67 OFFCURVE",
"110 0 OFFCURVE",
"215 0 CURVE SMOOTH",
"286 0 OFFCURVE",
"355 30 OFFCURVE",
"355 107 CURVE SMOOTH",
"355 140 OFFCURVE",
"331 190 OFFCURVE",
"269 190 CURVE SMOOTH",
"220 190 OFFCURVE",
"183 157 OFFCURVE",
"183 104 CURVE SMOOTH",
"183 81.7493 OFFCURVE",
"188.052 63.9897 OFFCURVE",
"194.29 50.2742 CURVE",
"136.898 58.082 OFFCURVE",
"96 99.5094 OFFCURVE",
"96 161 CURVE SMOOTH",
"96 225 OFFCURVE",
"133 264 OFFCURVE",
"208 264 CURVE SMOOTH"
);
},
{
closed = 1;
nodes = (
"288 138 OFFCURVE",
"302 124 OFFCURVE",
"302 101 CURVE SMOOTH",
"302 77.2745 OFFCURVE",
"283.259 58.2345 OFFCURVE",
"246.325 51.5456 CURVE",
"240.134 62.054 OFFCURVE",
"234 78.2146 OFFCURVE",
"234 101 CURVE SMOOTH",
"234 130 OFFCURVE",
"249 138 OFFCURVE",
"269 138 CURVE SMOOTH"
);
}
);
width = 396;
}
);
leftMetricsKey = "ddh-deva";
unicode = 0922;
},
{
glyphname = "nna-deva";
lastChange = "2014-11-09 11:37:53 +0000";
layers = (
{
anchors = (
{
name = bottom;
position = "{448, 5}";
},
{
name = top;
position = "{448, 447}";
}
);
annotations = (
{
position = "{558.132, 591.134}";
text = "98 units";
type = Text;
},
{
angle = 57.7142;
position = "{542, 495}";
type = Arrow;
}
);
guideLines = (
{
angle = 90;
position = "{648, 220}";
}
);
layerId = "CFA4B904-E3F1-48B6-A7F6-47DC1FF2A3E1";
name = "Regular Italic";
paths = (
{
closed = 1;
nodes = (
"574 456 LINE",
"-24 456 LINE",
"-24 408 LINE",
"63 408 LINE",
"63 224 LINE SMOOTH",
"63 127 OFFCURVE",
"108 80 OFFCURVE",
"191 80 CURVE SMOOTH",
"268 80 OFFCURVE",
"317 128 OFFCURVE",
"317 224 CURVE SMOOTH",
"317 408 LINE",
"420 408 LINE",
"420 0 LINE",
"476 0 LINE",
"476 408 LINE",
"574 408 LINE"
);
},
{
closed = 1;
nodes = (
"261 228 LINE SMOOTH",
"261 164 OFFCURVE",
"241 133 OFFCURVE",
"190 133 CURVE SMOOTH",
"139 133 OFFCURVE",
"119 164 OFFCURVE",
"119 228 CURVE SMOOTH",
"119 408 LINE",
"261 408 LINE"
);
}
);
width = 550;
}
);
unicode = 0923;
},
{
glyphname = "ta-deva";
lastChange = "2014-11-09 11:37:57 +0000";
layers = (
{
anchors = (
{
name = bottom;
position = "{331, 5}";
},
{
name = top;
position = "{331, 447}";
}
);
annotations = (
{
position = "{458, 559}";
text = "98 units";
type = Text;
},
{
angle = 45.5141;
position = "{429, 493}";
type = Arrow;
}
);
background = {
paths = (
{
closed = 1;
nodes = (
"500 0 LINE",
"556 0 LINE",
"556 456 LINE",
"500 456 LINE"
);
},
{
closed = 1;
nodes = (
"176 456 LINE",
"176 408 LINE",
"654 408 LINE",
"654 456 LINE"
);
},
{
closed = 1;
nodes = (
"521 297 OFFCURVE",
"456 297 OFFCURVE",
"392 297 CURVE SMOOTH",
"293 297 OFFCURVE",
"245 253 OFFCURVE",
"245 165 CURVE SMOOTH",
"245 74 OFFCURVE",
"319 -10 OFFCURVE",
"319 -10 CURVE",
"369 11 LINE",
"349 42 OFFCURVE",
"301 102 OFFCURVE",
"301 165 CURVE SMOOTH",
"301 221 OFFCURVE",
"333 244 OFFCURVE",
"388 244 CURVE SMOOTH",
"460 244 OFFCURVE",
"521 244 OFFCURVE",
"521 244 CURVE",
"521 297 LINE"
);
}
);
};
guideLines = (
{
angle = 90;
position = "{531, 92}";
}
);
layerId = "CFA4B904-E3F1-48B6-A7F6-47DC1FF2A3E1";
name = "Regular Italic";
paths = (
{
closed = 1;
nodes = (
"457 456 LINE",
"-24 456 LINE",
"-24 408 LINE",
"303 408 LINE",
"303 297 LINE",
"182 297 LINE SMOOTH",
"89 297 OFFCURVE",
"44 260 OFFCURVE",
"44 177 CURVE SMOOTH",
"44 114 OFFCURVE",
"89 43 OFFCURVE",
"123 -15 CURVE",
"170 11 LINE",
"152 42 OFFCURVE",
"101 128 OFFCURVE",
"101 175 CURVE SMOOTH",
"101 227 OFFCURVE",
"128 241 OFFCURVE",
"188 241 CURVE SMOOTH",
"303 241 LINE",
"303 0 LINE",
"359 0 LINE",
"359 408 LINE",
"457 408 LINE"
);
}
);
width = 433;
}
);
unicode = 0924;
},
{
glyphname = "tha-deva";
lastChange = "2014-11-09 11:38:01 +0000";
layers = (
{
anchors = (
{
name = bottom;
position = "{387, 5}";
},
{
name = top;
position = "{387, 447}";
}
);
annotations = (
{
position = "{520.916, 574.290}";
text = "98 units";
type = Text;
},
{
angle = 49.9249;
position = "{479, 503}";
type = Arrow;
}
);
guideLines = (
{
angle = 90;
position = "{587, 220}";
}
);
layerId = "CFA4B904-E3F1-48B6-A7F6-47DC1FF2A3E1";
name = "Regular Italic";
paths = (
{
closed = 1;
nodes = (
"513 456 LINE",
"289 456 LINE",
"289 408 LINE",
"359 408 LINE",
"359 184.838 LINE",
"330.833 155.23 OFFCURVE",
"284.134 138 OFFCURVE",
"239 138 CURVE SMOOTH",
"198 138 OFFCURVE",
"157 153 OFFCURVE",
"132 183 CURVE",
"170 211 OFFCURVE",
"253 253 OFFCURVE",
"253 342 CURVE SMOOTH",
"253 402 OFFCURVE",
"222 467 OFFCURVE",
"150 467 CURVE SMOOTH",
"105 467 OFFCURVE",
"55 436 OFFCURVE",
"55 379 CURVE SMOOTH",
"55 340 OFFCURVE",
"78 302 OFFCURVE",
"127 279 CURVE",
"156 321 LINE",
"132 335 OFFCURVE",
"109 351 OFFCURVE",
"109 379 CURVE SMOOTH",
"109 399 OFFCURVE",
"129 414 OFFCURVE",
"148 414 CURVE SMOOTH",
"183 414 OFFCURVE",
"201 380 OFFCURVE",
"201 342 CURVE SMOOTH",
"201 269 OFFCURVE",
"108 230 OFFCURVE",
"76 213 CURVE",
"65 182 LINE",
"92 136 OFFCURVE",
"153 84 OFFCURVE",
"244 84 CURVE SMOOTH",
"297.424 84 OFFCURVE",
"340.387 106.022 OFFCURVE",
"359 118.612 CURVE",
"359 0 LINE",
"415 0 LINE",
"415 408 LINE",
"513 408 LINE"
);
}
);
width = 489;
}
);
unicode = 0925;
},
{
glyphname = "da-deva";
lastChange = "2014-11-09 11:38:04 +0000";
layers = (
{
anchors = (
{
name = bottom;
position = "{301, -8}";
},
{
name = top;
position = "{289, 447}";
}
);
layerId = "CFA4B904-E3F1-48B6-A7F6-47DC1FF2A3E1";
name = "Regular Italic";
paths = (
{
closed = 1;
nodes = (
"247 264 OFFCURVE",
"272 259 OFFCURVE",
"308 255 CURVE",
"317 262 LINE",
"317 408 LINE",
"429 408 LINE",
"429 456 LINE",
"-24 456 LINE",
"-24 408 LINE",
"261 408 LINE",
"261 315 LINE",
"235 316 OFFCURVE",
"216 317 OFFCURVE",
"202 317 CURVE SMOOTH",
"100 317 OFFCURVE",
"41 258 OFFCURVE",
"41 172 CURVE SMOOTH",
"41 71 OFFCURVE",
"113 17 OFFCURVE",
"211 17 CURVE SMOOTH",
"242.854 17 OFFCURVE",
"272.178 26.3916 OFFCURVE",
"290.508 33.8859 CURVE",
"307.364 2.3856 OFFCURVE",
"337 -52.9999 OFFCURVE",
"337 -52.9999 CURVE",
"387 -24.9999 LINE",
"331.332 61.3254 LINE",
"341.911 71.8745 OFFCURVE",
"350 86.6545 OFFCURVE",
"350 103 CURVE SMOOTH",
"350 135 OFFCURVE",
"328 158 OFFCURVE",
"295 158 CURVE SMOOTH",
"262 158 OFFCURVE",
"241 130 OFFCURVE",
"241 130 CURVE",
"263.614 79.6036 LINE",
"251.159 74.6082 OFFCURVE",
"235.624 70 OFFCURVE",
"213 70 CURVE SMOOTH",
"138 70 OFFCURVE",
"94.9999 106 OFFCURVE",
"94.9999 166 CURVE SMOOTH",
"94.9999 230 OFFCURVE",
"135 264 OFFCURVE",
"210 264 CURVE SMOOTH"
);
}
);
width = 405;
}
);
unicode = 0926;
},
{
glyphname = "dha-deva";
lastChange = "2014-11-09 11:38:10 +0000";
layers = (
{
anchors = (
{
name = bottom;
position = "{387, 5}";
},
{
name = top;
position = "{387, 447}";
}
);
annotations = (
{
position = "{471, 579}";
text = "98 units";
type = Text;
},
{
angle = 55.0589;
position = "{448, 504}";
type = Arrow;
}
);
background = {
paths = (
{
closed = 1;
nodes = (
"554 0 LINE",
"610 0 LINE",
"610 456 LINE",
"554 456 LINE"
);
},
{
closed = 1;
nodes = (
"477 456 LINE",
"477 408 LINE",
"708 408 LINE",
"708 456 LINE"
);
},
{
closed = 1;
nodes = (
"245 288 OFFCURVE",
"306 246 OFFCURVE",
"322 234 CURVE",
"322 234 OFFCURVE",
"377 264 OFFCURVE",
"377 265 CURVE",
"361 273 OFFCURVE",
"299 298 OFFCURVE",
"299 363 CURVE SMOOTH",
"299 405 OFFCURVE",
"322 418 OFFCURVE",
"345 418 CURVE SMOOTH",
"363 418 OFFCURVE",
"377 408 OFFCURVE",
"377 389 CURVE SMOOTH",
"377 368 OFFCURVE",
"363 360 OFFCURVE",
"347 351 CURVE",
"372 311 LINE",
"414 331 OFFCURVE",
"427 357 OFFCURVE",
"427 390 CURVE SMOOTH",
"427 433 OFFCURVE",
"396 466 OFFCURVE",
"339 466 CURVE SMOOTH",
"281 466 OFFCURVE",
"245 426 OFFCURVE",
"245 363 CURVE SMOOTH"
);
},
{
closed = 1;
nodes = (
"385 272 OFFCURVE",
"348 268 OFFCURVE",
"324 250 CURVE SMOOTH",
"297 230 OFFCURVE",
"284 206 OFFCURVE",
"284 178 CURVE SMOOTH",
"284 114 OFFCURVE",
"341 71 OFFCURVE",
"430 71 CURVE SMOOTH",
"522 71 OFFCURVE",
"572 123 OFFCURVE",
"572 123 CURVE",
"572 190 LINE",
"572 190 OFFCURVE",
"523 122 OFFCURVE",
"433 122 CURVE SMOOTH",
"375 122 OFFCURVE",
"340 144 OFFCURVE",
"340 175 CURVE SMOOTH",
"340 210 OFFCURVE",
"386 220 OFFCURVE",
"451 224 CURVE",
"441 275 LINE"
);
}
);
};
guideLines = (
{
angle = 90;
position = "{587, 92}";
}
);
layerId = "CFA4B904-E3F1-48B6-A7F6-47DC1FF2A3E1";
name = "Regular Italic";
paths = (
{
closed = 1;
nodes = (
"513 456 LINE",
"282 456 LINE",
"282 408 LINE",
"359 408 LINE",
"359 157.244 LINE",
"335.304 139.223 OFFCURVE",
"294.082 116 OFFCURVE",
"239 116 CURVE SMOOTH",
"196 116 OFFCURVE",
"149 130 OFFCURVE",
"149 171 CURVE SMOOTH",
"149 210 OFFCURVE",
"197 223 OFFCURVE",
"264 233 CURVE",
"249 282 LINE",
"218.94 278.493 OFFCURVE",
"194.151 273.292 OFFCURVE",
"173.879 266.632 CURVE",
"154.681 277.059 OFFCURVE",
"104 311.138 OFFCURVE",
"104 363 CURVE SMOOTH",
"104 405 OFFCURVE",
"127 418 OFFCURVE",
"150 418 CURVE SMOOTH",
"168 418 OFFCURVE",
"182 408 OFFCURVE",
"182 389 CURVE SMOOTH",
"182 368 OFFCURVE",
"168 360 OFFCURVE",
"152 351 CURVE",
"177 311 LINE",
"219 331 OFFCURVE",
"232 357 OFFCURVE",
"232 390 CURVE SMOOTH",
"232 433 OFFCURVE",
"201 466 OFFCURVE",
"144 466 CURVE SMOOTH",
"86 466 OFFCURVE",
"50 426 OFFCURVE",
"50 363 CURVE SMOOTH",
"50 295.463 OFFCURVE",
"99.4638 254.686 OFFCURVE",
"120.991 238.477 CURVE",
"100.737 220.559 OFFCURVE",
"93 198.569 OFFCURVE",
"93 174 CURVE SMOOTH",
"93 103 OFFCURVE",
"152 63 OFFCURVE",
"242 63 CURVE SMOOTH",
"292.138 63 OFFCURVE",
"334.42 81.4609 OFFCURVE",
"359 94.9967 CURVE",
"359 0 LINE",
"415 0 LINE",
"415 408 LINE",
"513 408 LINE"
);
}
);
width = 489;
}
);
unicode = 0927;
},
{
glyphname = "na-deva";
lastChange = "2014-11-09 11:38:14 +0000";
layers = (
{
anchors = (
{
name = bottom;
position = "{307, 5}";
},
{
name = top;
position = "{307, 447}";
}
);
annotations = (
{
position = "{471.567, 574.290}";
text = "98 units";
type = Text;
},
{
angle = 56.7439;
position = "{439, 499}";
type = Arrow;
}
);
guideLines = (
{
angle = 90;
position = "{507, 132}";
}
);
layerId = "CFA4B904-E3F1-48B6-A7F6-47DC1FF2A3E1";
name = "Regular Italic";
paths = (
{
closed = 1;
nodes = (
"433 456 LINE",
"-24 456 LINE",
"-24 408 LINE",
"279 408 LINE",
"279 251 LINE",
"34 251 LINE",
"34 214 LINE",
"98 112 LINE",
"138 112 LINE",
"138 203 LINE",
"279 203 LINE",
"279 0 LINE",
"335 0 LINE",
"335 408 LINE",
"433 408 LINE"
);
}
);
width = 409;
}
);
unicode = 0928;
},
{
glyphname = "nnna-deva";
lastChange = "2014-11-09 11:38:23 +0000";
layers = (
{
anchors = (
{
name = bottom;
position = "{307, 5}";
},
{
name = top;
position = "{307, 447}";
}
);
guideLines = (
{
angle = 90;
position = "{305, 303}";
}
);
layerId = "CFA4B904-E3F1-48B6-A7F6-47DC1FF2A3E1";
name = "Regular Italic";
paths = (
{
closed = 1;
nodes = (
"433 456 LINE",
"-24 456 LINE",
"-24 408 LINE",
"279 408 LINE",
"279 251 LINE",
"34 251 LINE",
"34 214 LINE",
"98 112 LINE",
"138 112 LINE",
"138 203 LINE",
"279 203 LINE",
"279 0 LINE",
"335 0 LINE",
"335 408 LINE",
"433 408 LINE"
);
},
{
closed = 1;
nodes = (
"169 -6 OFFCURVE",
"183 8 OFFCURVE",
"183 28 CURVE SMOOTH",
"183 49 OFFCURVE",
"169 63 OFFCURVE",
"148 63 CURVE SMOOTH",
"128 63 OFFCURVE",
"114 49 OFFCURVE",
"114 28 CURVE SMOOTH",
"114 8 OFFCURVE",
"128 -6 OFFCURVE",
"148 -6 CURVE SMOOTH"
);
}
);
width = 409;
}
);
unicode = 0929;
},
{
glyphname = "pa-deva";
lastChange = "2014-11-09 11:38:28 +0000";
layers = (
{
anchors = (
{
name = bottom;
position = "{335, 5}";
},
{
name = top;
position = "{335, 447}";
}
);
annotations = (
{
position = "{485.730, 574.112}";
text = "98 units";
type = Text;
},
{
angle = 56.323;
position = "{471, 497}";
type = Arrow;
}
);
guideLines = (
{
angle = 90;
position = "{535, 52}";
}
);
layerId = "CFA4B904-E3F1-48B6-A7F6-47DC1FF2A3E1";
name = "Regular Italic";
paths = (
{
closed = 1;
nodes = (
"461 456 LINE",
"-24 456 LINE",
"-24 408 LINE",
"58 408 LINE",
"58 244 LINE SMOOTH",
"58 164 OFFCURVE",
"107 103 OFFCURVE",
"207 103 CURVE SMOOTH",
"241.988 103 OFFCURVE",
"280.061 112.253 OFFCURVE",
"307 120.481 CURVE",
"307 0 LINE",
"363 0 LINE",
"363 408 LINE",
"461 408 LINE"
);
},
{
closed = 1;
nodes = (
"307 173.472 LINE",
"281.4 163.614 OFFCURVE",
"244.634 153 OFFCURVE",
"205 153 CURVE SMOOTH",
"151 153 OFFCURVE",
"114 188 OFFCURVE",
"114 244 CURVE SMOOTH",
"114 408 LINE",
"307 408 LINE"
);
}
);
width = 437;
}
);
unicode = 092A;
},
{
glyphname = "pha-deva";
lastChange = "2014-11-09 11:38:32 +0000";
layers = (
{
anchors = (
{
name = bottom;
position = "{321, 5}";
},
{
name = top;
position = "{321, 447}";
}
);
background = {
paths = (
{
closed = 1;
nodes = (
"497 0 LINE",
"550 0 LINE",
"550 456 LINE",
"497 456 LINE"
);
},
{
closed = 1;
nodes = (
"216 456 LINE",
"216 408 LINE",
"813 408 LINE",
"813 456 LINE"
);
},
{
closed = 1;
nodes = (
"268 124 OFFCURVE",
"328 73 OFFCURVE",
"411 73 CURVE SMOOTH",
"473 73 OFFCURVE",
"506 100 OFFCURVE",
"533 118 CURVE",
"519 169 LINE",
"503 157 OFFCURVE",
"477 124 OFFCURVE",
"420 124 CURVE SMOOTH",
"361 124 OFFCURVE",
"324 151 OFFCURVE",
"324 205 CURVE SMOOTH",
"324 258 OFFCURVE",
"361 286 OFFCURVE",
"415 286 CURVE SMOOTH",
"467 286 OFFCURVE",
"503 253 OFFCURVE",
"519 241 CURVE",
"533 292 LINE",
"506 310 OFFCURVE",
"463 337 OFFCURVE",
"411 337 CURVE SMOOTH",
"328 337 OFFCURVE",
"268 286 OFFCURVE",
"268 205 CURVE SMOOTH"
);
},
{
closed = 1;
nodes = (
"754 280 OFFCURVE",
"700 333 OFFCURVE",
"617 333 CURVE SMOOTH",
"565 333 OFFCURVE",
"522 296 OFFCURVE",
"495 278 CURVE",
"509 227 LINE",
"525 239 OFFCURVE",
"567 282 OFFCURVE",
"613 282 CURVE SMOOTH",
"667 282 OFFCURVE",
"698 254 OFFCURVE",
"698 207 CURVE SMOOTH",
"698 156 OFFCURVE",
"661 128 OFFCURVE",
"632 101 CURVE",
"671 62 LINE",
"708 91 OFFCURVE",
"754 138 OFFCURVE",
"754 201 CURVE SMOOTH"
);
}
);
};
guideLines = (
{
angle = 90;
position = "{521, 51}";
}
);
layerId = "CFA4B904-E3F1-48B6-A7F6-47DC1FF2A3E1";
name = "Regular Italic";
paths = (
{
closed = 1;
nodes = (
"627 408 LINE",
"627 456 LINE",
"-24 456 LINE",
"-24 408 LINE",
"58 408 LINE",
"58 244 LINE SMOOTH",
"58 164 OFFCURVE",
"102 103 OFFCURVE",
"202 103 CURVE SMOOTH",
"232.691 103 OFFCURVE",
"266.941 110.12 OFFCURVE",
"294 117.422 CURVE",
"294 0 LINE",
"349 0 LINE",
"349 240.216 LINE",
"369.696 257.395 OFFCURVE",
"402.204 282 OFFCURVE",
"437 282 CURVE SMOOTH",
"491 282 OFFCURVE",
"522 254 OFFCURVE",
"522 207 CURVE SMOOTH",
"522 156 OFFCURVE",
"485 128 OFFCURVE",
"456 101 CURVE",
"495 62 LINE",
"532 91 OFFCURVE",
"578 138 OFFCURVE",
"578 201 CURVE SMOOTH",
"578 280 OFFCURVE",
"524 333 OFFCURVE",
"441 333 CURVE SMOOTH",
"405.352 333 OFFCURVE",
"373.933 317.491 OFFCURVE",
"349 301.938 CURVE",
"349 408 LINE"
);
},
{
closed = 1;
nodes = (
"294 169.71 LINE",
"268.125 161.094 OFFCURVE",
"234.61 153 OFFCURVE",
"200 153 CURVE SMOOTH",
"146 153 OFFCURVE",
"114 188 OFFCURVE",
"114 244 CURVE SMOOTH",
"114 408 LINE",
"294 408 LINE"
);
}
);
width = 603;
}
);
unicode = 092B;
},
{
glyphname = "ba-deva";
lastChange = "2014-11-09 11:38:36 +0000";
layers = (
{
anchors = (
{
name = bottom;
position = "{314, 5}";
},
{
name = top;
position = "{314, 447}";
}
);
annotations = (
{
position = "{462.376, 567.040}";
text = "98 units";
type = Text;
},
{
angle = 57.4126;
position = "{446.686, 494.869}";
type = Arrow;
}
);
background = {
paths = (
{
closed = 1;
nodes = (
"478 0 LINE",
"531 0 LINE",
"531 456 LINE",
"478 456 LINE"
);
},
{
closed = 1;
nodes = (
"176 456 LINE",
"176 408 LINE",
"629 408 LINE",
"629 456 LINE"
);
},
{
closed = 1;
nodes = (
"273 268 OFFCURVE",
"322 295 OFFCURVE",
"376 295 CURVE SMOOTH",
"428 295 OFFCURVE",
"464 273 OFFCURVE",
"480 261 CURVE",
"494 313 LINE",
"467 331 OFFCURVE",
"424 349 OFFCURVE",
"372 349 CURVE SMOOTH",
"294 349 OFFCURVE",
"218 296 OFFCURVE",
"218 205 CURVE SMOOTH",
"218 114 OFFCURVE",
"289 61 OFFCURVE",
"372 61 CURVE SMOOTH",
"424 61 OFFCURVE",
"467 82 OFFCURVE",
"494 100 CURVE",
"480 152 LINE",
"464 140 OFFCURVE",
"428 115 OFFCURVE",
"376 115 CURVE SMOOTH",
"322 115 OFFCURVE",
"273 142 OFFCURVE",
"273 205 CURVE SMOOTH"
);
},
{
closed = 1;
nodes = (
"277 279 OFFCURVE",
"465 99 OFFCURVE",
"465 99 CURVE SMOOTH",
"465 99 OFFCURVE",
"500 131 OFFCURVE",
"500 131 CURVE",
"315 307 LINE",
"277 279 LINE"
);
}
);
};
guideLines = (
{
angle = 90;
position = "{514, 112}";
}
);
layerId = "CFA4B904-E3F1-48B6-A7F6-47DC1FF2A3E1";
name = "Regular Italic";
paths = (
{
closed = 1;
nodes = (
"440 456 LINE",
"-24 456 LINE",
"-24 408 LINE",
"286 408 LINE",
"286 320.314 LINE",
"258.873 334.174 OFFCURVE",
"221.128 345 OFFCURVE",
"180 345 CURVE SMOOTH",
"102 345 OFFCURVE",
"30 296 OFFCURVE",
"30 205 CURVE SMOOTH",
"30 114 OFFCURVE",
"97 65 OFFCURVE",
"180 65 CURVE SMOOTH",
"222.69 65 OFFCURVE",
"259.315 77.1319 OFFCURVE",
"286 90.8824 CURVE",
"286 0 LINE",
"342 0 LINE",
"342 408 LINE",
"440 408 LINE"
);
},
{
closed = 1;
nodes = (
"233.936 295 OFFCURVE",
"269.116 274.712 OFFCURVE",
"286 262.475 CURVE",
"286 151.93 LINE",
"142.06 288.867 LINE",
"155.088 293.015 OFFCURVE",
"169.36 295 OFFCURVE",
"184 295 CURVE SMOOTH"
);
},
{
closed = 1;
nodes = (
"81 229.919 OFFCURVE",
"88.6664 249.206 OFFCURVE",
"101.276 263.417 CURVE",
"244.064 126.704 LINE",
"227.519 120.052 OFFCURVE",
"207.376 115 OFFCURVE",
"184 115 CURVE SMOOTH",
"130 115 OFFCURVE",
"81 142 OFFCURVE",
"81 205 CURVE"
);
}
);
width = 413;
}
);
unicode = 092C;
},
{
glyphname = "bha-deva";
lastChange = "2014-11-09 11:38:40 +0000";
layers = (
{
anchors = (
{
name = bottom;
position = "{404, 5}";
},
{
name = top;
position = "{404, 447}";
}
);
annotations = (
{
position = "{566.826, 597.739}";
text = "98 units";
type = Text;
},
{
angle = 59.4482;
position = "{542, 512}";
type = Arrow;
}
);
guideLines = (
{
angle = 90;
position = "{604, 71}";
}
);
layerId = "CFA4B904-E3F1-48B6-A7F6-47DC1FF2A3E1";
name = "Regular Italic";
paths = (
{
closed = 1;
nodes = (
"530 456 LINE",
"280 456 LINE",
"280 408 LINE",
"376 408 LINE",
"376 199 LINE",
"213 199 LINE",
"213 320 LINE SMOOTH",
"213 412 OFFCURVE",
"188 466 OFFCURVE",
"117 466 CURVE SMOOTH",
"72 466 OFFCURVE",
"31 434 OFFCURVE",
"31 379 CURVE SMOOTH",
"31 343 OFFCURVE",
"55 306 OFFCURVE",
"104 280 CURVE",
"131 321 LINE",
"107 335 OFFCURVE",
"84 351 OFFCURVE",
"84 379 CURVE SMOOTH",
"84 399 OFFCURVE",
"98 413 OFFCURVE",
"117 413 CURVE SMOOTH",
"163 413 OFFCURVE",
"158 339 OFFCURVE",
"158 320 CURVE SMOOTH",
"158 199 LINE",
"94 199 LINE",
"94 166 LINE",
"175 70 LINE",
"213 70 LINE",
"213 151 LINE",
"376 151 LINE",
"376 0 LINE",
"432 0 LINE",
"432 408 LINE",
"530 408 LINE"
);
}
);
width = 506;
}
);
unicode = 092D;
},
{
glyphname = "ma-deva";
lastChange = "2014-11-09 11:38:44 +0000";
layers = (
{
anchors = (
{
name = bottom;
position = "{361, 5}";
},
{
name = top;
position = "{361, 447}";
}
);
annotations = (
{
position = "{520.253, 565.838}";
text = "98 units";
type = Text;
},
{
angle = 60.7319;
position = "{497, 491}";
type = Arrow;
}
);
background = {
paths = (
{
closed = 1;
nodes = (
"533 0 LINE",
"589 0 LINE",
"589 456 LINE",
"533 456 LINE"
);
},
{
closed = 1;
nodes = (
"296 140 LINE",
"351 140 LINE",
"351 456 LINE",
"296 456 LINE"
);
},
{
closed = 1;
nodes = (
"176 456 LINE",
"176 408 LINE",
"687 408 LINE",
"687 456 LINE"
);
},
{
closed = 1;
nodes = (
"234 204 LINE",
"234 171 LINE",
"313 76 LINE",
"313 76 OFFCURVE",
"351 76 OFFCURVE",
"351 76 CURVE",
"351 204 LINE"
);
},
{
closed = 1;
nodes = (
"319 204 LINE",
"319 156 LINE",
"579 156 LINE",
"579 204 LINE"
);
}
);
};
guideLines = (
{
angle = 90;
position = "{561, 81}";
}
);
layerId = "CFA4B904-E3F1-48B6-A7F6-47DC1FF2A3E1";
name = "Regular Italic";
paths = (
{
closed = 1;
nodes = (
"487 456 LINE",
"-24 456 LINE",
"-24 408 LINE",
"96 408 LINE",
"96 204 LINE",
"34 204 LINE",
"34 171 LINE",
"113 76 LINE",
"151 76 LINE",
"151 156 LINE",
"333 156 LINE",
"333 0 LINE",
"389 0 LINE",
"389 408 LINE",
"487 408 LINE"
);
},
{
closed = 1;
nodes = (
"333 204 LINE",
"151 204 LINE",
"151 408 LINE",
"333 408 LINE"
);
}
);
width = 463;
}
);
unicode = 092E;
},
{
glyphname = "ya-deva";
lastChange = "2014-11-09 11:38:51 +0000";
layers = (
{
anchors = (
{
name = bottom;
position = "{343, 5}";
},
{
name = top;
position = "{343, 447}";
}
);
annotations = (
{
position = "{475.462, 601.882}";
text = "98 units";
type = Text;
},
{
angle = 59.5794;
position = "{457, 503}";
type = Arrow;
}
);
background = {
paths = (
{
closed = 1;
nodes = (
"515 0 LINE",
"571 0 LINE",
"571 456 LINE",
"515 456 LINE"
);
},
{
closed = 1;
nodes = (
"176 456 LINE",
"176 408 LINE",
"669 408 LINE",
"669 456 LINE"
);
},
{
closed = 1;
nodes = (
"512 161 OFFCURVE",
"459 138 OFFCURVE",
"408 138 CURVE SMOOTH",
"367 138 OFFCURVE",
"326 153 OFFCURVE",
"301 183 CURVE",
"339 211 OFFCURVE",
"376 244 OFFCURVE",
"376 306 CURVE SMOOTH",
"376 356 OFFCURVE",
"348 414 OFFCURVE",
"294 456 CURVE",
"226 456 LINE",
"286 414 OFFCURVE",
"323 356 OFFCURVE",
"323 307 CURVE SMOOTH",
"323 258 OFFCURVE",
"277 230 OFFCURVE",
"245 213 CURVE",
"234 182 LINE",
"261 136 OFFCURVE",
"322 84 OFFCURVE",
"413 84 CURVE SMOOTH",
"485 84 OFFCURVE",
"538 127 OFFCURVE",
"538 127 CURVE",
"538 206 LINE"
);
}
);
};
guideLines = (
{
angle = 90;
position = "{543, 43}";
}
);
layerId = "CFA4B904-E3F1-48B6-A7F6-47DC1FF2A3E1";
name = "Regular Italic";
paths = (
{
closed = 1;
nodes = (
"469 456 LINE",
"-24 456 LINE",
"-24 408 LINE",
"79.1794 408 LINE",
"107.075 375.166 OFFCURVE",
"123 339.146 OFFCURVE",
"123 307 CURVE SMOOTH",
"123 258 OFFCURVE",
"77 230 OFFCURVE",
"45 213 CURVE",
"34 184 LINE",
"61 138 OFFCURVE",
"122 84 OFFCURVE",
"213 84 CURVE SMOOTH",
"256.372 84 OFFCURVE",
"292.849 99.6035 OFFCURVE",
"315 112.012 CURVE",
"315 0 LINE",
"371 0 LINE",
"371 408 LINE",
"469 408 LINE"
);
},
{
closed = 1;
nodes = (
"315 174.692 LINE",
"286.661 149.126 OFFCURVE",
"246.753 137 OFFCURVE",
"208 137 CURVE SMOOTH",
"167 137 OFFCURVE",
"130 155 OFFCURVE",
"105 182 CURVE",
"142 211 OFFCURVE",
"178 244 OFFCURVE",
"178 306 CURVE SMOOTH",
"178 338.816 OFFCURVE",
"165.939 375.077 OFFCURVE",
"142.383 408 CURVE",
"315 408 LINE"
);
}
);
width = 445;
}
);
unicode = 092F;
},
{
glyphname = "ra-deva";
lastChange = "2014-11-09 11:38:55 +0000";
layers = (
{
anchors = (
{
name = bottom;
position = "{166, -40}";
},
{
name = top;
position = "{123, 447}";
}
);
background = {
paths = (
{
closed = 1;
nodes = (
"182 456 LINE",
"182 408 LINE",
"501 408 LINE",
"501 456 LINE"
);
},
{
closed = 1;
nodes = (
"287 427 OFFCURVE",
"358 403 OFFCURVE",
"358 306 CURVE SMOOTH",
"358 209 OFFCURVE",
"244 206 OFFCURVE",
"244 206 CURVE SMOOTH",
"244 206 OFFCURVE",
"266 157 OFFCURVE",
"266 157 CURVE",
"305 157 OFFCURVE",
"412 191 OFFCURVE",
"412 304 CURVE SMOOTH",
"412 412 OFFCURVE",
"339 443 OFFCURVE",
"339 443 CURVE",
"287 427 LINE"
);
},
{
closed = 1;
nodes = (
"214 212 OFFCURVE",
"386 -18 OFFCURVE",
"386 -18 CURVE SMOOTH",
"386 -18 OFFCURVE",
"433 14 OFFCURVE",
"433 14 CURVE",
"255 244 LINE",
"214 212 LINE"
);
}
);
};
layerId = "CFA4B904-E3F1-48B6-A7F6-47DC1FF2A3E1";
name = "Regular Italic";
paths = (
{
closed = 1;
nodes = (
"298 456 LINE",
"-24 456 LINE",
"-24 408 LINE",
"117.142 408 LINE",
"136.485 390.672 OFFCURVE",
"158 359.397 OFFCURVE",
"158 306 CURVE SMOOTH",
"158 245.331 OFFCURVE",
"113.403 221.434 OFFCURVE",
"79.9968 212.044 CURVE",
"55 244 LINE",
"14 212 LINE",
"14 212 OFFCURVE",
"184 -12.9999 OFFCURVE",
"184 -12.9999 CURVE",
"231 19 LINE",
"114.879 167.45 LINE",
"159.682 184.597 OFFCURVE",
"212 224.985 OFFCURVE",
"212 304 CURVE SMOOTH",
"212 353.194 OFFCURVE",
"196.854 386.411 OFFCURVE",
"180.36 408 CURVE",
"298 408 LINE"
);
}
);
width = 274;
}
);
unicode = 0930;
},
{
glyphname = "rra-deva";
lastChange = "2014-11-09 11:39:03 +0000";
layers = (
{
anchors = (
{
name = bottom;
position = "{166, -40}";
},
{
name = top;
position = "{123, 447}";
}
);
layerId = "CFA4B904-E3F1-48B6-A7F6-47DC1FF2A3E1";
name = "Regular Italic";
paths = (
{
closed = 1;
nodes = (
"298 456 LINE",
"-24 456 LINE",
"-24 408 LINE",
"117.142 408 LINE",
"136.485 390.672 OFFCURVE",
"158 359.397 OFFCURVE",
"158 306 CURVE SMOOTH",
"158 245.331 OFFCURVE",
"113.403 221.434 OFFCURVE",
"79.9968 212.044 CURVE",
"55 244 LINE",
"14 212 LINE",
"14 212 OFFCURVE",
"184 -12.9999 OFFCURVE",
"184 -12.9999 CURVE",
"231 19 LINE",
"114.879 167.45 LINE",
"159.682 184.597 OFFCURVE",
"212 224.985 OFFCURVE",
"212 304 CURVE SMOOTH",
"212 353.194 OFFCURVE",
"196.854 386.411 OFFCURVE",
"180.36 408 CURVE",
"298 408 LINE"
);
},
{
closed = 1;
nodes = (
"59 -5 OFFCURVE",
"73 9 OFFCURVE",
"73 29 CURVE SMOOTH",
"73 50 OFFCURVE",
"59 64 OFFCURVE",
"38 64 CURVE SMOOTH",
"18 64 OFFCURVE",
"4 50 OFFCURVE",
"4 29 CURVE SMOOTH",
"4 9 OFFCURVE",
"18 -5 OFFCURVE",
"38 -5 CURVE SMOOTH"
);
}
);
width = 274;
}
);
unicode = 0931;
},
{
glyphname = "la-deva";
lastChange = "2014-11-09 11:39:06 +0000";
layers = (
{
anchors = (
{
name = bottom;
position = "{436, 5}";
},
{
name = top;
position = "{436, 447}";
}
);
annotations = (
{
position = "{591.678, 568.614}";
text = "98 units";
type = Text;
},
{
angle = 52.08;
position = "{568, 493}";
type = Arrow;
}
);
guideLines = (
{
angle = 90;
position = "{636, 393}";
}
);
layerId = "CFA4B904-E3F1-48B6-A7F6-47DC1FF2A3E1";
name = "Regular Italic";
paths = (
{
closed = 1;
nodes = (
"562 456 LINE",
"-24 456 LINE",
"-24 408 LINE",
"408 408 LINE",
"408 301.92 LINE",
"392.68 307.013 OFFCURVE",
"378.347 308 OFFCURVE",
"365 308 CURVE SMOOTH",
"328.439 308 OFFCURVE",
"292.493 295.112 OFFCURVE",
"267.699 266.276 CURVE",
"246.277 291.098 OFFCURVE",
"215.239 310 OFFCURVE",
"177 310 CURVE SMOOTH",
"94 310 OFFCURVE",
"44 253 OFFCURVE",
"44 172 CURVE SMOOTH",
"44 74 OFFCURVE",
"137 -12 OFFCURVE",
"137 -12 CURVE",
"190 11 LINE",
"167 36 OFFCURVE",
"101 102 OFFCURVE",
"101 172 CURVE SMOOTH",
"101 221 OFFCURVE",
"129 256 OFFCURVE",
"176 256 CURVE SMOOTH",
"206.506 256 OFFCURVE",
"227.757 232.384 OFFCURVE",
"240.474 211.834 CURVE",
"236.934 197.638 OFFCURVE",
"235 181.725 OFFCURVE",
"235 164 CURVE SMOOTH",
"235 154 OFFCURVE",
"237 128 OFFCURVE",
"239 118 CURVE",
"292 110 LINE",
"291 120 OFFCURVE",
"288 140 OFFCURVE",
"288 162 CURVE SMOOTH",
"288 217 OFFCURVE",
"313 256 OFFCURVE",
"369 255 CURVE SMOOTH",
"383 255 OFFCURVE",
"396.058 251.864 OFFCURVE",
"408 246.646 CURVE",
"408 0 LINE",
"464 0 LINE",
"464 408 LINE",
"562 408 LINE"
);
}
);
width = 538;
}
);
unicode = 0932;
},
{
glyphname = "lla-deva";
lastChange = "2014-11-09 11:39:10 +0000";
layers = (
{
anchors = (
{
name = bottom;
position = "{406, 5}";
},
{
name = top;
position = "{413, 447}";
}
);
background = {
paths = (
{
closed = 1;
nodes = (
"596 280 LINE",
"649 280 LINE",
"649 456 LINE",
"596 456 LINE"
);
},
{
closed = 1;
nodes = (
"176 456 LINE",
"176 408 LINE",
"813 408 LINE",
"813 456 LINE"
);
},
{
closed = 1;
nodes = (
"451 135 OFFCURVE",
"425 85 OFFCURVE",
"369 85 CURVE SMOOTH",
"332 85 OFFCURVE",
"310 127 OFFCURVE",
"310 167 CURVE SMOOTH",
"310 211 OFFCURVE",
"334 247 OFFCURVE",
"373 247 CURVE SMOOTH",
"420 247 OFFCURVE",
"446 190 OFFCURVE",
"468 150 CURVE",
"500 199 LINE",
"477 242 OFFCURVE",
"441 302 OFFCURVE",
"374 302 CURVE SMOOTH",
"291 302 OFFCURVE",
"253 239 OFFCURVE",
"253 167 CURVE SMOOTH",
"253 95 OFFCURVE",
"292 33 OFFCURVE",
"370 33 CURVE SMOOTH",
"434 33 OFFCURVE",
"471 62 OFFCURVE",
"515 147 CURVE SMOOTH",
"541 197 OFFCURVE",
"562 247 OFFCURVE",
"618 247 CURVE SMOOTH",
"655 247 OFFCURVE",
"680 211 OFFCURVE",
"680 166 CURVE SMOOTH",
"680 127 OFFCURVE",
"659 84 OFFCURVE",
"617 84 CURVE SMOOTH",
"570 84 OFFCURVE",
"537 152 OFFCURVE",
"520 186 CURVE",
"490 134 LINE",
"513 91 OFFCURVE",
"549 31 OFFCURVE",
"616 31 CURVE SMOOTH",
"694 31 OFFCURVE",
"736 95 OFFCURVE",
"736 167 CURVE SMOOTH",
"736 239 OFFCURVE",
"695 300 OFFCURVE",
"617 300 CURVE SMOOTH",
"560 300 OFFCURVE",
"517 271 OFFCURVE",
"474 185 CURVE SMOOTH"
);
}
);
};
guideLines = (
{
position = "{200, 302}";
},
{
position = "{200, 246}";
},
{
position = "{200, 162}";
},
{
position = "{200, 253}";
},
{
position = "{200, 88}";
},
{
position = "{201, 33}";
}
);
layerId = "CFA4B904-E3F1-48B6-A7F6-47DC1FF2A3E1";
name = "Regular Italic";
paths = (
{
closed = 1;
nodes = (
"593 408 LINE",
"593 456 LINE",
"-24 456 LINE",
"-24 408 LINE",
"386 408 LINE",
"386 298.529 LINE",
"346.038 292.614 OFFCURVE",
"314.294 268.179 OFFCURVE",
"282.192 213.216 CURVE",
"258.985 254.093 OFFCURVE",
"223.869 302 OFFCURVE",
"164 302 CURVE SMOOTH",
"81 302 OFFCURVE",
"43 239 OFFCURVE",
"43 167 CURVE SMOOTH",
"43 95 OFFCURVE",
"82 33 OFFCURVE",
"160 33 CURVE SMOOTH",
"216.657 33 OFFCURVE",
"249.803 56.5114 OFFCURVE",
"287.189 120.877 CURVE",
"310.39 79.7661 OFFCURVE",
"345.597 31 OFFCURVE",
"406 31 CURVE SMOOTH",
"484 31 OFFCURVE",
"526 95 OFFCURVE",
"526 167 CURVE SMOOTH",
"526 228.411 OFFCURVE",
"496.172 281.819 OFFCURVE",
"439 296.2 CURVE",
"439 408 LINE"
);
},
{
closed = 1;
nodes = (
"118 82 OFFCURVE",
"96.9999 123 OFFCURVE",
"96.9999 167 CURVE SMOOTH",
"96.9999 213 OFFCURVE",
"120 250 OFFCURVE",
"163 250 CURVE SMOOTH",
"207.217 250 OFFCURVE",
"233.733 199.55 OFFCURVE",
"255.036 160.268 CURVE",
"233.7 118.96 OFFCURVE",
"205.764 82 OFFCURVE",
"159 82 CURVE SMOOTH"
);
},
{
closed = 1;
nodes = (
"473 121 OFFCURVE",
"451 81 OFFCURVE",
"407 81 CURVE SMOOTH",
"365.192 81 OFFCURVE",
"332.879 135.598 OFFCURVE",
"314.284 171.592 CURVE",
"336.365 213.107 OFFCURVE",
"360.831 250 OFFCURVE",
"408 250 CURVE SMOOTH",
"447 250 OFFCURVE",
"473 215 OFFCURVE",
"473 166 CURVE SMOOTH"
);
}
);
width = 569;
}
);
unicode = 0933;
},
{
glyphname = "llla-deva";
lastChange = "2014-11-09 11:39:16 +0000";
layers = (
{
anchors = (
{
name = bottom;
position = "{406, 5}";
},
{
name = top;
position = "{413, 447}";
}
);
layerId = "CFA4B904-E3F1-48B6-A7F6-47DC1FF2A3E1";
name = "Regular Italic";
paths = (
{
closed = 1;
nodes = (
"593 408 LINE",
"593 456 LINE",
"-24 456 LINE",
"-24 408 LINE",
"386 408 LINE",
"386 298.529 LINE",
"346.038 292.614 OFFCURVE",
"314.294 268.179 OFFCURVE",
"282.192 213.216 CURVE",
"258.985 254.093 OFFCURVE",
"223.869 302 OFFCURVE",
"164 302 CURVE SMOOTH",
"81 302 OFFCURVE",
"43 239 OFFCURVE",
"43 167 CURVE SMOOTH",
"43 95 OFFCURVE",
"82 33 OFFCURVE",
"160 33 CURVE SMOOTH",
"216.657 33 OFFCURVE",
"249.803 56.5114 OFFCURVE",
"287.189 120.877 CURVE",
"310.39 79.7661 OFFCURVE",
"345.597 31 OFFCURVE",
"406 31 CURVE SMOOTH",
"484 31 OFFCURVE",
"526 95 OFFCURVE",
"526 167 CURVE SMOOTH",
"526 228.411 OFFCURVE",
"496.172 281.819 OFFCURVE",
"439 296.2 CURVE",
"439 408 LINE"
);
},
{
closed = 1;
nodes = (
"118 82 OFFCURVE",
"96.9999 123 OFFCURVE",
"96.9999 167 CURVE SMOOTH",
"96.9999 213 OFFCURVE",
"120 250 OFFCURVE",
"163 250 CURVE SMOOTH",
"207.217 250 OFFCURVE",
"233.733 199.55 OFFCURVE",
"255.036 160.268 CURVE",
"233.7 118.96 OFFCURVE",
"205.764 82 OFFCURVE",
"159 82 CURVE SMOOTH"
);
},
{
closed = 1;
nodes = (
"473 121 OFFCURVE",
"451 81 OFFCURVE",
"407 81 CURVE SMOOTH",
"365.192 81 OFFCURVE",
"332.879 135.598 OFFCURVE",
"314.284 171.592 CURVE",
"336.365 213.107 OFFCURVE",
"360.831 250 OFFCURVE",
"408 250 CURVE SMOOTH",
"447 250 OFFCURVE",
"473 215 OFFCURVE",
"473 166 CURVE SMOOTH"
);
},
{
closed = 1;
nodes = (
"306 -43 OFFCURVE",
"320 -29 OFFCURVE",
"320 -9 CURVE SMOOTH",
"320 12 OFFCURVE",
"306 26 OFFCURVE",
"285 26 CURVE SMOOTH",
"265 26 OFFCURVE",
"251 12 OFFCURVE",
"251 -9 CURVE SMOOTH",
"251 -29 OFFCURVE",
"265 -43 OFFCURVE",
"285 -43 CURVE SMOOTH"
);
}
);
width = 569;
}
);
unicode = 0934;
},
{
glyphname = "va-deva";
lastChange = "2014-11-09 11:39:21 +0000";
layers = (
{
anchors = (
{
name = bottom;
position = "{309, 5}";
},
{
name = top;
position = "{309, 447}";
}
);
annotations = (
{
position = "{454.220, 557.392}";
text = "98 units";
type = Text;
},
{
angle = 63.9747;
position = "{452, 482}";
type = Arrow;
}
);
background = {
paths = (
{
closed = 1;
nodes = (
"486 0 LINE",
"539 0 LINE",
"539 456 LINE",
"486 456 LINE"
);
},
{
closed = 1;
nodes = (
"176 456 LINE",
"176 408 LINE",
"637 408 LINE",
"637 456 LINE"
);
},
{
closed = 1;
nodes = (
"284 264 OFFCURVE",
"330 289 OFFCURVE",
"384 289 CURVE SMOOTH",
"436 289 OFFCURVE",
"472 269 OFFCURVE",
"488 257 CURVE",
"502 309 LINE",
"475 327 OFFCURVE",
"432 343 OFFCURVE",
"380 343 CURVE SMOOTH",
"297 343 OFFCURVE",
"228 292 OFFCURVE",
"228 201 CURVE SMOOTH",
"228 110 OFFCURVE",
"297 59 OFFCURVE",
"380 59 CURVE SMOOTH",
"432 59 OFFCURVE",
"475 78 OFFCURVE",
"502 96 CURVE",
"488 148 LINE",
"472 136 OFFCURVE",
"436 113 OFFCURVE",
"384 113 CURVE SMOOTH",
"330 113 OFFCURVE",
"284 138 OFFCURVE",
"284 201 CURVE SMOOTH"
);
}
);
};
guideLines = (
{
angle = 90;
position = "{509, 157}";
}
);
layerId = "CFA4B904-E3F1-48B6-A7F6-47DC1FF2A3E1";
name = "Regular Italic";
paths = (
{
closed = 1;
nodes = (
"435 456 LINE",
"-24 456 LINE",
"-24 408 LINE",
"281 408 LINE",
"281 316.586 LINE",
"254.315 329.542 OFFCURVE",
"217.69 341 OFFCURVE",
"175 341 CURVE SMOOTH",
"95 341 OFFCURVE",
"30 292 OFFCURVE",
"30 201 CURVE SMOOTH",
"30 110 OFFCURVE",
"95 61 OFFCURVE",
"175 61 CURVE SMOOTH",
"217.69 61 OFFCURVE",
"254.315 73.1319 OFFCURVE",
"281 87.4357 CURVE",
"281 0 LINE",
"337 0 LINE",
"337 408 LINE",
"435 408 LINE"
);
},
{
closed = 1;
nodes = (
"128 113 OFFCURVE",
"84 138 OFFCURVE",
"84 201 CURVE SMOOTH",
"84 264 OFFCURVE",
"128 289 OFFCURVE",
"179 289 CURVE SMOOTH",
"228.936 289 OFFCURVE",
"264.116 270.556 OFFCURVE",
"281 258.465 CURVE",
"281 146.521 LINE",
"264.116 134.21 OFFCURVE",
"228.936 113 OFFCURVE",
"179 113 CURVE SMOOTH"
);
}
);
width = 411;
}
);
unicode = 0935;
},
{
glyphname = "sha-deva";
lastChange = "2014-11-09 11:39:25 +0000";
layers = (
{
anchors = (
{
name = bottom;
position = "{441, 5}";
},
{
name = top;
position = "{441, 447}";
}
);
annotations = (
{
position = "{553.812, 555.842}";
text = "98 units";
type = Text;
},
{
angle = 49.5976;
position = "{538, 486}";
type = Arrow;
}
);
background = {
paths = (
{
closed = 1;
nodes = (
"482 414 OFFCURVE",
"429 466 OFFCURVE",
"365 466 CURVE SMOOTH",
"306 466 OFFCURVE",
"262 425 OFFCURVE",
"262 368 CURVE SMOOTH",
"262 329 OFFCURVE",
"285 297 OFFCURVE",
"334 268 CURVE",
"363 311 LINE",
"339 326 OFFCURVE",
"315 343 OFFCURVE",
"315 368 CURVE SMOOTH",
"315 398 OFFCURVE",
"337 413 OFFCURVE",
"365 413 CURVE SMOOTH",
"401 413 OFFCURVE",
"429 379 OFFCURVE",
"429 329 CURVE SMOOTH",
"429 233 OFFCURVE",
"327 193 OFFCURVE",
"292 174 CURVE",
"334 137 LINE",
"397 175 OFFCURVE",
"482 223 OFFCURVE",
"482 332 CURVE SMOOTH"
);
},
{
closed = 1;
nodes = (
"230 155 OFFCURVE",
"261 130 OFFCURVE",
"305 131 CURVE",
"443 -15 LINE",
"443 -15 OFFCURVE",
"481 21 OFFCURVE",
"481 21 CURVE",
"270 239 LINE",
"243 230 OFFCURVE",
"230 211 OFFCURVE",
"230 191 CURVE SMOOTH"
);
},
{
closed = 1;
nodes = (
"514 456 LINE",
"514 408 LINE",
"760 408 LINE",
"760 456 LINE"
);
},
{
closed = 1;
nodes = (
"606 0 LINE",
"662 0 LINE",
"662 456 LINE",
"606 456 LINE"
);
}
);
};
guideLines = (
{
angle = 90;
position = "{641, 175}";
}
);
layerId = "CFA4B904-E3F1-48B6-A7F6-47DC1FF2A3E1";
name = "Regular Italic";
paths = (
{
closed = 1;
nodes = (
"289 414 OFFCURVE",
"236 466 OFFCURVE",
"172 466 CURVE SMOOTH",
"113 466 OFFCURVE",
"69 425 OFFCURVE",
"69 368 CURVE SMOOTH",
"69 329 OFFCURVE",
"92 297 OFFCURVE",
"141 268 CURVE",
"170 311 LINE",
"146 326 OFFCURVE",
"122 343 OFFCURVE",
"122 368 CURVE SMOOTH",
"122 398 OFFCURVE",
"144 413 OFFCURVE",
"172 413 CURVE SMOOTH",
"208 413 OFFCURVE",
"233 379 OFFCURVE",
"236 329 CURVE SMOOTH",
"240.034 251.556 OFFCURVE",
"174.433 210.556 OFFCURVE",
"130.548 187.624 CURVE",
"82 239 LINE",
"55 230 OFFCURVE",
"42 211 OFFCURVE",
"42 191 CURVE SMOOTH",
"42 155 OFFCURVE",
"73 130 OFFCURVE",
"117 131 CURVE",
"250 -14.9995 LINE",
"288 21 LINE",
"166.554 149.521 LINE",
"225.107 185.897 OFFCURVE",
"289 234.589 OFFCURVE",
"289 332 CURVE"
);
},
{
closed = 1;
nodes = (
"567 456 LINE",
"321 456 LINE",
"321 408 LINE",
"413 408 LINE",
"413 0 LINE",
"469 0 LINE",
"469 408 LINE",
"567 408 LINE"
);
}
);
width = 543;
}
);
unicode = 0936;
},
{
glyphname = "ssa-deva";
lastChange = "2014-11-09 11:39:28 +0000";
layers = (
{
anchors = (
{
name = bottom;
position = "{343, 5}";
},
{
name = top;
position = "{343, 447}";
}
);
annotations = (
{
position = "{523.437, 553.178}";
text = "98 units";
type = Text;
},
{
angle = 46.1312;
position = "{501, 482}";
type = Arrow;
}
);
guideLines = (
{
angle = 90;
position = "{543, 69}";
}
);
layerId = "CFA4B904-E3F1-48B6-A7F6-47DC1FF2A3E1";
name = "Regular Italic";
paths = (
{
closed = 1;
nodes = (
"469 456 LINE",
"-24 456 LINE",
"-24 408 LINE",
"58 408 LINE",
"58 244 LINE SMOOTH",
"58 164 OFFCURVE",
"107 103 OFFCURVE",
"207 103 CURVE SMOOTH",
"245.614 103 OFFCURVE",
"287.984 114.27 OFFCURVE",
"315 122.995 CURVE",
"315 0 LINE",
"371 0 LINE",
"371 408 LINE",
"469 408 LINE"
);
},
{
closed = 1;
nodes = (
"315 193.903 LINE",
"139.984 408 LINE",
"315 408 LINE"
);
},
{
closed = 1;
nodes = (
"151 153 OFFCURVE",
"114 188 OFFCURVE",
"114 244 CURVE SMOOTH",
"114 341 LINE SMOOTH",
"114 349.257 OFFCURVE",
"113.263 358.582 OFFCURVE",
"112.071 368.262 CURVE",
"281.386 164.767 LINE",
"259.254 158.235 OFFCURVE",
"232.835 153 OFFCURVE",
"205 153 CURVE SMOOTH"
);
}
);
width = 445;
}
);
unicode = 0937;
},
{
glyphname = "sa-deva";
lastChange = "2014-11-09 11:39:32 +0000";
layers = (
{
anchors = (
{
name = bottom;
position = "{411, 5}";
},
{
name = top;
position = "{411, 447}";
}
);
annotations = (
{
position = "{575.675, 567.300}";
text = "98 units";
type = Text;
},
{
angle = 51.7775;
position = "{556, 488}";
type = Arrow;
}
);
background = {
paths = (
{
closed = 1;
nodes = (
"281 427 OFFCURVE",
"352 403 OFFCURVE",
"352 306 CURVE SMOOTH",
"352 209 OFFCURVE",
"238 206 OFFCURVE",
"238 206 CURVE SMOOTH",
"238 206 OFFCURVE",
"260 157 OFFCURVE",
"260 157 CURVE",
"299 157 OFFCURVE",
"406 191 OFFCURVE",
"406 304 CURVE SMOOTH",
"406 412 OFFCURVE",
"333 443 OFFCURVE",
"333 443 CURVE",
"281 427 LINE"
);
},
{
closed = 1;
nodes = (
"208 212 OFFCURVE",
"380 -18 OFFCURVE",
"380 -18 CURVE SMOOTH",
"380 -18 OFFCURVE",
"427 14 OFFCURVE",
"427 14 CURVE",
"249 244 LINE",
"208 212 LINE"
);
},
{
closed = 1;
nodes = (
"579 0 LINE",
"635 0 LINE",
"635 456 LINE",
"579 456 LINE"
);
},
{
closed = 1;
nodes = (
"599 237 OFFCURVE",
"556 216 OFFCURVE",
"473 216 CURVE SMOOTH",
"437 216 OFFCURVE",
"381 220 OFFCURVE",
"335 239 CURVE",
"311 192 LINE",
"369 172 OFFCURVE",
"420 162 OFFCURVE",
"462 162 CURVE SMOOTH",
"548 162 OFFCURVE",
"599 180 OFFCURVE",
"599 180 CURVE",
"599 237 LINE"
);
},
{
closed = 1;
nodes = (
"176 456 LINE",
"176 408 LINE",
"733 408 LINE",
"733 456 LINE"
);
},
{
closed = 1;
nodes = (
"579 0 LINE",
"635 0 LINE",
"635 456 LINE",
"579 456 LINE"
);
}
);
};
guideLines = (
{
angle = 90;
position = "{611, 310}";
}
);
layerId = "CFA4B904-E3F1-48B6-A7F6-47DC1FF2A3E1";
name = "Regular Italic";
paths = (
{
closed = 1;
nodes = (
"537 456 LINE",
"-24 456 LINE",
"-24 408 LINE",
"117.142 408 LINE",
"136.485 390.672 OFFCURVE",
"158 359.397 OFFCURVE",
"158 306 CURVE SMOOTH",
"158 245.198 OFFCURVE",
"113.209 221.33 OFFCURVE",
"79.7787 211.983 CURVE",
"55 244 LINE",
"14 212 LINE",
"14 212 OFFCURVE",
"186 -18 OFFCURVE",
"186 -18 CURVE",
"233 14 LINE",
"114.388 167.263 LINE",
"124.638 171.152 OFFCURVE",
"135.295 176.258 OFFCURVE",
"145.638 182.765 CURVE",
"191.886 168.922 OFFCURVE",
"233.058 162 OFFCURVE",
"268 162 CURVE SMOOTH",
"321.782 162 OFFCURVE",
"361.094 169.039 OFFCURVE",
"383 174.314 CURVE",
"383 0 LINE",
"439 0 LINE",
"439 408 LINE",
"537 408 LINE"
);
},
{
closed = 1;
nodes = (
"383 229.53 LINE",
"363.181 223.495 OFFCURVE",
"328.586 216 OFFCURVE",
"279 216 CURVE SMOOTH",
"255.02 216 OFFCURVE",
"222.167 217.775 OFFCURVE",
"189.306 224.575 CURVE",
"203.016 245.147 OFFCURVE",
"212 271.257 OFFCURVE",
"212 304 CURVE SMOOTH",
"212 353.193 OFFCURVE",
"196.854 386.41 OFFCURVE",
"180.36 408 CURVE",
"383 408 LINE"
);
}
);
width = 513;
}
);
unicode = 0938;
},
{
glyphname = "ha-deva";
lastChange = "2014-11-09 11:39:35 +0000";
layers = (
{
anchors = (
{
name = bottom;
position = "{230, -56}";
},
{
name = top;
position = "{280, 447}";
}
);
background = {
paths = (
{
closed = 1;
nodes = (
"176 456 LINE",
"176 408 LINE",
"622 408 LINE",
"622 456 LINE"
);
},
{
closed = 1;
nodes = (
"346 203 OFFCURVE",
"321 222 OFFCURVE",
"321 251 CURVE SMOOTH",
"321 284 OFFCURVE",
"347 297 OFFCURVE",
"400 297 CURVE SMOOTH",
"454 297 OFFCURVE",
"465 292 OFFCURVE",
"500 288 CURVE",
"510 295 LINE",
"510 456 LINE",
"454 456 LINE",
"454 344 LINE",
"428 347 OFFCURVE",
"426 348 OFFCURVE",
"393 348 CURVE SMOOTH",
"320 348 OFFCURVE",
"265 319 OFFCURVE",
"265 251 CURVE SMOOTH",
"265 226 OFFCURVE",
"273 200 OFFCURVE",
"304 167 CURVE",
"347 203 LINE"
);
},
{
closed = 1;
nodes = (
"255 4 OFFCURVE",
"347 -60 OFFCURVE",
"491 -60 CURVE",
"503 -10 LINE",
"396 -10 OFFCURVE",
"308 26 OFFCURVE",
"308 90 CURVE SMOOTH",
"308 139 OFFCURVE",
"347 177 OFFCURVE",
"419 177 CURVE",
"470 175 OFFCURVE",
"489 150 OFFCURVE",
"489 120 CURVE SMOOTH",
"489 101 OFFCURVE",
"475 88 OFFCURVE",
"467 79 CURVE",
"508 50 LINE",
"530 70 OFFCURVE",
"542 96 OFFCURVE",
"542 119 CURVE SMOOTH",
"542 190 OFFCURVE",
"492 225 OFFCURVE",
"417 225 CURVE SMOOTH",
"385 225 OFFCURVE",
"352 219 OFFCURVE",
"326 206 CURVE SMOOTH",
"284 185 OFFCURVE",
"255 140 OFFCURVE",
"255 88 CURVE SMOOTH"
);
}
);
};
layerId = "CFA4B904-E3F1-48B6-A7F6-47DC1FF2A3E1";
name = "Regular Italic";
paths = (
{
closed = 1;
nodes = (
"251 295 OFFCURVE",
"262 290 OFFCURVE",
"297 286 CURVE",
"307 293 LINE",
"307 408 LINE",
"419 408 LINE",
"419 456 LINE",
"-24 456 LINE",
"-24 408 LINE",
"251 408 LINE",
"251 342 LINE",
"225 345 OFFCURVE",
"223 346 OFFCURVE",
"190 346 CURVE SMOOTH",
"117 346 OFFCURVE",
"62 317 OFFCURVE",
"62 249 CURVE SMOOTH",
"62 226.473 OFFCURVE",
"68.4957 204.758 OFFCURVE",
"92.461 176.539 CURVE",
"67.5891 153.057 OFFCURVE",
"52 120.26 OFFCURVE",
"52 88 CURVE SMOOTH",
"52 -3.9999 OFFCURVE",
"144 -67.9999 OFFCURVE",
"288 -67.9999 CURVE",
"300 -19.9999 LINE",
"193 -19.9999 OFFCURVE",
"105 18 OFFCURVE",
"105 90 CURVE SMOOTH",
"105 131 OFFCURVE",
"144 169 OFFCURVE",
"216 169 CURVE",
"267 167 OFFCURVE",
"286 142 OFFCURVE",
"286 112 CURVE SMOOTH",
"286 93 OFFCURVE",
"272 80 OFFCURVE",
"264 71 CURVE",
"305 42 LINE",
"327 62 OFFCURVE",
"339 88 OFFCURVE",
"339 111 CURVE SMOOTH",
"339 182 OFFCURVE",
"289 217 OFFCURVE",
"214 217 CURVE SMOOTH",
"188.804 217 OFFCURVE",
"162.988 213.28 OFFCURVE",
"140.457 205.352 CURVE",
"133.324 210.946 OFFCURVE",
"118 226.295 OFFCURVE",
"118 249 CURVE SMOOTH",
"118 282 OFFCURVE",
"144 295 OFFCURVE",
"197 295 CURVE SMOOTH"
);
}
);
width = 395;
}
);
unicode = 0939;
},
{
glyphname = "qa-deva";
lastChange = "2014-11-09 11:39:43 +0000";
layers = (
{
anchors = (
{
name = bottom;
position = "{284, 5}";
},
{
name = top;
position = "{284, 447}";
}
);
layerId = "CFA4B904-E3F1-48B6-A7F6-47DC1FF2A3E1";
name = "Regular Italic";
paths = (
{
closed = 1;
nodes = (
"573 408 LINE",
"573 456 LINE",
"-24 456 LINE",
"-24 408 LINE",
"257 408 LINE",
"257 313.755 LINE",
"233.1 326.228 OFFCURVE",
"203.845 337 OFFCURVE",
"171 337 CURVE SMOOTH",
"88 337 OFFCURVE",
"28 286 OFFCURVE",
"28 205 CURVE SMOOTH",
"28 124 OFFCURVE",
"88 73 OFFCURVE",
"171 73 CURVE SMOOTH",
"208.639 73 OFFCURVE",
"235.591 82.9512 OFFCURVE",
"257 94.7984 CURVE",
"257 0 LINE",
"310 0 LINE",
"310 259.168 LINE",
"328.201 271.348 OFFCURVE",
"350.105 282 OFFCURVE",
"373 282 CURVE SMOOTH",
"427 282 OFFCURVE",
"458 254 OFFCURVE",
"458 207 CURVE SMOOTH",
"458 156 OFFCURVE",
"421 128 OFFCURVE",
"392 101 CURVE",
"431 62 LINE",
"468 91 OFFCURVE",
"514 138 OFFCURVE",
"514 201 CURVE SMOOTH",
"514 280 OFFCURVE",
"460 333 OFFCURVE",
"377 333 CURVE SMOOTH",
"352.407 333 OFFCURVE",
"329.827 324.724 OFFCURVE",
"310 314.096 CURVE",
"310 408 LINE"
);
},
{
closed = 1;
nodes = (
"121 124 OFFCURVE",
"84 151 OFFCURVE",
"84 205 CURVE SMOOTH",
"84 258 OFFCURVE",
"121 286 OFFCURVE",
"175 286 CURVE SMOOTH",
"209.979 286 OFFCURVE",
"237.718 271.068 OFFCURVE",
"257 257.64 CURVE",
"257 150.51 LINE",
"240.404 137.598 OFFCURVE",
"216.589 124 OFFCURVE",
"180 124 CURVE SMOOTH"
);
},
{
closed = 1;
nodes = (
"150 -22 OFFCURVE",
"164 -8 OFFCURVE",
"164 12 CURVE SMOOTH",
"164 33 OFFCURVE",
"150 47 OFFCURVE",
"129 47 CURVE SMOOTH",
"109 47 OFFCURVE",
"95 33 OFFCURVE",
"95 12 CURVE SMOOTH",
"95 -8 OFFCURVE",
"109 -22 OFFCURVE",
"129 -22 CURVE SMOOTH"
);
}
);
width = 549;
}
);
unicode = 0958;
},
{
glyphname = "khha-deva";
lastChange = "2014-11-09 11:39:59 +0000";
layers = (
{
anchors = (
{
name = bottom;
position = "{480, 5}";
},
{
name = top;
position = "{480, 447}";
}
);
background = {
anchors = (
{
name = top;
position = "{680, 447}";
},
{
name = bottom;
position = "{680, 5}";
}
);
paths = (
{
closed = 1;
nodes = (
"653 0 LINE",
"706 0 LINE",
"706 456 LINE",
"653 456 LINE"
);
},
{
closed = 1;
nodes = (
"176 456 LINE",
"176 408 LINE",
"804 408 LINE",
"804 456 LINE"
);
},
{
closed = 1;
nodes = (
"287 427 OFFCURVE",
"358 403 OFFCURVE",
"358 306 CURVE SMOOTH",
"358 209 OFFCURVE",
"244 206 OFFCURVE",
"244 206 CURVE SMOOTH",
"244 206 OFFCURVE",
"266 157 OFFCURVE",
"266 157 CURVE",
"305 157 OFFCURVE",
"412 191 OFFCURVE",
"412 304 CURVE SMOOTH",
"412 412 OFFCURVE",
"339 443 OFFCURVE",
"339 443 CURVE",
"287 427 LINE"
);
},
{
closed = 1;
nodes = (
"214 212 OFFCURVE",
"409 -17 OFFCURVE",
"409 -17 CURVE SMOOTH",
"409 -17 OFFCURVE",
"453 18 OFFCURVE",
"453 18 CURVE",
"254 246 LINE",
"214 212 LINE"
);
},
{
closed = 1;
nodes = (
"445 121 OFFCURVE",
"503 70 OFFCURVE",
"576 70 CURVE SMOOTH",
"628 70 OFFCURVE",
"663 84 OFFCURVE",
"690 102 CURVE",
"676 154 LINE",
"660 140 OFFCURVE",
"632 121 OFFCURVE",
"585 121 CURVE SMOOTH",
"536 121 OFFCURVE",
"501 148 OFFCURVE",
"501 202 CURVE SMOOTH",
"501 255 OFFCURVE",
"536 283 OFFCURVE",
"580 283 CURVE SMOOTH",
"632 283 OFFCURVE",
"660 258 OFFCURVE",
"676 245 CURVE",
"690 298 LINE",
"663 314 OFFCURVE",
"628 334 OFFCURVE",
"576 334 CURVE SMOOTH",
"503 334 OFFCURVE",
"445 283 OFFCURVE",
"445 202 CURVE SMOOTH"
);
},
{
closed = 1;
nodes = (
"265 -3 OFFCURVE",
"279 11 OFFCURVE",
"279 31 CURVE SMOOTH",
"279 52 OFFCURVE",
"265 66 OFFCURVE",
"244 66 CURVE SMOOTH",
"224 66 OFFCURVE",
"210 52 OFFCURVE",
"210 31 CURVE SMOOTH",
"210 11 OFFCURVE",
"224 -3 OFFCURVE",
"244 -3 CURVE SMOOTH"
);
}
);
};
layerId = "CFA4B904-E3F1-48B6-A7F6-47DC1FF2A3E1";
name = "Regular Italic";
paths = (
{
closed = 1;
nodes = (
"604 456 LINE",
"-24 456 LINE",
"-24 408 LINE",
"117.142 408 LINE",
"136.485 390.672 OFFCURVE",
"158 359.397 OFFCURVE",
"158 306 CURVE SMOOTH",
"158 247.072 OFFCURVE",
"115.927 222.836 OFFCURVE",
"82.8997 212.889 CURVE",
"54 246 LINE",
"14 212 LINE",
"14 212 OFFCURVE",
"209 -17 OFFCURVE",
"209 -17 CURVE",
"253 18 LINE",
"120.564 169.736 LINE",
"163.988 188.06 OFFCURVE",
"212 228.306 OFFCURVE",
"212 304 CURVE SMOOTH",
"212 353.193 OFFCURVE",
"196.854 386.411 OFFCURVE",
"180.36 408 CURVE",
"453 408 LINE",
"453 317.665 LINE",
"432.133 326.842 OFFCURVE",
"407.109 334 OFFCURVE",
"376 334 CURVE SMOOTH",
"303 334 OFFCURVE",
"245 283 OFFCURVE",
"245 202 CURVE SMOOTH",
"245 121 OFFCURVE",
"303 70 OFFCURVE",
"376 70 CURVE SMOOTH",
"407.109 70 OFFCURVE",
"432.133 75.0109 OFFCURVE",
"453 82.8909 CURVE",
"453 0 LINE",
"506 0 LINE",
"506 408 LINE",
"604 408 LINE"
);
},
{
closed = 1;
nodes = (
"336 121 OFFCURVE",
"301 148 OFFCURVE",
"301 202 CURVE SMOOTH",
"301 255 OFFCURVE",
"336 283 OFFCURVE",
"380 283 CURVE SMOOTH",
"412.954 283 OFFCURVE",
"436.269 272.959 OFFCURVE",
"453 262.296 CURVE",
"453 137.647 LINE",
"436.718 128.555 OFFCURVE",
"414.636 121 OFFCURVE",
"385 121 CURVE SMOOTH"
);
},
{
closed = 1;
nodes = (
"65 -3 OFFCURVE",
"79 11 OFFCURVE",
"79 31 CURVE SMOOTH",
"79 52 OFFCURVE",
"65 66 OFFCURVE",
"44 66 CURVE SMOOTH",
"24 66 OFFCURVE",
"10 52 OFFCURVE",
"10 31 CURVE SMOOTH",
"10 11 OFFCURVE",
"24 -3 OFFCURVE",
"44 -3 CURVE SMOOTH"
);
}
);
width = 580;
}
);
unicode = 0959;
},
{
glyphname = "ghha-deva";
lastChange = "2014-11-09 11:40:09 +0000";
layers = (
{
anchors = (
{
name = bottom;
position = "{345, 5}";
},
{
name = top;
position = "{345, 447}";
}
);
layerId = "CFA4B904-E3F1-48B6-A7F6-47DC1FF2A3E1";
name = "Regular Italic";
paths = (
{
closed = 1;
nodes = (
"470 456 LINE",
"-24 456 LINE",
"-24 408 LINE",
"96 408 LINE",
"96 238 LINE",
"43 238 LINE",
"43 204 LINE",
"113 113 LINE",
"151 113 LINE",
"151 408 LINE",
"317 408 LINE",
"317 0 LINE",
"373 0 LINE",
"373 408 LINE",
"470 408 LINE"
);
},
{
closed = 1;
nodes = (
"150 69 OFFCURVE",
"136 55 OFFCURVE",
"136 34 CURVE SMOOTH",
"136 14 OFFCURVE",
"150 0 OFFCURVE",
"170 0 CURVE SMOOTH",
"191 0 OFFCURVE",
"205 14 OFFCURVE",
"205 34 CURVE SMOOTH",
"205 55 OFFCURVE",
"191 69 OFFCURVE",
"170 69 CURVE SMOOTH"
);
}
);
width = 446;
}
);
unicode = 095A;
},
{
glyphname = "za-deva";
lastChange = "2014-11-09 11:40:18 +0000";
layers = (
{
anchors = (
{
name = bottom;
position = "{437, 5}";
},
{
name = top;
position = "{437, 447}";
}
);
background = {
paths = (
{
closed = 1;
nodes = (
"596 0 LINE",
"652 0 LINE",
"652 456 LINE",
"596 456 LINE"
);
},
{
closed = 1;
nodes = (
"176 456 LINE",
"176 408 LINE",
"750 408 LINE",
"750 456 LINE"
);
},
{
closed = 1;
nodes = (
"617 294 OFFCURVE",
"482 294 OFFCURVE",
"418 294 CURVE",
"414 246 LINE",
"486 246 OFFCURVE",
"617 246 OFFCURVE",
"617 246 CURVE",
"617 294 LINE"
);
},
{
closed = 1;
nodes = (
"521 196 OFFCURVE",
"511 241 OFFCURVE",
"463 275 CURVE SMOOTH",
"452 283 OFFCURVE",
"441 286 OFFCURVE",
"428 294 CURVE",
"385 294 LINE",
"385 249 LINE",
"451 249 OFFCURVE",
"469 203 OFFCURVE",
"469 170 CURVE SMOOTH",
"469 122 OFFCURVE",
"434 97 OFFCURVE",
"391 97 CURVE SMOOTH",
"333 97 OFFCURVE",
"278 154 OFFCURVE",
"248 255 CURVE",
"201 235 LINE",
"238 114 OFFCURVE",
"303 45 OFFCURVE",
"392 45 CURVE SMOOTH",
"443 45 OFFCURVE",
"521 74 OFFCURVE",
"521 166 CURVE SMOOTH"
);
}
);
};
guideLines = (
{
angle = 90;
position = "{637, 275}";
}
);
layerId = "CFA4B904-E3F1-48B6-A7F6-47DC1FF2A3E1";
name = "Regular Italic";
paths = (
{
closed = 1;
nodes = (
"563 456 LINE",
"-24 456 LINE",
"-24 408 LINE",
"409 408 LINE",
"409 294 LINE",
"241 294 LINE",
"198 294 LINE",
"198 249 LINE",
"264 249 OFFCURVE",
"282 203 OFFCURVE",
"282 170 CURVE SMOOTH",
"282 122 OFFCURVE",
"247 97 OFFCURVE",
"204 97 CURVE SMOOTH",
"146 97 OFFCURVE",
"91 154 OFFCURVE",
"61 255 CURVE",
"14 235 LINE",
"51 114 OFFCURVE",
"116 45 OFFCURVE",
"205 45 CURVE SMOOTH",
"256 45 OFFCURVE",
"334 74 OFFCURVE",
"334 166 CURVE SMOOTH",
"334 188.014 OFFCURVE",
"328.615 218.105 OFFCURVE",
"306.782 246 CURVE",
"409 246 LINE",
"409 0 LINE",
"465 0 LINE",
"465 408 LINE",
"563 408 LINE"
);
},
{
closed = 1;
nodes = (
"135 5 OFFCURVE",
"121 -9 OFFCURVE",
"121 -30 CURVE SMOOTH",
"121 -50 OFFCURVE",
"135 -64 OFFCURVE",
"155 -64 CURVE SMOOTH",
"176 -64 OFFCURVE",
"190 -50 OFFCURVE",
"190 -30 CURVE SMOOTH",
"190 -9 OFFCURVE",
"176 5 OFFCURVE",
"155 5 CURVE SMOOTH"
);
}
);
width = 539;
}
);
unicode = 095B;
},
{
glyphname = "dddha-deva";
lastChange = "2014-11-09 11:40:26 +0000";
layers = (
{
anchors = (
{
name = bottom;
position = "{225, -25}";
},
{
name = top;
position = "{302, 447}";
}
);
layerId = "CFA4B904-E3F1-48B6-A7F6-47DC1FF2A3E1";
name = "Regular Italic";
paths = (
{
closed = 1;
nodes = (
"268 294 OFFCURVE",
"285 289 OFFCURVE",
"320 285 CURVE",
"330 292 LINE",
"330 408 LINE",
"429 408 LINE",
"429 456 LINE",
"-28 456 LINE",
"-28 408 LINE",
"274 408 LINE",
"274 343 LINE",
"253 345 OFFCURVE",
"241 346 OFFCURVE",
"208 346 CURVE SMOOTH",
"131 346 OFFCURVE",
"80 322 OFFCURVE",
"80 259 CURVE SMOOTH",
"80 162 OFFCURVE",
"182 161 OFFCURVE",
"220 165 CURVE SMOOTH",
"280 171 OFFCURVE",
"309 153 OFFCURVE",
"309 116 CURVE SMOOTH",
"309 73 OFFCURVE",
"268 52 OFFCURVE",
"224 52 CURVE SMOOTH",
"165 52 OFFCURVE",
"116 81 OFFCURVE",
"68 128 CURVE",
"34 91 LINE",
"86 38 OFFCURVE",
"149 0 OFFCURVE",
"225 0 CURVE SMOOTH",
"306 0 OFFCURVE",
"363 46 OFFCURVE",
"363 120 CURVE SMOOTH",
"363 181 OFFCURVE",
"310 220 OFFCURVE",
"238 216 CURVE SMOOTH",
"186 213 OFFCURVE",
"133 212 OFFCURVE",
"133 256 CURVE SMOOTH",
"133 284 OFFCURVE",
"156 294 OFFCURVE",
"206 294 CURVE SMOOTH"
);
},
{
closed = 1;
nodes = (
"233 -111 OFFCURVE",
"247 -97 OFFCURVE",
"247 -77 CURVE SMOOTH",
"247 -56 OFFCURVE",
"233 -42 OFFCURVE",
"212 -42 CURVE SMOOTH",
"192 -42 OFFCURVE",
"178 -56 OFFCURVE",
"178 -77 CURVE SMOOTH",
"178 -97 OFFCURVE",
"192 -111 OFFCURVE",
"212 -111 CURVE SMOOTH"
);
}
);
width = 405;
}
);
unicode = 095C;
},
{
glyphname = "rha-deva";
lastChange = "2014-11-09 11:40:34 +0000";
layers = (
{
anchors = (
{
name = bottom;
position = "{215, -25}";
},
{
name = top;
position = "{287, 447}";
}
);
layerId = "CFA4B904-E3F1-48B6-A7F6-47DC1FF2A3E1";
name = "Regular Italic";
paths = (
{
closed = 1;
nodes = (
"245 264 OFFCURVE",
"270 259 OFFCURVE",
"306 255 CURVE",
"315 262 LINE",
"315 408 LINE",
"420 408 LINE",
"420 456 LINE",
"-24 456 LINE",
"-24 408 LINE",
"259 408 LINE",
"259 315 LINE",
"233 317 OFFCURVE",
"217 317 OFFCURVE",
"203 317 CURVE SMOOTH",
"94 317 OFFCURVE",
"41 244 OFFCURVE",
"41 158 CURVE SMOOTH",
"41 67 OFFCURVE",
"110 0 OFFCURVE",
"215 0 CURVE SMOOTH",
"286 0 OFFCURVE",
"355 30 OFFCURVE",
"355 107 CURVE SMOOTH",
"355 140 OFFCURVE",
"331 190 OFFCURVE",
"269 190 CURVE SMOOTH",
"220 190 OFFCURVE",
"183 157 OFFCURVE",
"183 104 CURVE SMOOTH",
"183 81.7493 OFFCURVE",
"188.052 63.9897 OFFCURVE",
"194.29 50.2742 CURVE",
"136.898 58.082 OFFCURVE",
"96 99.5094 OFFCURVE",
"96 161 CURVE SMOOTH",
"96 225 OFFCURVE",
"133 264 OFFCURVE",
"208 264 CURVE SMOOTH"
);
},
{
closed = 1;
nodes = (
"288 138 OFFCURVE",
"302 124 OFFCURVE",
"302 101 CURVE SMOOTH",
"302 77.2745 OFFCURVE",
"283.259 58.2345 OFFCURVE",
"246.325 51.5456 CURVE",
"240.134 62.054 OFFCURVE",
"234 78.2146 OFFCURVE",
"234 101 CURVE SMOOTH",
"234 130 OFFCURVE",
"249 138 OFFCURVE",
"269 138 CURVE SMOOTH"
);
},
{
closed = 1;
nodes = (
"227 -113 OFFCURVE",
"241 -99 OFFCURVE",
"241 -79 CURVE SMOOTH",
"241 -58 OFFCURVE",
"227 -44 OFFCURVE",
"206 -44 CURVE SMOOTH",
"186 -44 OFFCURVE",
"172 -58 OFFCURVE",
"172 -79 CURVE SMOOTH",
"172 -99 OFFCURVE",
"186 -113 OFFCURVE",
"206 -113 CURVE SMOOTH"
);
}
);
width = 396;
}
);
unicode = 095D;
},
{
glyphname = "fa-deva";
lastChange = "2014-11-09 11:40:43 +0000";
layers = (
{
anchors = (
{
name = bottom;
position = "{321, 5}";
},
{
name = top;
position = "{321, 447}";
}
);
layerId = "CFA4B904-E3F1-48B6-A7F6-47DC1FF2A3E1";
name = "Regular Italic";
paths = (
{
closed = 1;
nodes = (
"627 408 LINE",
"627 456 LINE",
"-24 456 LINE",
"-24 408 LINE",
"58 408 LINE",
"58 244 LINE SMOOTH",
"58 164 OFFCURVE",
"102 103 OFFCURVE",
"202 103 CURVE SMOOTH",
"232.691 103 OFFCURVE",
"266.941 110.12 OFFCURVE",
"294 117.422 CURVE",
"294 0 LINE",
"349 0 LINE",
"349 240.216 LINE",
"369.696 257.395 OFFCURVE",
"402.204 282 OFFCURVE",
"437 282 CURVE SMOOTH",
"491 282 OFFCURVE",
"522 254 OFFCURVE",
"522 207 CURVE SMOOTH",
"522 156 OFFCURVE",
"485 128 OFFCURVE",
"456 101 CURVE",
"495 62 LINE",
"532 91 OFFCURVE",
"578 138 OFFCURVE",
"578 201 CURVE SMOOTH",
"578 280 OFFCURVE",
"524 333 OFFCURVE",
"441 333 CURVE SMOOTH",
"405.352 333 OFFCURVE",
"373.933 317.491 OFFCURVE",
"349 301.938 CURVE",
"349 408 LINE"
);
},
{
closed = 1;
nodes = (
"294 169.71 LINE",
"268.125 161.094 OFFCURVE",
"234.61 153 OFFCURVE",
"200 153 CURVE SMOOTH",
"146 153 OFFCURVE",
"114 188 OFFCURVE",
"114 244 CURVE SMOOTH",
"114 408 LINE",
"294 408 LINE"
);
},
{
closed = 1;
nodes = (
"174 -5 OFFCURVE",
"188 9 OFFCURVE",
"188 29 CURVE SMOOTH",
"188 50 OFFCURVE",
"174 64 OFFCURVE",
"153 64 CURVE SMOOTH",
"133 64 OFFCURVE",
"119 50 OFFCURVE",
"119 29 CURVE SMOOTH",
"119 9 OFFCURVE",
"133 -5 OFFCURVE",
"153 -5 CURVE SMOOTH"
);
}
);
width = 603;
}
);
unicode = 095E;
},
{
glyphname = "yya-deva";
lastChange = "2014-11-09 11:40:50 +0000";
layers = (
{
anchors = (
{
name = bottom;
position = "{343, 5}";
},
{
name = top;
position = "{343, 447}";
}
);
layerId = "CFA4B904-E3F1-48B6-A7F6-47DC1FF2A3E1";
name = "Regular Italic";
paths = (
{
closed = 1;
nodes = (
"469 456 LINE",
"-24 456 LINE",
"-24 408 LINE",
"79.1794 408 LINE",
"107.075 375.166 OFFCURVE",
"123 339.146 OFFCURVE",
"123 307 CURVE SMOOTH",
"123 258 OFFCURVE",
"77 230 OFFCURVE",
"45 213 CURVE",
"34 184 LINE",
"61 138 OFFCURVE",
"122 84 OFFCURVE",
"213 84 CURVE SMOOTH",
"256.372 84 OFFCURVE",
"292.849 99.6035 OFFCURVE",
"315 112.012 CURVE",
"315 0 LINE",
"371 0 LINE",
"371 408 LINE",
"469 408 LINE"
);
},
{
closed = 1;
nodes = (
"315 174.692 LINE",
"286.661 149.126 OFFCURVE",
"246.753 137 OFFCURVE",
"208 137 CURVE SMOOTH",
"167 137 OFFCURVE",
"130 155 OFFCURVE",
"105 182 CURVE",
"142 211 OFFCURVE",
"178 244 OFFCURVE",
"178 306 CURVE SMOOTH",
"178 338.816 OFFCURVE",
"165.939 375.077 OFFCURVE",
"142.383 408 CURVE",
"315 408 LINE"
);
},
{
closed = 1;
nodes = (
"124 -25 OFFCURVE",
"138 -11 OFFCURVE",
"138 9 CURVE SMOOTH",
"138 30 OFFCURVE",
"124 44 OFFCURVE",
"103 44 CURVE SMOOTH",
"83 44 OFFCURVE",
"69 30 OFFCURVE",
"69 9 CURVE SMOOTH",
"69 -11 OFFCURVE",
"83 -25 OFFCURVE",
"103 -25 CURVE SMOOTH"
);
}
);
width = 445;
}
);
unicode = 095F;
},
{
color = 7;
glyphname = "jjya-deva";
lastChange = "2014-08-25 14:39:57 +0000";
layers = (
{
layerId = "CFA4B904-E3F1-48B6-A7F6-47DC1FF2A3E1";
name = "Regular Italic";
paths = (
{
closed = 1;
nodes = (
"315 0 LINE",
"371 0 LINE",
"371 456 LINE",
"315 456 LINE"
);
},
{
closed = 1;
nodes = (
"-24 456 LINE",
"-24 408 LINE",
"469 408 LINE",
"469 456 LINE"
);
},
{
closed = 1;
nodes = (
"312 158 OFFCURVE",
"259 137 OFFCURVE",
"208 137 CURVE SMOOTH",
"167 137 OFFCURVE",
"130 155 OFFCURVE",
"105 182 CURVE",
"142 211 OFFCURVE",
"178 244 OFFCURVE",
"178 306 CURVE SMOOTH",
"178 356 OFFCURVE",
"150 414 OFFCURVE",
"96 456 CURVE",
"26 456 LINE",
"86 414 OFFCURVE",
"123 356 OFFCURVE",
"123 307 CURVE SMOOTH",
"123 258 OFFCURVE",
"77 230 OFFCURVE",
"45 213 CURVE",
"34 184 LINE",
"61 138 OFFCURVE",
"122 84 OFFCURVE",
"213 84 CURVE SMOOTH",
"285 84 OFFCURVE",
"338 127 OFFCURVE",
"338 127 CURVE",
"338 203 LINE"
);
},
{
closed = 1;
nodes = (
"300 146 LINE",
"331 178 LINE",
"125 430 LINE",
"87 402 LINE"
);
}
);
width = 445;
}
);
unicode = 097A;
},
{
color = 7;
glyphname = "gga-deva";
lastChange = "2014-08-25 14:39:57 +0000";
layers = (
{
layerId = "CFA4B904-E3F1-48B6-A7F6-47DC1FF2A3E1";
name = "Regular Italic";
paths = (
{
closed = 1;
nodes = (
"313 -10 LINE",
"369 -10 LINE",
"369 456 LINE",
"313 456 LINE"
);
},
{
closed = 1;
nodes = (
"92 151 LINE",
"147 151 LINE",
"147 456 LINE",
"92 456 LINE"
);
},
{
closed = 1;
nodes = (
"-24 456 LINE",
"-24 408 LINE",
"467 408 LINE",
"467 456 LINE"
);
},
{
closed = 1;
nodes = (
"34 215 LINE",
"34 181 LINE",
"109 90 LINE",
"109 90 OFFCURVE",
"147 90 OFFCURVE",
"147 90 CURVE",
"147 215 LINE"
);
},
{
closed = 1;
nodes = (
"34 0 LINE",
"34 -48 LINE",
"369 -48 LINE",
"369 0 LINE"
);
}
);
width = 443;
}
);
unicode = 097B;
},
{
color = 7;
glyphname = "jja-deva";
lastChange = "2014-08-25 14:39:57 +0000";
layers = (
{
layerId = "CFA4B904-E3F1-48B6-A7F6-47DC1FF2A3E1";
name = "Regular Italic";
paths = (
{
closed = 1;
nodes = (
"409 -10 LINE",
"465 -10 LINE",
"465 456 LINE",
"409 456 LINE"
);
},
{
closed = 1;
nodes = (
"-24 456 LINE",
"-24 408 LINE",
"563 408 LINE",
"563 456 LINE"
);
},
{
closed = 1;
nodes = (
"430 305 OFFCURVE",
"295 305 OFFCURVE",
"231 305 CURVE",
"227 257 LINE",
"299 257 OFFCURVE",
"430 257 OFFCURVE",
"430 257 CURVE",
"430 305 LINE"
);
},
{
closed = 1;
nodes = (
"334 207 OFFCURVE",
"324 252 OFFCURVE",
"276 286 CURVE SMOOTH",
"265 294 OFFCURVE",
"254 297 OFFCURVE",
"241 305 CURVE",
"198 305 LINE",
"198 260 LINE",
"264 260 OFFCURVE",
"282 214 OFFCURVE",
"282 181 CURVE SMOOTH",
"282 133 OFFCURVE",
"247 108 OFFCURVE",
"204 108 CURVE SMOOTH",
"146 108 OFFCURVE",
"91 165 OFFCURVE",
"61 266 CURVE",
"14 246 LINE",
"51 125 OFFCURVE",
"116 56 OFFCURVE",
"205 56 CURVE SMOOTH",
"256 56 OFFCURVE",
"334 85 OFFCURVE",
"334 177 CURVE SMOOTH"
);
},
{
closed = 1;
nodes = (
"21 0 LINE",
"21 -48 LINE",
"465 -48 LINE",
"465 0 LINE"
);
}
);
width = 539;
}
);
unicode = 097C;
},
{
color = 7;
glyphname = "ddda-deva";
lastChange = "2014-08-25 14:39:57 +0000";
layers = (
{
layerId = "CFA4B904-E3F1-48B6-A7F6-47DC1FF2A3E1";
name = "Regular Italic";
paths = (
{
closed = 1;
nodes = (
"-28 456 LINE",
"-28 408 LINE",
"429 408 LINE",
"429 456 LINE"
);
},
{
closed = 1;
nodes = (
"280 171 OFFCURVE",
"309 153 OFFCURVE",
"309 116 CURVE SMOOTH",
"309 73 OFFCURVE",
"268 52 OFFCURVE",
"224 52 CURVE SMOOTH",
"165 52 OFFCURVE",
"116 81 OFFCURVE",
"68 128 CURVE",
"34 91 LINE",
"86 38 OFFCURVE",
"149 0 OFFCURVE",
"225 0 CURVE SMOOTH",
"306 0 OFFCURVE",
"363 46 OFFCURVE",
"363 120 CURVE SMOOTH",
"363 181 OFFCURVE",
"310 220 OFFCURVE",
"238 216 CURVE SMOOTH",
"186 213 OFFCURVE",
"133 212 OFFCURVE",
"133 256 CURVE SMOOTH",
"133 284 OFFCURVE",
"156 294 OFFCURVE",
"206 294 CURVE SMOOTH",
"268 294 OFFCURVE",
"285 289 OFFCURVE",
"320 285 CURVE",
"330 292 LINE",
"330 456 LINE",
"274 456 LINE",
"274 343 LINE",
"253 345 OFFCURVE",
"241 346 OFFCURVE",
"208 346 CURVE SMOOTH",
"131 346 OFFCURVE",
"80 322 OFFCURVE",
"80 259 CURVE SMOOTH",
"80 162 OFFCURVE",
"182 161 OFFCURVE",
"220 165 CURVE SMOOTH"
);
},
{
closed = 1;
nodes = (
"34 -50 LINE",
"34 -98 LINE",
"363 -98 LINE",
"363 -50 LINE"
);
}
);
width = 405;
}
);
unicode = 097E;
},
{
color = 7;
glyphname = "bba-deva";
lastChange = "2014-08-25 14:39:57 +0000";
layers = (
{
layerId = "CFA4B904-E3F1-48B6-A7F6-47DC1FF2A3E1";
name = "Regular Italic";
paths = (
{
closed = 1;
nodes = (
"286 -10 LINE",
"342 -10 LINE",
"342 456 LINE",
"286 456 LINE"
);
},
{
closed = 1;
nodes = (
"-24 456 LINE",
"-24 408 LINE",
"440 408 LINE",
"440 456 LINE"
);
},
{
closed = 1;
nodes = (
"81 268 OFFCURVE",
"130 295 OFFCURVE",
"184 295 CURVE SMOOTH",
"236 295 OFFCURVE",
"272 273 OFFCURVE",
"288 261 CURVE",
"302 311 LINE",
"275 329 OFFCURVE",
"230 345 OFFCURVE",
"180 345 CURVE SMOOTH",
"102 345 OFFCURVE",
"30 296 OFFCURVE",
"30 205 CURVE SMOOTH",
"30 114 OFFCURVE",
"97 65 OFFCURVE",
"180 65 CURVE SMOOTH",
"232 65 OFFCURVE",
"275 83 OFFCURVE",
"302 100 CURVE",
"288 152 LINE",
"272 140 OFFCURVE",
"236 115 OFFCURVE",
"184 115 CURVE SMOOTH",
"130 115 OFFCURVE",
"81 142 OFFCURVE",
"81 205 CURVE SMOOTH"
);
},
{
closed = 1;
nodes = (
"85 279 OFFCURVE",
"273 99 OFFCURVE",
"273 99 CURVE SMOOTH",
"273 99 OFFCURVE",
"308 131 OFFCURVE",
"308 131 CURVE",
"123 307 LINE",
"85 279 LINE"
);
},
{
closed = 1;
nodes = (
"30 0 LINE",
"30 -48 LINE",
"342 -48 LINE",
"342 0 LINE"
);
}
);
width = 416;
}
);
unicode = 097F;
},
{
color = 0;
glyphname = "la-deva.MAR";
lastChange = "2014-11-05 12:49:12 +0000";
layers = (
{
anchors = (
{
name = bottom;
position = "{369, -35}";
},
{
name = top;
position = "{386, 447}";
}
);
background = {
paths = (
{
closed = 1;
nodes = (
"608 0 LINE",
"664 0 LINE",
"664 456 LINE",
"608 456 LINE"
);
},
{
closed = 1;
nodes = (
"176 456 LINE",
"176 408 LINE",
"762 408 LINE",
"762 456 LINE"
);
},
{
closed = 1;
nodes = (
"475 268 OFFCURVE",
"434 310 OFFCURVE",
"377 310 CURVE SMOOTH",
"294 310 OFFCURVE",
"244 253 OFFCURVE",
"244 172 CURVE SMOOTH",
"244 74 OFFCURVE",
"337 -12 OFFCURVE",
"337 -12 CURVE",
"390 11 LINE",
"367 36 OFFCURVE",
"301 102 OFFCURVE",
"301 172 CURVE SMOOTH",
"301 221 OFFCURVE",
"329 256 OFFCURVE",
"376 256 CURVE SMOOTH",
"430 256 OFFCURVE",
"455 182 OFFCURVE",
"455 182 CURVE",
"492 227 LINE"
);
},
{
closed = 1;
nodes = (
"439 118 OFFCURVE",
"492 110 OFFCURVE",
"492 110 CURVE",
"491 120 OFFCURVE",
"488 140 OFFCURVE",
"488 162 CURVE SMOOTH",
"488 217 OFFCURVE",
"513 256 OFFCURVE",
"569 255 CURVE SMOOTH",
"594 255 OFFCURVE",
"616 245 OFFCURVE",
"634 231 CURVE",
"628 293 LINE",
"605 306 OFFCURVE",
"584 308 OFFCURVE",
"565 308 CURVE SMOOTH",
"499 308 OFFCURVE",
"435 266 OFFCURVE",
"435 164 CURVE SMOOTH",
"435 154 OFFCURVE",
"437 128 OFFCURVE",
"439 118 CURVE"
);
}
);
};
layerId = "CFA4B904-E3F1-48B6-A7F6-47DC1FF2A3E1";
name = "Regular Italic";
paths = (
{
closed = 1;
nodes = (
"358 270 LINE",
"414 270 LINE",
"414 456 LINE",
"358 456 LINE"
);
},
{
closed = 1;
nodes = (
"-24 456 LINE",
"-24 408 LINE",
"554 408 LINE",
"554 456 LINE"
);
},
{
closed = 1;
nodes = (
"275 268 OFFCURVE",
"234 310 OFFCURVE",
"177 310 CURVE SMOOTH",
"94 310 OFFCURVE",
"44 253 OFFCURVE",
"44 172 CURVE SMOOTH",
"44 74 OFFCURVE",
"137 -12 OFFCURVE",
"137 -12 CURVE",
"190 11 LINE",
"167 36 OFFCURVE",
"101 102 OFFCURVE",
"101 172 CURVE SMOOTH",
"101 221 OFFCURVE",
"129 256 OFFCURVE",
"176 256 CURVE SMOOTH",
"230 256 OFFCURVE",
"255 182 OFFCURVE",
"255 182 CURVE",
"292 227 LINE"
);
},
{
closed = 1;
nodes = (
"299 308 OFFCURVE",
"235 266 OFFCURVE",
"235 164 CURVE SMOOTH",
"235 154 OFFCURVE",
"237 128 OFFCURVE",
"239 118 CURVE",
"239 118 OFFCURVE",
"292 110 OFFCURVE",
"292 110 CURVE",
"291 120 OFFCURVE",
"288 140 OFFCURVE",
"288 162 CURVE SMOOTH",
"288 217 OFFCURVE",
"314 257 OFFCURVE",
"362 256 CURVE",
"411 256 OFFCURVE",
"430 221 OFFCURVE",
"430 172 CURVE SMOOTH",
"430 102 OFFCURVE",
"363 36 OFFCURVE",
"340 11 CURVE",
"394 -12 LINE",
"394 -12 OFFCURVE",
"486 74 OFFCURVE",
"486 172 CURVE SMOOTH",
"486 253 OFFCURVE",
"441 308 OFFCURVE",
"365 308 CURVE"
);
}
);
width = 530;
}
);
},
{
color = 0;
glyphname = "sha-deva.MAR";
lastChange = "2014-08-25 11:53:55 +0000";
layers = (
{
anchors = (
{
name = bottom;
position = "{401, 5}";
},
{
name = top;
position = "{401, 447}";
}
);
background = {
paths = (
{
closed = 1;
nodes = (
"489 414 OFFCURVE",
"436 466 OFFCURVE",
"372 466 CURVE SMOOTH",
"313 466 OFFCURVE",
"269 425 OFFCURVE",
"269 368 CURVE SMOOTH",
"269 329 OFFCURVE",
"292 297 OFFCURVE",
"341 268 CURVE",
"370 311 LINE",
"346 326 OFFCURVE",
"322 343 OFFCURVE",
"322 368 CURVE SMOOTH",
"322 398 OFFCURVE",
"344 413 OFFCURVE",
"372 413 CURVE SMOOTH",
"408 413 OFFCURVE",
"433 379 OFFCURVE",
"436 329 CURVE SMOOTH",
"441 233 OFFCURVE",
"339 193 OFFCURVE",
"304 174 CURVE",
"346 137 LINE",
"409 175 OFFCURVE",
"489 223 OFFCURVE",
"489 332 CURVE SMOOTH"
);
},
{
closed = 1;
nodes = (
"242 155 OFFCURVE",
"273 130 OFFCURVE",
"317 131 CURVE",
"450 -15 LINE",
"450 -15 OFFCURVE",
"488 21 OFFCURVE",
"488 21 CURVE",
"282 239 LINE",
"255 230 OFFCURVE",
"242 211 OFFCURVE",
"242 191 CURVE SMOOTH"
);
},
{
closed = 1;
nodes = (
"521 456 LINE",
"521 408 LINE",
"767 408 LINE",
"767 456 LINE"
);
},
{
closed = 1;
nodes = (
"613 0 LINE",
"669 0 LINE",
"669 456 LINE",
"613 456 LINE"
);
}
);
};
layerId = "CFA4B904-E3F1-48B6-A7F6-47DC1FF2A3E1";
name = "Regular Italic";
paths = (
{
closed = 1;
nodes = (
"264 303 OFFCURVE",
"219 355 OFFCURVE",
"147 355 CURVE SMOOTH",
"97 355 OFFCURVE",
"57 325 OFFCURVE",
"34 281 CURVE",
"79 255 LINE",
"92 281 OFFCURVE",
"119 303 OFFCURVE",
"147 303 CURVE SMOOTH",
"193 303 OFFCURVE",
"211 268 OFFCURVE",
"211 238 CURVE SMOOTH",
"211 180 OFFCURVE",
"124 149 OFFCURVE",
"89 133 CURVE",
"131 98 LINE",
"211 134 OFFCURVE",
"264 176 OFFCURVE",
"264 239 CURVE SMOOTH"
);
},
{
closed = 1;
nodes = (
"27 114 OFFCURVE",
"66 89 OFFCURVE",
"114 90 CURVE",
"225 -15 LINE",
"225 -15 OFFCURVE",
"263 21 OFFCURVE",
"263 21 CURVE",
"67 198 LINE",
"40 189 OFFCURVE",
"27 170 OFFCURVE",
"27 150 CURVE SMOOTH"
);
},
{
closed = 1;
nodes = (
"-40 456 LINE",
"-40 408 LINE",
"527 408 LINE",
"527 456 LINE"
);
},
{
closed = 1;
nodes = (
"373 0 LINE",
"429 0 LINE",
"429 456 LINE",
"373 456 LINE"
);
},
{
closed = 1;
nodes = (
"122 325 LINE",
"174 325 LINE",
"174 456 LINE",
"122 456 LINE"
);
}
);
width = 503;
}
);
},
{
color = 0;
glyphname = "jha-deva.NEP";
lastChange = "2014-08-25 11:19:34 +0000";
layers = (
{
anchors = (
{
name = bottom;
position = "{404, 5}";
},
{
name = top;
position = "{404, 447}";
}
);
guideLines = (
{
angle = 90;
position = "{604, 275}";
}
);
layerId = "CFA4B904-E3F1-48B6-A7F6-47DC1FF2A3E1";
name = "Regular Italic";
paths = (
{
closed = 1;
nodes = (
"376 0 LINE",
"432 0 LINE",
"432 456 LINE",
"376 456 LINE"
);
},
{
closed = 1;
nodes = (
"213 135 LINE",
"213 320 LINE SMOOTH",
"213 412 OFFCURVE",
"188 466 OFFCURVE",
"117 466 CURVE SMOOTH",
"72 466 OFFCURVE",
"31 434 OFFCURVE",
"31 379 CURVE SMOOTH",
"31 343 OFFCURVE",
"55 306 OFFCURVE",
"104 280 CURVE",
"131 321 LINE",
"107 335 OFFCURVE",
"84 351 OFFCURVE",
"84 379 CURVE SMOOTH",
"84 399 OFFCURVE",
"98 413 OFFCURVE",
"117 413 CURVE SMOOTH",
"163 413 OFFCURVE",
"158 339 OFFCURVE",
"158 320 CURVE SMOOTH",
"158 135 LINE"
);
},
{
closed = 1;
nodes = (
"280 456 LINE",
"280 408 LINE",
"711 408 LINE",
"711 456 LINE"
);
},
{
closed = 1;
nodes = (
"94 199 LINE",
"94 166 LINE",
"175 70 LINE",
"175 70 OFFCURVE",
"213 70 OFFCURVE",
"213 70 CURVE",
"213 199 LINE"
);
},
{
closed = 1;
nodes = (
"182 199 LINE",
"182 151 LINE",
"421 151 LINE",
"421 199 LINE"
);
},
{
closed = 1;
nodes = (
"662 270 OFFCURVE",
"608 325 OFFCURVE",
"525 325 CURVE SMOOTH",
"473 325 OFFCURVE",
"430 292 OFFCURVE",
"403 274 CURVE",
"417 217 LINE",
"433 229 OFFCURVE",
"475 272 OFFCURVE",
"521 272 CURVE SMOOTH",
"575 272 OFFCURVE",
"606 244 OFFCURVE",
"606 197 CURVE SMOOTH",
"606 146 OFFCURVE",
"569 118 OFFCURVE",
"540 91 CURVE",
"579 52 LINE",
"616 81 OFFCURVE",
"662 128 OFFCURVE",
"662 191 CURVE SMOOTH"
);
}
);
width = 687;
}
);
},
{
color = 11;
glyphname = "jha-deva.alt";
lastChange = "2014-10-07 06:04:30 +0000";
layers = (
{
anchors = (
{
name = bottom;
position = "{462, 5}";
},
{
name = top;
position = "{462, 447}";
}
);
background = {
paths = (
{
closed = 1;
nodes = (
"176 456 LINE",
"176 408 LINE",
"785 408 LINE",
"785 456 LINE"
);
},
{
closed = 1;
nodes = (
"677 237 OFFCURVE",
"654 184 OFFCURVE",
"571 184 CURVE SMOOTH",
"546 184 OFFCURVE",
"491 203 OFFCURVE",
"456 211 CURVE",
"444 168 LINE",
"480 159 OFFCURVE",
"532 136 OFFCURVE",
"582 136 CURVE SMOOTH",
"646 136 OFFCURVE",
"677 186 OFFCURVE",
"677 186 CURVE",
"677 237 LINE"
);
},
{
closed = 1;
nodes = (
"634 0 LINE",
"690 0 LINE",
"690 456 LINE",
"634 456 LINE"
);
},
{
closed = 1;
nodes = (
"304 53 LINE",
"304 53 OFFCURVE",
"399 -97 OFFCURVE",
"399 -97 CURVE SMOOTH",
"399 -97 OFFCURVE",
"447 -75 OFFCURVE",
"447 -75 CURVE",
"355 59 LINE"
);
},
{
closed = 1;
nodes = (
"252 189 OFFCURVE",
"301 163 OFFCURVE",
"350 163 CURVE SMOOTH",
"377 163 OFFCURVE",
"403 169 OFFCURVE",
"423 169 CURVE SMOOTH",
"465 169 OFFCURVE",
"482 146 OFFCURVE",
"482 116 CURVE SMOOTH",
"482 77 OFFCURVE",
"438 59 OFFCURVE",
"403 59 CURVE SMOOTH",
"383 59 OFFCURVE",
"368 59 OFFCURVE",
"351 65 CURVE",
"298 134 LINE",
"271 136 OFFCURVE",
"246 121 OFFCURVE",
"246 96 CURVE SMOOTH",
"246 36 OFFCURVE",
"340 9 OFFCURVE",
"397 9 CURVE SMOOTH",
"477 9 OFFCURVE",
"536 50 OFFCURVE",
"536 115 CURVE SMOOTH",
"536 185 OFFCURVE",
"492 222 OFFCURVE",
"425 222 CURVE SMOOTH",
"404 222 OFFCURVE",
"381 216 OFFCURVE",
"360 216 CURVE SMOOTH",
"327 216 OFFCURVE",
"305 223 OFFCURVE",
"305 256 CURVE SMOOTH",
"305 284 OFFCURVE",
"329 294 OFFCURVE",
"379 294 CURVE SMOOTH",
"441 294 OFFCURVE",
"458 289 OFFCURVE",
"493 285 CURVE",
"503 292 LINE",
"503 456 LINE",
"447 456 LINE",
"447 341 LINE",
"421 344 OFFCURVE",
"413 345 OFFCURVE",
"380 345 CURVE SMOOTH",
"307 345 OFFCURVE",
"252 323 OFFCURVE",
"252 260 CURVE SMOOTH"
);
}
);
};
layerId = "CFA4B904-E3F1-48B6-A7F6-47DC1FF2A3E1";
name = "Regular Italic";
paths = (
{
closed = 1;
nodes = (
"-24 456 LINE",
"-24 408 LINE",
"585 408 LINE",
"585 456 LINE"
);
},
{
closed = 1;
nodes = (
"477 237 OFFCURVE",
"454 184 OFFCURVE",
"371 184 CURVE SMOOTH",
"346 184 OFFCURVE",
"291 203 OFFCURVE",
"256 211 CURVE",
"244 168 LINE",
"280 159 OFFCURVE",
"332 136 OFFCURVE",
"382 136 CURVE SMOOTH",
"446 136 OFFCURVE",
"477 186 OFFCURVE",
"477 186 CURVE",
"477 237 LINE"
);
},
{
closed = 1;
nodes = (
"434 0 LINE",
"490 0 LINE",
"490 456 LINE",
"434 456 LINE"
);
},
{
closed = 1;
nodes = (
"104 53 LINE",
"104 53 OFFCURVE",
"191 -86 OFFCURVE",
"191 -86 CURVE SMOOTH",
"191 -86 OFFCURVE",
"239 -64 OFFCURVE",
"239 -64 CURVE",
"155 59 LINE"
);
},
{
closed = 1;
nodes = (
"52 189 OFFCURVE",
"101 163 OFFCURVE",
"150 163 CURVE SMOOTH",
"177 163 OFFCURVE",
"203 169 OFFCURVE",
"223 169 CURVE SMOOTH",
"265 169 OFFCURVE",
"282 146 OFFCURVE",
"282 116 CURVE SMOOTH",
"282 77 OFFCURVE",
"238 59 OFFCURVE",
"203 59 CURVE SMOOTH",
"183 59 OFFCURVE",
"168 59 OFFCURVE",
"151 65 CURVE",
"98 134 LINE",
"71 136 OFFCURVE",
"46 121 OFFCURVE",
"46 96 CURVE SMOOTH",
"46 36 OFFCURVE",
"140 9 OFFCURVE",
"197 9 CURVE SMOOTH",
"277 9 OFFCURVE",
"336 50 OFFCURVE",
"336 115 CURVE SMOOTH",
"336 185 OFFCURVE",
"292 222 OFFCURVE",
"225 222 CURVE SMOOTH",
"204 222 OFFCURVE",
"181 216 OFFCURVE",
"160 216 CURVE SMOOTH",
"127 216 OFFCURVE",
"105 223 OFFCURVE",
"105 256 CURVE SMOOTH",
"105 284 OFFCURVE",
"129 294 OFFCURVE",
"179 294 CURVE SMOOTH",
"241 294 OFFCURVE",
"258 289 OFFCURVE",
"293 285 CURVE",
"303 292 LINE",
"303 456 LINE",
"247 456 LINE",
"247 341 LINE",
"221 344 OFFCURVE",
"213 345 OFFCURVE",
"180 345 CURVE SMOOTH",
"107 345 OFFCURVE",
"52 323 OFFCURVE",
"52 260 CURVE SMOOTH"
);
}
);
width = 561;
}
);
},
{
color = 7;
glyphname = "ai_candraBindu-deva";
lastChange = "2014-11-08 18:31:56 +0000";
layers = (
{
components = (
{
name = "e-deva";
transform = "{1, 0, 0, 1, 0, 0}";
}
);
layerId = "CFA4B904-E3F1-48B6-A7F6-47DC1FF2A3E1";
name = "Regular Italic";
paths = (
{
closed = 1;
nodes = (
"445 519 OFFCURVE",
"478 547 OFFCURVE",
"490 589 CURVE",
"456 605 LINE",
"443 572 OFFCURVE",
"420 556 OFFCURVE",
"393 556 CURVE SMOOTH",
"367 556 OFFCURVE",
"343 572 OFFCURVE",
"331 605 CURVE",
"296 590 LINE",
"309 548 OFFCURVE",
"342 519 OFFCURVE",
"393 519 CURVE SMOOTH"
);
},
{
closed = 1;
nodes = (
"410 592 OFFCURVE",
"419 605 OFFCURVE",
"419 617 CURVE SMOOTH",
"419 630 OFFCURVE",
"410 642 OFFCURVE",
"394 642 CURVE SMOOTH",
"378 642 OFFCURVE",
"369 630 OFFCURVE",
"369 617 CURVE SMOOTH",
"369 605 OFFCURVE",
"378 592 OFFCURVE",
"394 592 CURVE SMOOTH"
);
},
{
closed = 1;
nodes = (
"239 588 LINE",
"208 624 OFFCURVE",
"190 637 OFFCURVE",
"152 637 CURVE SMOOTH",
"120 637 OFFCURVE",
"90 622 OFFCURVE",
"90 622 CURVE SMOOTH",
"90 622 OFFCURVE",
"111 575 OFFCURVE",
"111 575 CURVE SMOOTH",
"111 575 OFFCURVE",
"130 586 OFFCURVE",
"152 586 CURVE SMOOTH",
"173 586 OFFCURVE",
"182 578 OFFCURVE",
"198 559 CURVE",
"295 437 LINE",
"357 437 LINE"
);
}
);
width = 408;
}
);
leftMetricsKey = "ai-deva";
rightMetricsKey = "ai-deva";
},
{
color = 7;
glyphname = "ai_anusvara-deva";
lastChange = "2014-11-08 18:21:54 +0000";
layers = (
{
components = (
{
name = "ai-deva";
transform = "{1, 0, 0, 1, 0, 0}";
}
);
layerId = "CFA4B904-E3F1-48B6-A7F6-47DC1FF2A3E1";
name = "Regular Italic";
paths = (
{
closed = 1;
nodes = (
"393 519 OFFCURVE",
"407 535 OFFCURVE",
"407 555 CURVE SMOOTH",
"407 576 OFFCURVE",
"393 592 OFFCURVE",
"370 592 CURVE SMOOTH",
"348 592 OFFCURVE",
"334 576 OFFCURVE",
"334 555 CURVE SMOOTH",
"334 535 OFFCURVE",
"348 519 OFFCURVE",
"370 519 CURVE SMOOTH"
);
}
);
width = 408;
}
);
leftMetricsKey = "ai-deva";
rightMetricsKey = "ai-deva";
},
{
color = 7;
glyphname = "o_candraBindu-deva";
lastChange = "2014-11-08 18:31:56 +0000";
layers = (
{
components = (
{
name = "eMatra_candraBindu-deva";
transform = "{1, 0, 0, 1, 796, 0}";
}
);
layerId = "CFA4B904-E3F1-48B6-A7F6-47DC1FF2A3E1";
name = "Regular Italic";
paths = (
{
closed = 1;
nodes = (
"667 0 LINE",
"722 0 LINE",
"722 456 LINE",
"667 456 LINE"
);
},
{
closed = 1;
nodes = (
"563 456 LINE",
"563 408 LINE",
"819 408 LINE",
"819 456 LINE"
);
},
{
closed = 1;
nodes = (
"457 0 LINE",
"511 0 LINE",
"511 456 LINE",
"457 456 LINE"
);
},
{
closed = 1;
nodes = (
"363 456 LINE",
"363 408 LINE",
"609 408 LINE",
"609 456 LINE"
);
},
{
closed = 1;
nodes = (
"358 167 OFFCURVE",
"352 189 OFFCURVE",
"331 209 CURVE SMOOTH",
"312 227 OFFCURVE",
"291 243 OFFCURVE",
"271 250 CURVE",
"320 272 OFFCURVE",
"343 309 OFFCURVE",
"343 353 CURVE SMOOTH",
"343 413 OFFCURVE",
"294 457 OFFCURVE",
"222 457 CURVE SMOOTH",
"160 457 OFFCURVE",
"122 423 OFFCURVE",
"102 407 CURVE",
"132 366 LINE",
"153 385 OFFCURVE",
"177 406 OFFCURVE",
"221 406 CURVE SMOOTH",
"261 406 OFFCURVE",
"291 386 OFFCURVE",
"291 347 CURVE SMOOTH",
"291 326 OFFCURVE",
"286 274 OFFCURVE",
"182 275 CURVE SMOOTH",
"159 275 LINE",
"159 226 LINE",
"178 226 LINE",
"286 230 OFFCURVE",
"306 187 OFFCURVE",
"306 147 CURVE SMOOTH",
"306 100 OFFCURVE",
"269 77 OFFCURVE",
"221 77 CURVE SMOOTH",
"148 77 OFFCURVE",
"106 127 OFFCURVE",
"62 207 CURVE",
"18 180 LINE",
"74 81 OFFCURVE",
"127 25 OFFCURVE",
"222 25 CURVE SMOOTH",
"298 25 OFFCURVE",
"358 74 OFFCURVE",
"358 137 CURVE SMOOTH"
);
},
{
closed = 1;
nodes = (
"449 246 OFFCURVE",
"427 230 OFFCURVE",
"375 230 CURVE SMOOTH",
"346 230 OFFCURVE",
"313 239 OFFCURVE",
"271 257 CURVE",
"253 236 LINE",
"299 194 OFFCURVE",
"347 182 OFFCURVE",
"388 182 CURVE SMOOTH",
"444 182 OFFCURVE",
"485 205 OFFCURVE",
"485 205 CURVE",
"483 264 LINE"
);
}
);
width = 795;
}
);
leftMetricsKey = "o-deva";
rightMetricsKey = "o-deva";
},
{
color = 7;
glyphname = "o_anusvara-deva";
lastChange = "2014-11-08 18:21:54 +0000";
layers = (
{
components = (
{
name = "o-deva";
transform = "{1, 0, 0, 1, 0, 0}";
}
);
layerId = "CFA4B904-E3F1-48B6-A7F6-47DC1FF2A3E1";
name = "Regular Italic";
paths = (
{
closed = 1;
nodes = (
"772 519 OFFCURVE",
"786 535 OFFCURVE",
"786 555 CURVE SMOOTH",
"786 576 OFFCURVE",
"772 592 OFFCURVE",
"749 592 CURVE SMOOTH",
"727 592 OFFCURVE",
"713 576 OFFCURVE",
"713 555 CURVE SMOOTH",
"713 535 OFFCURVE",
"727 519 OFFCURVE",
"749 519 CURVE SMOOTH"
);
}
);
width = 795;
}
);
leftMetricsKey = "o-deva";
rightMetricsKey = "o-deva";
},
{
color = 7;
glyphname = "au_candraBindu-deva";
lastChange = "2014-11-08 18:31:56 +0000";
layers = (
{
components = (
{
name = "aiMatra_candraBindu-deva";
transform = "{1, 0, 0, 1, 795, 0}";
}
);
layerId = "CFA4B904-E3F1-48B6-A7F6-47DC1FF2A3E1";
name = "Regular Italic";
paths = (
{
closed = 1;
nodes = (
"667 0 LINE",
"722 0 LINE",
"722 456 LINE",
"667 456 LINE"
);
},
{
closed = 1;
nodes = (
"563 456 LINE",
"563 408 LINE",
"819 408 LINE",
"819 456 LINE"
);
},
{
closed = 1;
nodes = (
"457 0 LINE",
"511 0 LINE",
"511 456 LINE",
"457 456 LINE"
);
},
{
closed = 1;
nodes = (
"363 456 LINE",
"363 408 LINE",
"609 408 LINE",
"609 456 LINE"
);
},
{
closed = 1;
nodes = (
"358 167 OFFCURVE",
"352 189 OFFCURVE",
"331 209 CURVE SMOOTH",
"312 227 OFFCURVE",
"291 243 OFFCURVE",
"271 250 CURVE",
"320 272 OFFCURVE",
"343 309 OFFCURVE",
"343 353 CURVE SMOOTH",
"343 413 OFFCURVE",
"294 457 OFFCURVE",
"222 457 CURVE SMOOTH",
"160 457 OFFCURVE",
"122 423 OFFCURVE",
"102 407 CURVE",
"132 366 LINE",
"153 385 OFFCURVE",
"177 406 OFFCURVE",
"221 406 CURVE SMOOTH",
"261 406 OFFCURVE",
"291 386 OFFCURVE",
"291 347 CURVE SMOOTH",
"291 326 OFFCURVE",
"286 274 OFFCURVE",
"182 275 CURVE SMOOTH",
"159 275 LINE",
"159 226 LINE",
"178 226 LINE",
"286 230 OFFCURVE",
"306 187 OFFCURVE",
"306 147 CURVE SMOOTH",
"306 100 OFFCURVE",
"269 77 OFFCURVE",
"221 77 CURVE SMOOTH",
"148 77 OFFCURVE",
"106 127 OFFCURVE",
"62 207 CURVE",
"18 180 LINE",
"74 81 OFFCURVE",
"127 25 OFFCURVE",
"222 25 CURVE SMOOTH",
"298 25 OFFCURVE",
"358 74 OFFCURVE",
"358 137 CURVE SMOOTH"
);
},
{
closed = 1;
nodes = (
"449 246 OFFCURVE",
"427 230 OFFCURVE",
"375 230 CURVE SMOOTH",
"346 230 OFFCURVE",
"313 239 OFFCURVE",
"271 257 CURVE",
"253 236 LINE",
"299 194 OFFCURVE",
"347 182 OFFCURVE",
"388 182 CURVE SMOOTH",
"444 182 OFFCURVE",
"485 205 OFFCURVE",
"485 205 CURVE",
"483 264 LINE"
);
}
);
width = 795;
}
);
leftMetricsKey = "au-deva";
rightMetricsKey = "au-deva";
},
{
color = 7;
glyphname = "au_anusvara-deva";
lastChange = "2014-11-08 18:21:54 +0000";
layers = (
{
components = (
{
name = "au-deva";
transform = "{1, 0, 0, 1, 0, 0}";
}
);
layerId = "CFA4B904-E3F1-48B6-A7F6-47DC1FF2A3E1";
name = "Regular Italic";
paths = (
{
closed = 1;
nodes = (
"813 519 OFFCURVE",
"827 535 OFFCURVE",
"827 555 CURVE SMOOTH",
"827 576 OFFCURVE",
"813 592 OFFCURVE",
"790 592 CURVE SMOOTH",
"768 592 OFFCURVE",
"754 576 OFFCURVE",
"754 555 CURVE SMOOTH",
"754 535 OFFCURVE",
"768 519 OFFCURVE",
"790 519 CURVE SMOOTH"
);
}
);
width = 795;
}
);
leftMetricsKey = "au-deva";
rightMetricsKey = "au-deva";
},
